<svg width="24" height="25" viewBox="0 0 24 25" fill="none" xmlns="http://www.w3.org/2000/svg">
<g clip-path="url(#clip0_1_344)">
<path d="M23.9885 12.2283C23.9885 11.2451 23.9069 10.5275 23.7301 9.78345H12.239V14.2214H18.984C18.8481 15.3243 18.1138 16.9853 16.4819 18.1014L16.459 18.25L20.0923 21.0002L20.344 21.0247C22.6558 18.9385 23.9885 15.8691 23.9885 12.2283Z" fill="#4285F4"/>
<path d="M12.239 23.9215C15.5435 23.9215 18.3177 22.8584 20.344 21.0248L16.4819 18.1015C15.4484 18.8057 14.0612 19.2973 12.239 19.2973C9.00248 19.2973 6.25551 17.2113 5.27629 14.3279L5.13276 14.3398L1.35483 17.1966L1.30542 17.3308C3.31804 21.2373 7.45214 23.9215 12.239 23.9215Z" fill="#34A853"/>
<path d="M5.27634 14.3279C5.01797 13.5839 4.86844 12.7865 4.86844 11.9628C4.86844 11.1389 5.01797 10.3417 5.26275 9.59757L5.25591 9.43909L1.43062 6.53638L1.30547 6.59455C0.475969 8.21564 0 10.0361 0 11.9628C0 13.8894 0.475969 15.7098 1.30547 17.3309L5.27634 14.3279Z" fill="#FBBC05"/>
<path d="M12.239 4.62794C14.5372 4.62794 16.0875 5.59792 16.9714 6.40852L20.4255 3.11319C18.3042 1.1865 15.5435 0.00390625 12.239 0.00390625C7.45214 0.00390625 3.31804 2.68797 1.30542 6.59447L5.2627 9.59749C6.25551 6.7141 9.00248 4.62794 12.239 4.62794Z" fill="#EB4335"/>
</g>
<defs>
<clipPath id="clip0_1_344">
<rect width="24" height="24" fill="white" transform="translate(0 0.00390625)"/>
</clipPath>
</defs>
</svg>
