<svg width="600" height="621" viewBox="0 0 600 621" fill="none" xmlns="http://www.w3.org/2000/svg">
<path d="M554.007 123.683C557.335 122.213 560.159 119.8 562.13 116.742C564.1 113.684 565.131 110.116 565.095 106.478C565.095 96.2026 557.353 87.845 547.722 87.803C538.09 87.761 530.251 96.0486 530.209 106.324C530.14 109.992 531.16 113.597 533.138 116.687C535.116 119.776 537.964 122.21 541.324 123.683C514.487 127.729 515.705 156.904 515.705 156.904L579.164 157.197C579.164 157.197 580.62 127.701 554.007 123.683Z" fill="#0077FF"/>
<path d="M179.037 14.6713L137.557 0L96.4828 14.4753C91.2471 16.9111 86.6833 18.3671 86.6833 23.1828V47.1356C86.6318 63.9586 91.3237 80.4553 100.221 94.7332C109.175 109.286 122.364 120.755 138.019 127.604C154.818 122.228 167.333 107.921 175.005 95.6712C183.891 81.3893 188.578 64.8943 188.528 48.0736V26.5287C188.472 19.669 184.776 16.3232 179.037 14.6713Z" fill="#0077FF"/>
<path d="M151.291 53.3375C151.3 51.2 150.713 49.1021 149.595 47.2802C148.477 45.4583 146.873 43.9847 144.963 43.0255C143.052 42.0663 140.912 41.6595 138.783 41.8509C136.654 42.0424 134.621 42.8245 132.912 44.1091C131.204 45.3938 129.888 47.1299 129.113 49.1221C128.338 51.1142 128.134 53.2832 128.526 55.3847C128.917 57.4862 129.887 59.4367 131.327 61.0166C132.767 62.5965 134.619 63.743 136.675 64.327V81.5041H142.947V64.327C145.344 63.6533 147.457 62.2156 148.963 60.2321C150.468 58.2487 151.286 55.8279 151.291 53.3375Z" fill="white"/>
<path d="M531.708 236.657L538.777 240.493L535.599 245.813L528.46 241.613L528.6 249.467H522.496V241.543L515.427 245.771L512.305 240.451L519.374 236.615L512.305 232.724L515.427 227.404L522.552 231.772V223.848H528.656L528.516 231.772L535.656 227.488L538.833 232.808L531.708 236.657Z" fill="white"/>
<path d="M561.161 236.659L568.23 240.495L565.053 245.814L557.913 241.615L558.053 249.468H551.949L552.019 241.545L544.88 245.828L541.758 240.509L548.827 236.673L541.758 232.781L544.88 227.461L552.019 231.745L551.949 223.821H558.053L557.913 231.745L565.053 227.461L568.23 232.781L561.161 236.659Z" fill="white"/>
<path d="M590.614 236.658L597.698 240.494L594.52 245.814L587.38 241.614L587.506 249.468H581.403L581.473 241.544L574.333 245.828L571.211 240.508L578.295 236.672L571.267 232.766L574.389 227.447L581.529 231.731L581.459 223.807H587.562L587.436 231.731L594.576 227.447L597.754 232.766L590.614 236.658Z" fill="white"/>
<path d="M290.919 571.759V615.241H354.504H424.64V571.759H290.919Z" fill="#8FC9FF"/>
<path d="M285.304 559.594V571.759H429.315V559.594H354.502H285.304Z" fill="#0077FF"/>
<path d="M357.304 615.241H424.641V571.759H429.316V559.594H354.504V570.626L357.304 615.241Z" fill="#8FC9FF"/>
<path d="M336.738 578.759H309.622V585.31H336.738V578.759Z" fill="#0077FF"/>
<path d="M340.952 593.5H306.122V607.317H340.952V593.5Z" fill="#0077FF"/>
<path d="M311.484 516.168V559.65H375.083H445.219V516.168H311.484Z" fill="#8FC9FF"/>
<path d="M305.871 504.002V516.168H449.896V504.002H375.083H305.871Z" fill="#0077FF"/>
<path d="M377.882 559.649H445.219V516.168H449.894V504.002H375.082V515.048L377.882 559.649Z" fill="#8FC9FF"/>
<path d="M357.304 523.181H330.187V529.733H357.304V523.181Z" fill="#0077FF"/>
<path d="M361.532 537.909H326.701V551.727H361.532V537.909Z" fill="#0077FF"/>
<path d="M599.366 615.576C599.366 615.772 465.183 615.94 299.697 615.94C134.211 615.94 0 615.772 0 615.576C0 615.38 134.155 615.212 299.697 615.212C465.239 615.212 599.366 615.352 599.366 615.576Z" fill="#737791"/>
<path d="M507.978 302.777H299.36C294.428 302.777 290.429 306.775 290.429 311.708V419.699C290.429 424.631 294.428 428.63 299.36 428.63H507.978C512.911 428.63 516.909 424.631 516.909 419.699V311.708C516.909 306.775 512.911 302.777 507.978 302.777Z" fill="white"/>
<path d="M369.344 347.252V348.82H362.793V340.42H369.176V341.988H364.739V343.766H368.658V345.292H364.739V347.252H369.344Z" fill="#737791"/>
<path d="M378.667 340.364V348.763H377.057L372.857 343.626V348.763H370.926V340.364H372.479L376.679 345.502V340.364H378.667Z" fill="#737791"/>
<path d="M382.433 341.96H379.717V340.364H387.095V341.96H384.379V348.819H382.433V341.96Z" fill="#737791"/>
<path d="M394.696 347.252V348.82H388.145V340.42H394.542V341.988H390.091V343.766H394.024V345.292H390.091V347.252H394.696Z" fill="#737791"/>
<path d="M401.653 348.82L400.015 346.468H398.224V348.82H396.278V340.42H399.945C402.199 340.42 403.613 341.582 403.613 343.486C403.63 344.055 403.473 344.616 403.163 345.094C402.853 345.572 402.404 345.944 401.877 346.16L403.767 348.876L401.653 348.82ZM399.819 341.96H398.224V344.9H399.819C401.009 344.9 401.611 344.354 401.611 343.43C401.611 342.506 401.009 341.96 399.819 341.96Z" fill="#737791"/>
<path d="M408.038 344.591C408.093 343.679 408.414 342.803 408.963 342.072C409.512 341.341 410.263 340.788 411.124 340.481C411.984 340.173 412.917 340.126 413.804 340.344C414.691 340.562 415.495 341.036 416.115 341.708L414.855 342.87C414.594 342.56 414.268 342.31 413.901 342.139C413.533 341.967 413.133 341.877 412.728 341.876C412.043 341.925 411.402 342.232 410.934 342.734C410.467 343.237 410.207 343.898 410.207 344.584C410.207 345.271 410.467 345.932 410.934 346.435C411.402 346.937 412.043 347.244 412.728 347.293C413.134 347.3 413.537 347.213 413.906 347.041C414.274 346.869 414.599 346.615 414.855 346.299L416.115 347.461C415.499 348.139 414.696 348.619 413.808 348.841C412.92 349.064 411.985 349.019 411.122 348.712C410.259 348.406 409.506 347.851 408.958 347.118C408.409 346.385 408.089 345.506 408.038 344.591Z" fill="#737791"/>
<path d="M416.73 344.592C416.68 343.666 416.909 342.746 417.387 341.952C417.865 341.157 418.571 340.524 419.413 340.135C420.254 339.745 421.194 339.618 422.109 339.768C423.024 339.918 423.873 340.34 424.546 340.978C425.219 341.617 425.685 342.442 425.884 343.348C426.082 344.254 426.004 345.199 425.66 346.06C425.316 346.922 424.721 347.66 423.953 348.179C423.184 348.699 422.278 348.976 421.35 348.974C420.755 349.009 420.158 348.921 419.598 348.716C419.038 348.511 418.525 348.193 418.092 347.783C417.66 347.372 417.315 346.877 417.081 346.329C416.847 345.78 416.728 345.189 416.73 344.592ZM423.996 344.592C423.985 344.072 423.821 343.566 423.523 343.138C423.226 342.71 422.809 342.38 422.325 342.188C421.84 341.997 421.31 341.952 420.801 342.06C420.291 342.169 419.825 342.425 419.46 342.797C419.096 343.169 418.85 343.641 418.752 344.153C418.654 344.664 418.71 345.193 418.912 345.673C419.113 346.154 419.452 346.564 419.886 346.852C420.32 347.14 420.829 347.294 421.35 347.294C421.705 347.302 422.057 347.237 422.385 347.104C422.714 346.97 423.011 346.77 423.259 346.517C423.507 346.264 423.701 345.962 423.827 345.631C423.954 345.3 424.012 344.947 423.996 344.592Z" fill="#737791"/>
<path d="M427.468 340.364H431.276C432.39 340.364 433.458 340.806 434.246 341.594C435.034 342.382 435.476 343.45 435.476 344.564C435.476 345.678 435.034 346.746 434.246 347.533C433.458 348.321 432.39 348.763 431.276 348.763H427.44L427.468 340.364ZM431.206 347.21C431.901 347.21 432.566 346.934 433.057 346.443C433.548 345.952 433.824 345.286 433.824 344.592C433.824 343.897 433.548 343.231 433.057 342.741C432.566 342.25 431.901 341.974 431.206 341.974H429.428V347.21H431.206Z" fill="#737791"/>
<path d="M444.002 347.252V348.82H437.45V340.42H443.876V341.988H439.396V343.766H443.33V345.292H439.396V347.252H444.002Z" fill="#737791"/>
<path d="M337.229 362.329H316.664C313.61 362.329 311.134 364.804 311.134 367.858V399.875C311.134 402.929 313.61 405.405 316.664 405.405H337.229C340.283 405.405 342.759 402.929 342.759 399.875V367.858C342.759 364.804 340.283 362.329 337.229 362.329Z" fill="#8FC9FF"/>
<path d="M376.72 362.329H356.155C353.101 362.329 350.626 364.804 350.626 367.858V399.875C350.626 402.929 353.101 405.405 356.155 405.405H376.72C379.774 405.405 382.25 402.929 382.25 399.875V367.858C382.25 364.804 379.774 362.329 376.72 362.329Z" fill="#8FC9FF"/>
<path d="M416.213 362.329H395.648C392.594 362.329 390.118 364.804 390.118 367.858V399.875C390.118 402.929 392.594 405.405 395.648 405.405H416.213C419.267 405.405 421.743 402.929 421.743 399.875V367.858C421.743 364.804 419.267 362.329 416.213 362.329Z" fill="#8FC9FF"/>
<path d="M455.69 362.329H435.125C432.071 362.329 429.595 364.804 429.595 367.858V399.875C429.595 402.929 432.071 405.405 435.125 405.405H455.69C458.744 405.405 461.22 402.929 461.22 399.875V367.858C461.22 364.804 458.744 362.329 455.69 362.329Z" fill="#8FC9FF"/>
<path d="M495.182 362.329H474.617C471.563 362.329 469.088 364.804 469.088 367.858V399.875C469.088 402.929 471.563 405.405 474.617 405.405H495.182C498.236 405.405 500.712 402.929 500.712 399.875V367.858C500.712 364.804 498.236 362.329 495.182 362.329Z" fill="#8FC9FF"/>
<path d="M333.841 387.164C333.841 390.229 331.461 392.231 328.242 392.231C323.818 392.231 321.48 389.053 321.48 383.832C321.48 378.148 324.518 375.208 328.956 375.208C330.284 375.148 331.605 375.448 332.777 376.076L332.273 377.056C331.259 376.5 330.111 376.233 328.956 376.286C325.19 376.286 322.712 378.764 322.712 383.65C322.712 384.324 322.758 384.998 322.852 385.666C323.246 384.583 323.983 383.659 324.951 383.035C325.919 382.41 327.065 382.12 328.214 382.208C331.573 382.208 333.841 384.168 333.841 387.164ZM332.609 387.164C332.609 384.77 330.888 383.202 328.046 383.202C327.472 383.138 326.891 383.193 326.339 383.364C325.787 383.535 325.276 383.817 324.839 384.194C324.401 384.572 324.046 385.035 323.796 385.555C323.546 386.076 323.405 386.642 323.384 387.22C323.384 389.193 325.036 391.153 328.186 391.153C328.745 391.215 329.311 391.157 329.846 390.984C330.381 390.811 330.874 390.527 331.292 390.15C331.71 389.773 332.043 389.312 332.27 388.798C332.497 388.283 332.613 387.726 332.609 387.164Z" fill="#0891B2"/>
<path d="M372.9 387.486H369.372V392.148H368.168V387.486H358.579V386.604L367.706 375.334H369.106L360.147 386.408H368.224V382.306H369.4V386.408H372.928L372.9 387.486Z" fill="#0891B2"/>
<path d="M413.623 394.541C408.749 395.026 403.84 395.026 398.966 394.541C403.84 394.055 408.749 394.055 413.623 394.541Z" fill="#0891B2"/>
<path d="M304.807 318.778C306.702 318.778 308.237 317.242 308.237 315.348C308.237 313.453 306.702 311.918 304.807 311.918C302.913 311.918 301.377 313.453 301.377 315.348C301.377 317.242 302.913 318.778 304.807 318.778Z" fill="#737791"/>
<path d="M318.119 315.348C318.119 316.026 317.918 316.689 317.541 317.253C317.164 317.817 316.629 318.257 316.002 318.516C315.375 318.776 314.686 318.844 314.02 318.712C313.355 318.579 312.744 318.253 312.264 317.773C311.784 317.293 311.458 316.682 311.325 316.017C311.193 315.352 311.261 314.662 311.521 314.035C311.78 313.408 312.22 312.873 312.784 312.496C313.348 312.119 314.011 311.918 314.689 311.918C315.599 311.918 316.471 312.279 317.115 312.922C317.758 313.566 318.119 314.438 318.119 315.348Z" fill="#737791"/>
<path d="M324.391 318.777C326.286 318.777 327.821 317.242 327.821 315.348C327.821 313.453 326.286 311.918 324.391 311.918C322.497 311.918 320.962 313.453 320.962 315.348C320.962 317.242 322.497 318.777 324.391 318.777Z" fill="#737791"/>
<path d="M517.259 325.007C517.259 325.203 466.54 325.371 404.005 325.371C341.47 325.371 290.75 325.203 290.75 325.007C290.75 324.811 341.442 324.643 404.005 324.643C466.568 324.643 517.259 324.797 517.259 325.007Z" fill="#737791"/>
<path d="M475.668 26.3898H225.585C220.513 26.3898 216.401 30.5014 216.401 35.5733V265.652C216.401 270.724 220.513 274.835 225.585 274.835H475.668C480.74 274.835 484.852 270.724 484.852 265.652V35.5733C484.852 30.5014 480.74 26.3898 475.668 26.3898Z" fill="#F7F4FA"/>
<path d="M236.686 43.6086C236.686 44.5285 236.413 45.4276 235.902 46.1922C235.391 46.9569 234.664 47.5526 233.814 47.9039C232.964 48.2553 232.028 48.3465 231.126 48.166C230.225 47.9856 229.396 47.5415 228.747 46.8901C228.098 46.2387 227.656 45.4093 227.478 44.5068C227.3 43.6043 227.395 42.6693 227.748 41.8203C228.102 40.9713 228.7 40.2464 229.466 39.7373C230.233 39.2283 231.133 38.9581 232.052 38.9609C232.662 38.9609 233.266 39.0812 233.829 39.3149C234.392 39.5487 234.903 39.8912 235.334 40.323C235.764 40.7548 236.105 41.2673 236.337 41.8311C236.57 42.3949 236.688 42.9989 236.686 43.6086Z" fill="#737791"/>
<path d="M245.576 48.2425C248.135 48.2425 250.209 46.1678 250.209 43.6087C250.209 41.0495 248.135 38.9749 245.576 38.9749C243.017 38.9749 240.942 41.0495 240.942 43.6087C240.942 46.1678 243.017 48.2425 245.576 48.2425Z" fill="#737791"/>
<path d="M259.127 48.2425C261.686 48.2425 263.761 46.1678 263.761 43.6087C263.761 41.0495 261.686 38.9749 259.127 38.9749C256.568 38.9749 254.493 41.0495 254.493 43.6087C254.493 46.1678 256.568 48.2425 259.127 48.2425Z" fill="#737791"/>
<path d="M484.852 56.7819C484.852 56.9919 424.753 57.1459 350.627 57.1459C276.5 57.1459 216.401 56.9919 216.401 56.7819C216.401 56.5719 276.486 56.4179 350.627 56.4179C424.767 56.4179 484.852 56.5719 484.852 56.7819Z" fill="#737791"/>
<path d="M388.55 150.367C388.55 150.367 388.648 150.213 388.872 149.933L389.054 149.695L389.236 149.373C389.391 149.113 389.527 148.841 389.642 148.561C389.642 148.407 389.782 148.239 389.838 148.057L390.006 147.469C390.068 147.253 390.115 147.033 390.146 146.811C390.146 146.573 390.23 146.335 390.244 146.083C390.336 144.919 390.279 143.748 390.076 142.597C389.487 139.449 388.41 136.412 386.885 133.596C384.917 129.837 382.617 126.262 380.011 122.914C376.875 118.843 373.455 114.997 369.777 111.407C365.568 107.274 361.072 103.443 356.324 99.9416C353.818 98.0937 351.172 96.3018 348.387 94.6219C345.546 92.8867 342.595 91.3388 339.553 89.9881C336.426 88.5608 333.135 87.5263 329.753 86.9083C328.025 86.6004 326.259 86.5579 324.518 86.7823C323.643 86.9064 322.791 87.1514 321.984 87.5102C321.193 87.8988 320.477 88.4249 319.87 89.0642C319.291 89.7346 318.844 90.509 318.554 91.346C318.291 92.1901 318.145 93.0662 318.12 93.9499C318.097 95.7071 318.338 97.4579 318.834 99.1437C319.838 102.442 321.249 105.602 323.034 108.551C324.716 111.42 326.587 114.175 328.633 116.797C330.621 119.373 332.707 121.809 334.821 124.09C338.842 128.409 343.165 132.437 347.757 136.144C351.741 139.392 355.951 142.354 360.356 145.005C363.979 147.209 367.793 149.083 371.751 150.605C374.727 151.792 377.866 152.519 381.061 152.761C382.223 152.818 383.389 152.738 384.533 152.523C384.785 152.523 385.009 152.397 385.233 152.341C385.451 152.284 385.666 152.213 385.877 152.131L386.437 151.893L386.927 151.641C387.193 151.496 387.446 151.327 387.683 151.137L387.977 150.927L388.201 150.717C388.452 150.465 388.592 150.353 388.592 150.353L388.214 150.731L387.99 150.941L387.711 151.165C387.471 151.358 387.213 151.527 386.941 151.669L386.479 151.977L385.905 152.215C385.7 152.301 385.49 152.372 385.275 152.425C385.041 152.505 384.803 152.571 384.561 152.621C383.41 152.857 382.233 152.941 381.061 152.873C377.858 152.655 374.708 151.942 371.723 150.759C367.751 149.238 363.923 147.364 360.286 145.159C355.882 142.507 351.671 139.546 347.687 136.298C343.082 132.596 338.75 128.568 334.723 124.244C332.609 121.962 330.523 119.527 328.522 116.951C326.48 114.315 324.61 111.552 322.922 108.677C321.134 105.714 319.724 102.54 318.722 99.2276C318.212 97.5205 317.967 95.7454 317.994 93.9639C318.024 93.0658 318.174 92.1758 318.442 91.318C318.76 90.4503 319.234 89.6484 319.842 88.9522C320.462 88.2869 321.204 87.7454 322.026 87.3562C322.851 86.9882 323.722 86.7339 324.616 86.6003C326.381 86.3757 328.169 86.4182 329.921 86.7263C333.327 87.3495 336.642 88.3934 339.791 89.8341C342.839 91.1865 345.795 92.7392 348.638 94.4819C351.438 96.1618 354.084 97.9537 356.59 99.8156C361.345 103.323 365.841 107.169 370.043 111.323C373.729 114.92 377.154 118.775 380.291 122.858C382.89 126.216 385.181 129.8 387.137 133.568C388.659 136.399 389.731 139.45 390.314 142.611C390.509 143.772 390.556 144.953 390.454 146.125C390.433 146.365 390.396 146.604 390.342 146.839C390.32 147.063 390.273 147.284 390.202 147.497L390.034 148.099C389.975 148.272 389.905 148.44 389.824 148.603C389.719 148.89 389.578 149.163 389.404 149.415C389.355 149.529 389.294 149.636 389.222 149.737L389.04 149.975L388.55 150.367Z" fill="#0891B2"/>
<path d="M401.249 119.68V119.148V118.854C401.249 118.742 401.249 118.63 401.179 118.49C401.13 118.188 401.05 117.893 400.941 117.608C400.941 117.454 400.829 117.272 400.759 117.104L400.479 116.544C400.388 116.341 400.275 116.149 400.143 115.97C400.022 115.76 399.886 115.559 399.737 115.368C399.04 114.432 398.221 113.594 397.301 112.876C394.755 110.921 391.921 109.372 388.901 108.284C384.934 106.784 380.838 105.646 376.666 104.883C371.586 103.929 366.445 103.339 361.281 103.119C355.385 102.831 349.477 102.958 343.6 103.497C340.506 103.791 337.342 104.225 334.136 104.827C330.861 105.417 327.629 106.226 324.463 107.248C321.171 108.245 318.019 109.657 315.083 111.448C313.587 112.366 312.241 113.509 311.093 114.836C310.525 115.509 310.054 116.258 309.693 117.062C309.347 117.878 309.157 118.752 309.133 119.638C309.161 120.522 309.346 121.394 309.679 122.214C310.045 123.014 310.516 123.763 311.079 124.44C312.236 125.768 313.585 126.915 315.083 127.841C318.023 129.625 321.174 131.036 324.463 132.041C327.633 133.05 330.864 133.859 334.136 134.463C337.342 135.065 340.506 135.485 343.6 135.779C349.477 136.329 355.385 136.46 361.281 136.171C366.446 135.964 371.591 135.403 376.68 134.491C380.852 133.728 384.948 132.589 388.915 131.089C391.93 129.99 394.762 128.442 397.315 126.497C398.231 125.776 399.05 124.938 399.751 124.006C399.901 123.81 400.036 123.604 400.157 123.39C400.289 123.211 400.402 123.019 400.493 122.816L400.773 122.27C400.843 122.088 400.899 121.92 400.955 121.752C401.066 121.467 401.146 121.172 401.193 120.87C401.193 120.744 401.193 120.632 401.263 120.52V120.226V119.68C401.263 119.68 401.263 119.862 401.263 120.226V120.52C401.263 120.632 401.263 120.744 401.263 120.884C401.22 121.185 401.144 121.481 401.039 121.766C401.039 121.934 400.927 122.102 400.857 122.284L400.591 122.844C400.492 123.047 400.379 123.243 400.255 123.432C400.131 123.64 399.995 123.841 399.849 124.034C399.153 124.979 398.334 125.826 397.413 126.553C394.871 128.525 392.037 130.088 389.013 131.187C385.043 132.704 380.943 133.857 376.764 134.631C371.679 135.588 366.533 136.187 361.365 136.423C355.465 136.722 349.552 136.6 343.67 136.059C340.562 135.765 337.384 135.345 334.178 134.743C330.897 134.138 327.657 133.329 324.477 132.321C321.172 131.321 318.007 129.91 315.055 128.121C313.54 127.19 312.176 126.034 311.009 124.692C310.442 123.998 309.971 123.23 309.609 122.41C309.231 121.574 309.036 120.667 309.036 119.75C309.036 118.832 309.231 117.926 309.609 117.09C309.976 116.272 310.446 115.505 311.009 114.808C312.188 113.467 313.561 112.311 315.083 111.378C318.041 109.592 321.211 108.181 324.519 107.178C327.691 106.158 330.927 105.349 334.206 104.757C337.426 104.155 340.59 103.735 343.698 103.441C349.54 102.872 355.416 102.718 361.281 102.979C366.45 103.212 371.597 103.816 376.68 104.785C380.859 105.552 384.959 106.7 388.929 108.214C391.953 109.313 394.787 110.877 397.329 112.848C398.247 113.579 399.065 114.426 399.765 115.368C399.915 115.563 400.05 115.769 400.171 115.984C400.298 116.171 400.411 116.367 400.507 116.572L400.773 117.118C400.843 117.3 400.899 117.482 400.955 117.636C401.061 117.926 401.136 118.226 401.179 118.532C401.179 118.658 401.179 118.784 401.179 118.882V119.19C401.249 119.498 401.249 119.68 401.249 119.68Z" fill="#0891B2"/>
<path d="M384.421 81.5048L383.959 81.2108L383.707 81.0428C383.604 80.9834 383.496 80.9319 383.385 80.8888C383.118 80.7431 382.836 80.6258 382.545 80.5389C382.377 80.5389 382.209 80.4129 382.027 80.3709L381.425 80.2449C381.208 80.1975 380.988 80.1648 380.767 80.1469C380.525 80.1326 380.281 80.1326 380.039 80.1469C378.87 80.1321 377.704 80.2637 376.567 80.5389C373.469 81.3613 370.514 82.65 367.804 84.3607C364.186 86.5737 360.78 89.1136 357.626 91.9483C353.778 95.3578 350.176 99.0347 346.847 102.952C343.009 107.433 339.496 112.181 336.333 117.161C334.681 119.779 333.057 122.579 331.573 125.379C330.035 128.329 328.693 131.379 327.556 134.506C326.352 137.732 325.548 141.094 325.162 144.516C324.975 146.263 325.055 148.028 325.4 149.751C325.592 150.614 325.898 151.447 326.31 152.229C326.743 153.001 327.318 153.685 328.004 154.245C328.717 154.764 329.518 155.148 330.369 155.379C331.226 155.587 332.107 155.676 332.987 155.645C334.745 155.547 336.477 155.184 338.125 154.567C341.346 153.345 344.403 151.728 347.225 149.751C349.969 147.871 352.588 145.813 355.064 143.592C357.5 141.422 359.782 139.182 361.91 136.914C365.937 132.603 369.656 128.014 373.039 123.181C376.006 118.983 378.672 114.581 381.019 110.007C382.975 106.246 384.587 102.314 385.835 98.262C386.814 95.2072 387.319 92.0203 387.333 88.8124C387.329 87.6484 387.169 86.4901 386.857 85.3686C386.857 85.1166 386.703 84.8926 386.633 84.6687C386.563 84.4447 386.479 84.2487 386.381 84.0527L386.115 83.5067C386.017 83.3387 385.905 83.1847 385.821 83.0447C385.662 82.782 385.474 82.5378 385.261 82.3168L385.037 82.0368L384.813 81.8408L384.421 81.4768L384.827 81.8268L385.051 82.0228C385.137 82.1051 385.216 82.194 385.289 82.2888C385.5 82.5117 385.687 82.7557 385.849 83.0167C385.947 83.1707 386.059 83.3107 386.157 83.4787L386.423 84.0387C386.531 84.2351 386.62 84.4414 386.689 84.6547C386.759 84.8787 386.857 85.1026 386.913 85.3546C387.236 86.4792 387.405 87.6424 387.417 88.8124C387.422 92.0288 386.926 95.2263 385.947 98.29C384.704 102.354 383.102 106.298 381.159 110.077C378.813 114.66 376.146 119.071 373.179 123.279C369.805 128.127 366.085 132.726 362.05 137.04C359.922 139.322 357.64 141.576 355.19 143.746C352.709 145.971 350.085 148.033 347.337 149.919C344.504 151.911 341.433 153.538 338.195 154.763C336.528 155.386 334.778 155.754 333.001 155.855C332.098 155.885 331.194 155.796 330.313 155.589C329.437 155.342 328.612 154.939 327.878 154.399C327.17 153.824 326.577 153.121 326.128 152.327C325.704 151.528 325.389 150.676 325.19 149.793C324.85 148.051 324.774 146.267 324.966 144.502C325.345 141.059 326.154 137.678 327.374 134.436C328.511 131.304 329.853 128.25 331.391 125.295C332.889 122.383 334.499 119.611 336.165 116.979C339.347 112.001 342.874 107.253 346.721 102.77C350.056 98.8534 353.668 95.1809 357.528 91.7803C360.699 88.9488 364.12 86.4093 367.748 84.1927C370.472 82.4895 373.442 81.2147 376.553 80.4129C377.693 80.131 378.865 79.9992 380.039 80.0209C380.291 80.0209 380.529 80.0209 380.767 80.0209C380.993 80.0378 381.217 80.0705 381.439 80.1189L382.041 80.2449L382.559 80.4269C382.851 80.518 383.133 80.6401 383.399 80.7909C383.51 80.8339 383.618 80.8854 383.721 80.9448L383.973 81.1268L384.421 81.5048Z" fill="#0891B2"/>
<path d="M308.572 138.705C308.81 138.944 308.971 139.249 309.037 139.58C309.102 139.911 309.067 140.254 308.938 140.565C308.808 140.877 308.589 141.143 308.309 141.33C308.028 141.518 307.698 141.617 307.361 141.617C307.023 141.617 306.694 141.518 306.413 141.33C306.132 141.143 305.913 140.877 305.784 140.565C305.654 140.254 305.62 139.911 305.685 139.58C305.75 139.249 305.912 138.944 306.15 138.705C306.309 138.546 306.497 138.419 306.705 138.333C306.913 138.246 307.136 138.202 307.361 138.202C307.586 138.202 307.809 138.246 308.016 138.333C308.224 138.419 308.413 138.546 308.572 138.705Z" fill="#0891B2"/>
<path d="M405.153 85.6626C405.156 86.0037 405.057 86.338 404.87 86.623C404.682 86.908 404.414 87.1309 404.1 87.2633C403.786 87.3958 403.439 87.4319 403.104 87.3671C402.769 87.3022 402.461 87.1393 402.219 86.8991C401.977 86.6588 401.811 86.3521 401.744 86.0177C401.676 85.6833 401.709 85.3363 401.839 85.0209C401.969 84.7054 402.19 84.4357 402.473 84.2458C402.757 84.056 403.09 83.9547 403.431 83.9546C403.657 83.9528 403.88 83.9956 404.089 84.0806C404.298 84.1656 404.488 84.2911 404.648 84.4499C404.808 84.6087 404.935 84.7976 405.022 85.0057C405.109 85.2138 405.153 85.4371 405.153 85.6626Z" fill="#0891B2"/>
<path d="M319.38 144.334C319.38 144.42 319.354 144.504 319.307 144.575C319.259 144.646 319.191 144.702 319.112 144.735C319.033 144.768 318.945 144.776 318.861 144.759C318.777 144.743 318.7 144.701 318.639 144.641C318.578 144.58 318.537 144.503 318.52 144.418C318.504 144.334 318.512 144.247 318.545 144.168C318.578 144.088 318.633 144.021 318.705 143.973C318.776 143.925 318.86 143.9 318.946 143.9C319.061 143.9 319.171 143.946 319.253 144.027C319.334 144.108 319.38 144.219 319.38 144.334Z" fill="#0891B2"/>
<path d="M328.661 96.3721C328.661 96.458 328.636 96.5419 328.588 96.6133C328.54 96.6846 328.473 96.7402 328.393 96.7731C328.314 96.8059 328.227 96.8145 328.143 96.7978C328.058 96.781 327.981 96.7397 327.92 96.679C327.86 96.6183 327.818 96.541 327.802 96.4568C327.785 96.3726 327.793 96.2854 327.826 96.2061C327.859 96.1268 327.915 96.059 327.986 96.0113C328.057 95.9636 328.141 95.9382 328.227 95.9382C328.342 95.9382 328.453 95.9839 328.534 96.0653C328.615 96.1467 328.661 96.257 328.661 96.3721Z" fill="#0891B2"/>
<path d="M396.544 119.681C396.544 119.796 396.498 119.907 396.417 119.988C396.335 120.07 396.225 120.115 396.11 120.115C395.995 120.115 395.885 120.07 395.803 119.988C395.722 119.907 395.676 119.796 395.676 119.681C395.676 119.566 395.722 119.456 395.803 119.374C395.885 119.293 395.995 119.247 396.11 119.247C396.225 119.247 396.335 119.293 396.417 119.374C396.498 119.456 396.544 119.566 396.544 119.681Z" fill="#0891B2"/>
<path d="M402.591 99.4101C402.591 99.5252 402.545 99.6356 402.464 99.717C402.383 99.7984 402.272 99.8441 402.157 99.8441C402.042 99.8441 401.932 99.7984 401.85 99.717C401.769 99.6356 401.723 99.5252 401.723 99.4101C401.723 99.295 401.769 99.1846 401.85 99.1032C401.932 99.0219 402.042 98.9761 402.157 98.9761C402.272 98.9761 402.383 99.0219 402.464 99.1032C402.545 99.1846 402.591 99.295 402.591 99.4101Z" fill="#0891B2"/>
<path d="M373.277 129.242H367.901V99.9696C367.901 96.6541 366.584 93.4743 364.24 91.1298C361.895 88.7854 358.716 87.4683 355.4 87.4683C352.084 87.4683 348.905 88.7854 346.56 91.1298C344.216 93.4743 342.899 96.6541 342.899 99.9696V129.242H337.481V99.9696C337.481 95.2283 339.364 90.6812 342.717 87.3286C346.07 83.976 350.617 82.0925 355.358 82.0925C360.099 82.0925 364.646 83.976 367.999 87.3286C371.352 90.6812 373.235 95.2283 373.235 99.9696L373.277 129.242Z" fill="#0891B2"/>
<g opacity="0.3">
<path opacity="0.3" d="M373.278 129.242H367.903V99.9696C367.903 96.6541 366.586 93.4743 364.241 91.1298C361.897 88.7854 358.717 87.4683 355.401 87.4683C352.086 87.4683 348.906 88.7854 346.561 91.1298C344.217 93.4743 342.9 96.6541 342.9 99.9696V129.242H337.482V99.9696C337.482 95.2283 339.366 90.6812 342.718 87.3286C346.071 83.976 350.618 82.0925 355.359 82.0925C360.101 82.0925 364.648 83.976 368 87.3286C371.353 90.6812 373.236 95.2283 373.236 99.9696L373.278 129.242Z" fill="#151D48"/>
</g>
<path d="M376.344 116.223H334.458C332.718 116.223 331.308 117.633 331.308 119.373V143.984C331.308 145.723 332.718 147.133 334.458 147.133H376.344C378.083 147.133 379.494 145.723 379.494 143.984V119.373C379.494 117.633 378.083 116.223 376.344 116.223Z" fill="#0891B2"/>
<g opacity="0.3">
<path opacity="0.3" d="M359.431 127.661C359.437 126.909 359.233 126.171 358.841 125.529C358.45 124.888 357.886 124.368 357.215 124.03C356.544 123.691 355.792 123.547 355.043 123.614C354.294 123.68 353.579 123.955 352.978 124.406C352.377 124.858 351.914 125.469 351.642 126.169C351.369 126.87 351.298 127.633 351.437 128.372C351.575 129.111 351.917 129.796 352.424 130.351C352.932 130.905 353.584 131.307 354.308 131.511V137.531H356.492V131.511C357.335 131.278 358.079 130.776 358.61 130.081C359.141 129.386 359.429 128.536 359.431 127.661Z" fill="#151D48"/>
</g>
<path d="M333.883 144.208C333.771 144.208 333.673 139.056 333.673 132.7C333.673 126.344 333.771 121.179 333.883 121.179C333.995 121.179 334.079 126.33 334.079 132.7C334.079 139.07 333.981 144.208 333.883 144.208Z" fill="white"/>
<path d="M352.251 132.812C352.251 132.812 352.055 132.812 351.775 132.546C351.378 132.25 351.029 131.896 350.739 131.496C350.229 130.836 349.873 130.07 349.696 129.255C349.52 128.44 349.528 127.595 349.72 126.783C349.912 125.972 350.283 125.213 350.805 124.563C351.328 123.913 351.989 123.388 352.741 123.026C353.179 122.791 353.651 122.626 354.141 122.536C354.321 122.502 354.506 122.502 354.687 122.536C354.068 122.746 353.464 122.999 352.881 123.292C352.197 123.669 351.6 124.185 351.128 124.806C350.655 125.427 350.318 126.14 350.138 126.899C349.957 127.659 349.937 128.447 350.079 129.215C350.221 129.982 350.522 130.711 350.963 131.356C351.352 131.875 351.783 132.362 352.251 132.812Z" fill="white"/>
<path d="M426.937 173.634H278.586C271.38 173.634 265.539 179.476 265.539 186.682V188.278C265.539 195.484 271.38 201.325 278.586 201.325H426.937C434.143 201.325 439.984 195.484 439.984 188.278V186.682C439.984 179.476 434.143 173.634 426.937 173.634Z" fill="#8FC9FF"/>
<path d="M428.211 211.6H279.861C272.655 211.6 266.813 217.442 266.813 224.648V226.244C266.813 233.449 272.655 239.291 279.861 239.291H428.211C435.417 239.291 441.258 233.449 441.258 226.244V224.648C441.258 217.442 435.417 211.6 428.211 211.6Z" fill="#8FC9FF"/>
<path d="M293.103 187.256V183.252H294.769V187.2C294.769 188.6 295.357 189.118 296.365 189.118C297.373 189.118 297.961 188.558 297.961 187.2V183.252H299.599V187.256C299.599 188.117 299.257 188.943 298.647 189.552C298.038 190.161 297.212 190.503 296.351 190.503C295.489 190.503 294.663 190.161 294.054 189.552C293.445 188.943 293.103 188.117 293.103 187.256Z" fill="#0891B2"/>
<path d="M300.593 189.901L301.111 188.753C301.691 189.098 302.354 189.282 303.029 189.285C303.771 189.285 304.037 189.089 304.037 188.781C304.037 187.885 300.719 188.781 300.719 186.611C300.719 185.561 301.657 184.819 303.267 184.819C304.001 184.807 304.727 184.975 305.381 185.309L304.849 186.443C304.367 186.168 303.821 186.028 303.267 186.037C302.553 186.037 302.245 186.261 302.245 186.541C302.245 187.479 305.563 186.541 305.563 188.739C305.563 189.761 304.625 190.489 302.973 190.489C302.142 190.507 301.32 190.304 300.593 189.901Z" fill="#0891B2"/>
<path d="M311.919 188.109H307.72C307.806 188.453 308.013 188.755 308.304 188.958C308.594 189.162 308.949 189.253 309.302 189.215C309.559 189.227 309.816 189.185 310.057 189.094C310.297 189.002 310.517 188.863 310.702 188.683L311.556 189.607C311.263 189.909 310.91 190.144 310.518 190.296C310.127 190.449 309.707 190.514 309.288 190.489C308.892 190.539 308.49 190.504 308.108 190.386C307.727 190.267 307.376 190.069 307.077 189.804C306.779 189.539 306.541 189.213 306.379 188.848C306.217 188.484 306.135 188.088 306.138 187.689C306.137 187.31 306.214 186.934 306.363 186.585C306.513 186.235 306.732 185.92 307.007 185.658C307.282 185.396 307.607 185.193 307.963 185.061C308.319 184.929 308.698 184.87 309.078 184.889C309.451 184.88 309.823 184.946 310.171 185.082C310.518 185.219 310.835 185.423 311.103 185.684C311.37 185.945 311.583 186.257 311.728 186.601C311.873 186.946 311.948 187.316 311.948 187.689C311.948 187.801 311.919 187.969 311.919 188.109ZM307.72 187.171H310.422C310.341 186.875 310.165 186.613 309.921 186.426C309.677 186.24 309.378 186.139 309.071 186.139C308.763 186.139 308.465 186.24 308.22 186.426C307.976 186.613 307.8 186.875 307.72 187.171Z" fill="#0891B2"/>
<path d="M316.484 184.82V186.304H316.12C315.923 186.303 315.729 186.343 315.549 186.422C315.37 186.501 315.209 186.617 315.077 186.762C314.945 186.907 314.845 187.079 314.783 187.265C314.722 187.451 314.7 187.649 314.72 187.844V190.434H313.124V184.932H314.65V185.576C314.875 185.315 315.158 185.111 315.477 184.979C315.795 184.848 316.14 184.793 316.484 184.82Z" fill="#0891B2"/>
<path d="M323.007 187.255V190.405H321.411V187.507C321.411 186.611 321.005 186.205 320.291 186.205C319.577 186.205 318.975 186.681 318.975 187.689V190.405H317.379V184.903H318.905V185.575C319.141 185.334 319.425 185.145 319.738 185.02C320.052 184.895 320.387 184.836 320.725 184.847C321.041 184.826 321.357 184.875 321.652 184.991C321.947 185.107 322.213 185.286 322.431 185.515C322.649 185.745 322.813 186.02 322.913 186.321C323.012 186.622 323.044 186.941 323.007 187.255Z" fill="#0891B2"/>
<path d="M329.321 187.27V190.406H327.823V189.776C327.638 190.043 327.385 190.256 327.089 190.392C326.793 190.527 326.467 190.581 326.143 190.546C324.855 190.546 324.085 189.832 324.085 188.88C324.085 187.928 324.771 187.228 326.451 187.228H327.683C327.683 186.556 327.277 186.15 326.409 186.15C325.84 186.148 325.285 186.329 324.827 186.668L324.253 185.548C324.961 185.09 325.79 184.856 326.633 184.876C328.341 184.82 329.321 185.576 329.321 187.27ZM327.725 188.67V188.11H326.633C325.877 188.11 325.653 188.39 325.653 188.754C325.653 189.118 325.989 189.426 326.549 189.426C326.793 189.433 327.034 189.364 327.237 189.229C327.44 189.093 327.596 188.898 327.683 188.67H327.725Z" fill="#0891B2"/>
<path d="M340.057 187.256V190.406H338.461V187.508C338.461 186.612 338.069 186.206 337.425 186.206C336.781 186.206 336.207 186.668 336.207 187.606V190.406H334.681V187.508C334.681 186.612 334.303 186.206 333.631 186.206C332.959 186.206 332.427 186.668 332.427 187.606V190.406H330.761V184.904H332.287V185.576C332.504 185.336 332.77 185.147 333.068 185.021C333.365 184.895 333.687 184.836 334.009 184.848C334.365 184.832 334.719 184.907 335.038 185.066C335.356 185.225 335.629 185.464 335.829 185.758C336.067 185.462 336.37 185.226 336.715 185.068C337.06 184.91 337.438 184.834 337.817 184.848C338.131 184.829 338.445 184.879 338.737 184.996C339.029 185.112 339.292 185.292 339.506 185.523C339.72 185.753 339.881 186.028 339.976 186.327C340.071 186.627 340.099 186.944 340.057 187.256Z" fill="#0891B2"/>
<path d="M346.916 188.109H342.716C342.788 188.459 342.99 188.768 343.281 188.973C343.572 189.179 343.931 189.265 344.284 189.215C344.541 189.226 344.798 189.184 345.039 189.093C345.279 189.001 345.499 188.862 345.684 188.683L346.524 189.607C346.233 189.911 345.88 190.147 345.488 190.299C345.096 190.451 344.676 190.516 344.256 190.489C343.861 190.537 343.461 190.5 343.081 190.381C342.702 190.262 342.352 190.063 342.055 189.798C341.759 189.533 341.522 189.208 341.361 188.844C341.199 188.481 341.118 188.087 341.12 187.689C341.12 187.31 341.197 186.934 341.346 186.585C341.496 186.235 341.714 185.92 341.989 185.658C342.264 185.396 342.59 185.193 342.946 185.061C343.302 184.929 343.681 184.87 344.06 184.889C344.803 184.889 345.515 185.184 346.04 185.71C346.565 186.235 346.86 186.947 346.86 187.689C346.944 187.801 346.93 187.969 346.916 188.109ZM342.716 187.171H345.432C345.387 186.84 345.217 186.538 344.957 186.327C344.697 186.117 344.366 186.013 344.032 186.037C343.713 186.032 343.404 186.144 343.163 186.354C342.923 186.563 342.768 186.855 342.73 187.171H342.716Z" fill="#0891B2"/>
<path d="M357.473 187.606C357.473 189.439 356.633 190.489 355.373 190.489C355.074 190.509 354.777 190.433 354.526 190.272C354.274 190.11 354.08 189.873 353.973 189.593C353.787 189.885 353.527 190.121 353.219 190.279C352.912 190.436 352.568 190.509 352.223 190.489C351.583 190.423 350.99 190.121 350.558 189.643C350.127 189.165 349.889 188.543 349.889 187.9C349.889 187.256 350.127 186.635 350.558 186.156C350.99 185.678 351.583 185.376 352.223 185.31C352.519 185.296 352.815 185.351 353.087 185.47C353.359 185.589 353.6 185.769 353.791 185.996V185.394H355.191V188.698C355.191 189.188 355.401 189.355 355.681 189.355C355.961 189.355 356.437 188.81 356.437 187.634C356.443 187.145 356.346 186.661 356.153 186.212C355.96 185.763 355.674 185.36 355.315 185.029C354.956 184.698 354.532 184.445 354.069 184.289C353.606 184.132 353.115 184.075 352.629 184.12C351.645 184.12 350.701 184.511 350.006 185.206C349.31 185.902 348.919 186.846 348.919 187.83C348.919 188.813 349.31 189.757 350.006 190.453C350.701 191.149 351.645 191.539 352.629 191.539C353.326 191.538 354.014 191.386 354.645 191.091L354.967 192.029C354.234 192.365 353.435 192.532 352.629 192.519C351.993 192.554 351.356 192.459 350.757 192.239C350.159 192.02 349.611 191.68 349.149 191.242C348.686 190.804 348.317 190.276 348.065 189.69C347.813 189.105 347.683 188.474 347.683 187.837C347.683 187.199 347.813 186.568 348.065 185.983C348.317 185.397 348.686 184.869 349.149 184.431C349.611 183.993 350.159 183.654 350.757 183.434C351.356 183.214 351.993 183.119 352.629 183.154C353.245 183.104 353.864 183.181 354.449 183.382C355.033 183.583 355.569 183.902 356.024 184.32C356.479 184.739 356.843 185.246 357.092 185.812C357.341 186.377 357.471 186.988 357.473 187.606ZM353.819 187.9C353.839 187.72 353.82 187.539 353.764 187.368C353.708 187.196 353.616 187.039 353.494 186.906C353.372 186.773 353.223 186.668 353.057 186.598C352.891 186.528 352.711 186.495 352.531 186.5C352.16 186.5 351.804 186.647 351.541 186.91C351.279 187.172 351.131 187.528 351.131 187.9C351.131 188.271 351.279 188.627 351.541 188.889C351.804 189.152 352.16 189.3 352.531 189.3C352.711 189.305 352.891 189.271 353.057 189.201C353.223 189.131 353.372 189.026 353.494 188.893C353.616 188.76 353.708 188.603 353.764 188.432C353.82 188.26 353.839 188.079 353.819 187.9Z" fill="#0891B2"/>
<path d="M367.902 187.255V190.405H366.306V187.507C366.306 186.611 365.914 186.205 365.27 186.205C364.626 186.205 364.052 186.667 364.052 187.605V190.405H362.456V187.507C362.456 186.611 362.078 186.205 361.406 186.205C360.734 186.205 360.202 186.667 360.202 187.605V190.405H358.606V184.903H360.132V185.575C360.348 185.336 360.615 185.146 360.912 185.021C361.21 184.895 361.531 184.836 361.854 184.847C362.21 184.831 362.564 184.906 362.882 185.065C363.201 185.225 363.473 185.463 363.674 185.757C363.909 185.462 364.21 185.227 364.553 185.069C364.896 184.911 365.27 184.835 365.648 184.847C365.963 184.826 366.278 184.875 366.572 184.99C366.866 185.106 367.131 185.286 367.346 185.516C367.562 185.747 367.724 186.022 367.82 186.323C367.916 186.624 367.944 186.942 367.902 187.255Z" fill="#0891B2"/>
<path d="M374.201 187.27V190.406H372.717V189.776C372.532 190.043 372.279 190.256 371.983 190.392C371.687 190.527 371.361 190.581 371.037 190.546C369.749 190.546 368.979 189.832 368.979 188.88C368.979 187.928 369.665 187.228 371.345 187.228H372.605C372.605 186.556 372.199 186.15 371.345 186.15C370.775 186.143 370.219 186.325 369.763 186.668L369.189 185.548C369.893 185.093 370.717 184.859 371.555 184.876C373.235 184.82 374.201 185.576 374.201 187.27ZM372.605 188.67V188.11H371.513C370.771 188.11 370.533 188.39 370.533 188.754C370.533 189.118 370.869 189.426 371.429 189.426C371.68 189.442 371.93 189.378 372.142 189.241C372.353 189.105 372.516 188.905 372.605 188.67Z" fill="#0891B2"/>
<path d="M375.461 183.252C375.463 183.126 375.49 183.002 375.542 182.888C375.594 182.773 375.669 182.67 375.762 182.586C375.855 182.502 375.965 182.438 376.085 182.399C376.204 182.359 376.33 182.344 376.455 182.356C376.627 182.375 376.79 182.443 376.924 182.552C377.058 182.662 377.157 182.807 377.21 182.972C377.263 183.136 377.267 183.312 377.223 183.479C377.178 183.646 377.086 183.796 376.957 183.912C376.829 184.028 376.67 184.104 376.499 184.131C376.329 184.159 376.154 184.136 375.996 184.066C375.838 183.997 375.703 183.883 375.608 183.738C375.513 183.594 375.462 183.425 375.461 183.252ZM375.657 184.904H377.239V190.406H375.657V184.904Z" fill="#0891B2"/>
<path d="M378.738 182.776H380.334V190.363H378.738V182.776Z" fill="#0891B2"/>
<path d="M381.426 189.496C381.426 189.233 381.531 188.98 381.717 188.793C381.904 188.607 382.156 188.502 382.42 188.502C382.684 188.502 382.936 188.607 383.123 188.793C383.309 188.98 383.414 189.233 383.414 189.496C383.414 189.76 383.309 190.013 383.123 190.199C382.936 190.385 382.684 190.49 382.42 190.49C382.156 190.49 381.904 190.385 381.717 190.199C381.531 190.013 381.426 189.76 381.426 189.496Z" fill="#0891B2"/>
<path d="M384.015 187.662C384.013 187.271 384.093 186.884 384.25 186.526C384.407 186.167 384.638 185.846 384.926 185.582C385.215 185.318 385.556 185.118 385.927 184.994C386.298 184.87 386.691 184.825 387.081 184.862C387.584 184.82 388.09 184.931 388.529 185.181C388.969 185.43 389.323 185.808 389.544 186.262L388.312 186.92C388.171 186.712 387.978 186.543 387.752 186.431C387.526 186.318 387.275 186.266 387.023 186.278C386.772 186.291 386.527 186.368 386.314 186.503C386.1 186.637 385.925 186.824 385.805 187.045C385.685 187.267 385.623 187.516 385.627 187.768C385.631 188.02 385.699 188.267 385.826 188.485C385.953 188.703 386.133 188.885 386.351 189.013C386.568 189.141 386.814 189.211 387.067 189.216C387.324 189.217 387.576 189.146 387.796 189.013C388.015 188.88 388.194 188.688 388.312 188.46L389.544 189.132C389.32 189.584 388.965 189.959 388.526 190.209C388.087 190.458 387.584 190.571 387.081 190.532C386.685 190.57 386.286 190.523 385.91 190.395C385.534 190.267 385.19 190.061 384.9 189.789C384.61 189.518 384.381 189.188 384.228 188.821C384.076 188.454 384.003 188.059 384.015 187.662Z" fill="#0891B2"/>
<path d="M389.991 187.662C389.946 187.056 390.085 186.451 390.389 185.925C390.692 185.4 391.147 184.977 391.694 184.714C392.242 184.45 392.855 184.357 393.456 184.448C394.056 184.538 394.616 184.807 395.061 185.219C395.507 185.632 395.818 186.169 395.954 186.761C396.09 187.353 396.045 187.972 395.824 188.537C395.603 189.103 395.217 189.589 394.716 189.932C394.215 190.276 393.623 190.46 393.015 190.462C392.629 190.493 392.241 190.443 391.875 190.316C391.509 190.19 391.173 189.988 390.889 189.725C390.605 189.462 390.378 189.143 390.224 188.788C390.069 188.433 389.99 188.049 389.991 187.662ZM394.415 187.662C394.391 187.392 394.288 187.134 394.121 186.921C393.953 186.708 393.726 186.549 393.469 186.462C393.212 186.375 392.936 186.364 392.673 186.432C392.41 186.499 392.173 186.642 391.989 186.841C391.806 187.041 391.685 187.29 391.64 187.558C391.596 187.825 391.63 188.1 391.738 188.349C391.847 188.597 392.026 188.809 392.252 188.958C392.479 189.107 392.744 189.187 393.015 189.188C393.21 189.189 393.403 189.149 393.582 189.071C393.76 188.992 393.921 188.878 394.053 188.734C394.184 188.591 394.285 188.421 394.347 188.236C394.41 188.052 394.433 187.856 394.415 187.662Z" fill="#0891B2"/>
<path d="M406.4 187.255V190.405H404.804V187.507C404.804 186.611 404.398 186.205 403.754 186.205C403.11 186.205 402.536 186.667 402.536 187.605V190.405H400.94V187.507C400.94 186.611 400.562 186.205 399.904 186.205C399.246 186.205 398.7 186.667 398.7 187.605V190.405H397.104V184.903H398.616V185.575C398.836 185.335 399.104 185.146 399.404 185.02C399.704 184.895 400.027 184.836 400.352 184.847C400.706 184.829 401.059 184.904 401.376 185.063C401.692 185.223 401.962 185.462 402.158 185.757C402.397 185.463 402.701 185.228 403.046 185.07C403.391 184.912 403.767 184.836 404.146 184.847C404.461 184.826 404.777 184.875 405.071 184.99C405.365 185.106 405.629 185.286 405.845 185.516C406.061 185.747 406.222 186.022 406.318 186.323C406.414 186.624 406.442 186.942 406.4 187.255Z" fill="#0891B2"/>
<path d="M314.482 225.599L317.072 226.999L315.91 228.945L313.292 227.405V230.289H311.052V227.377L308.518 228.973L307.37 227.027L309.974 225.627L307.37 224.228L308.518 222.282L311.136 223.85V220.952H313.376V223.85L315.994 222.282L317.156 224.228L314.482 225.599Z" fill="#0891B2"/>
<path d="M325.275 225.599L327.865 226.999L326.703 228.973L324.085 227.433V230.317H321.859V227.405L319.283 228.973L318.135 227.027L320.725 225.627L318.135 224.228L319.283 222.282L321.901 223.85V220.952H324.127V223.85L326.745 222.282L327.907 224.228L325.275 225.599Z" fill="#0891B2"/>
<path d="M336.082 225.599L338.672 226.999L337.482 228.973L334.878 227.433V230.317H332.638V227.405L330.09 228.973L328.956 227.027L331.546 225.627L328.956 224.228L330.09 222.282L332.708 223.85V220.952H334.948V223.85L337.552 222.282L338.728 224.228L336.082 225.599Z" fill="#0891B2"/>
<path d="M346.848 225.599L349.438 226.999L348.276 228.945L345.658 227.405V230.289H343.418V227.377L340.884 228.973L339.736 227.027L342.34 225.627L339.736 224.228L340.884 222.282L343.502 223.85V220.952H345.742V223.85L348.36 222.282L349.522 224.228L346.848 225.599Z" fill="#0891B2"/>
<path d="M357.64 225.6L360.23 227L359.068 228.946L356.45 227.406V230.29H354.281V227.378L351.677 228.974L350.529 227.028L353.119 225.628L350.529 224.228L351.677 222.282L354.281 223.794V220.896H356.506V223.794L359.124 222.226L360.286 224.172L357.64 225.6Z" fill="#0891B2"/>
<path d="M368.436 225.599L371.025 226.999L369.864 228.945L367.246 227.405V230.289H365.006V227.377L362.458 228.973L361.324 227.027L363.914 225.627L361.324 224.228L362.458 222.282L365.076 223.85V220.952H367.316V223.85L369.934 222.282L371.095 224.228L368.436 225.599Z" fill="#0891B2"/>
<path d="M379.215 225.599L381.805 226.999L380.643 228.945L378.025 227.405V230.289H375.786V227.377L373.252 228.973L372.104 227.027L374.708 225.627L372.104 224.228L373.252 222.282L375.87 223.85V220.952H378.081V223.85L380.699 222.282L381.861 224.228L379.215 225.599Z" fill="#0891B2"/>
<path d="M390.008 225.599L392.598 226.999L391.436 228.945L388.818 227.405V230.289H386.592V227.377L384.044 228.973L382.896 227.027L385.486 225.627L382.896 224.228L384.044 222.282L386.662 223.85V220.952H388.888V223.85L391.506 222.282L392.668 224.228L390.008 225.599Z" fill="#0891B2"/>
<path d="M262.864 148.268H153.81C153.064 148.268 152.325 148.415 151.637 148.701C150.948 148.987 150.322 149.406 149.796 149.934C149.269 150.462 148.852 151.088 148.567 151.778C148.283 152.467 148.138 153.206 148.14 153.952V203.621C148.13 204.368 148.271 205.11 148.552 205.802C148.834 206.494 149.251 207.123 149.78 207.651C150.308 208.18 150.937 208.597 151.629 208.879C152.321 209.16 153.062 209.3 153.81 209.291H199.559L209.275 221.764L217.38 209.291H262.864C263.609 209.291 264.346 209.144 265.034 208.859C265.722 208.575 266.347 208.157 266.873 207.63C267.4 207.104 267.817 206.479 268.102 205.791C268.387 205.103 268.534 204.366 268.534 203.621V153.952C268.534 152.447 267.937 151.003 266.874 149.938C265.811 148.872 264.369 148.272 262.864 148.268Z" fill="white"/>
<path d="M262.865 148.268H263.397C263.928 148.314 264.451 148.431 264.951 148.618C265.768 148.911 266.506 149.39 267.107 150.018C267.965 150.941 268.492 152.122 268.605 153.377C268.717 158.781 268.689 166.649 268.731 176.616C268.731 181.6 268.731 187.102 268.731 193.065C268.731 196.061 268.731 199.155 268.731 202.375C268.769 203.198 268.731 204.023 268.619 204.839C268.447 205.688 268.093 206.49 267.583 207.191C267.059 207.909 266.381 208.5 265.598 208.922C264.816 209.343 263.949 209.584 263.061 209.627H217.311L217.591 209.487C215.043 213.392 212.3 217.634 209.5 221.946L209.234 222.352L208.926 221.974L199.21 209.515L199.49 209.655H155.49C154.692 209.655 153.95 209.655 153.096 209.655C151.854 209.507 150.688 208.978 149.758 208.141C148.828 207.303 148.18 206.199 147.903 204.979C147.763 204.194 147.712 203.396 147.749 202.599V182.09C147.749 176.126 147.749 170.279 147.749 164.549V153.951C147.749 153.214 147.887 152.483 148.155 151.796C148.674 150.429 149.668 149.296 150.955 148.604C151.597 148.275 152.295 148.066 153.012 147.988C153.703 147.953 154.394 147.953 155.084 147.988H166.998H182.089H209.164L248.362 148.1L259.015 148.17H261.815H262.767H261.815H259.015L248.362 148.24L209.164 148.352H182.089H155.196C154.524 148.352 153.796 148.352 153.194 148.352C152.559 148.425 151.942 148.614 151.375 148.912C150.217 149.505 149.316 150.5 148.841 151.712C148.601 152.322 148.477 152.973 148.477 153.629V155.729C148.477 158.529 148.477 161.329 148.477 164.227V181.768C148.477 187.722 148.477 193.789 148.477 199.967V202.291C148.432 203.035 148.475 203.782 148.603 204.517C148.849 205.589 149.422 206.559 150.241 207.293C151.061 208.028 152.088 208.491 153.18 208.619C153.894 208.689 154.72 208.619 155.49 208.619H199.728L199.84 208.759L209.556 221.218H208.982L217.087 208.759L217.185 208.605H217.381H263.103C263.908 208.578 264.696 208.367 265.407 207.988C266.118 207.61 266.733 207.074 267.205 206.421C267.678 205.792 268.004 205.065 268.157 204.293C268.265 203.509 268.302 202.717 268.269 201.927C268.269 198.707 268.269 195.613 268.269 192.617C268.269 186.654 268.269 181.152 268.269 176.168C268.269 166.229 268.269 158.361 268.339 152.943C268.215 151.772 267.725 150.67 266.939 149.794C266.364 149.152 265.651 148.649 264.853 148.324C264.196 148.211 263.527 148.192 262.865 148.268Z" fill="#737791"/>
<path d="M187.912 162.295V164.129H186.722V162.281L184.707 158.977H185.98L187.38 161.273L188.78 158.977H189.956L187.912 162.295Z" fill="#737791"/>
<path d="M189.901 161.539C189.876 160.981 190.018 160.428 190.31 159.951C190.602 159.474 191.03 159.096 191.539 158.864C192.048 158.633 192.615 158.559 193.166 158.653C193.717 158.746 194.228 159.002 194.632 159.388C195.036 159.774 195.315 160.273 195.434 160.819C195.553 161.365 195.505 161.935 195.297 162.454C195.09 162.972 194.731 163.417 194.269 163.731C193.806 164.045 193.26 164.213 192.701 164.213C192.339 164.23 191.978 164.174 191.639 164.047C191.3 163.92 190.99 163.726 190.728 163.476C190.466 163.226 190.258 162.925 190.116 162.592C189.974 162.259 189.901 161.901 189.901 161.539ZM194.353 161.539C194.35 161.219 194.252 160.906 194.072 160.641C193.892 160.376 193.638 160.17 193.341 160.049C193.044 159.928 192.718 159.898 192.404 159.962C192.09 160.026 191.801 160.182 191.576 160.41C191.35 160.638 191.197 160.927 191.135 161.242C191.074 161.556 191.107 161.882 191.23 162.178C191.353 162.474 191.561 162.727 191.828 162.904C192.095 163.082 192.408 163.177 192.729 163.177C192.945 163.183 193.16 163.145 193.361 163.064C193.561 162.984 193.743 162.863 193.895 162.71C194.047 162.556 194.167 162.373 194.245 162.172C194.324 161.97 194.361 161.755 194.353 161.539Z" fill="#737791"/>
<path d="M196.438 161.847V158.977H197.642V161.777C197.642 162.757 198.076 163.177 198.79 163.177C199.504 163.177 199.952 162.771 199.952 161.777V158.977H201.142V161.875C201.142 162.499 200.894 163.097 200.453 163.538C200.012 163.979 199.414 164.227 198.79 164.227C198.166 164.227 197.568 163.979 197.127 163.538C196.686 163.097 196.438 162.499 196.438 161.875V161.847Z" fill="#737791"/>
<path d="M205.636 164.129L204.642 162.729H203.536V164.129H202.332V158.977H204.572C205.972 158.977 206.826 159.691 206.826 160.853C206.842 161.203 206.747 161.549 206.557 161.843C206.366 162.136 206.088 162.363 205.762 162.491L206.924 164.157L205.636 164.129ZM204.516 159.929H203.536V161.777H204.516C205.244 161.777 205.608 161.427 205.608 160.867C205.608 160.307 205.244 159.915 204.488 159.915L204.516 159.929Z" fill="#737791"/>
<path d="M209.554 161.539C209.559 160.965 209.74 160.406 210.073 159.938C210.406 159.47 210.874 159.116 211.415 158.924C211.956 158.731 212.543 158.709 213.097 158.862C213.65 159.014 214.144 159.333 214.51 159.775L213.74 160.489C213.582 160.294 213.381 160.137 213.153 160.03C212.925 159.923 212.676 159.87 212.424 159.873C212.011 159.911 211.626 160.102 211.346 160.409C211.066 160.716 210.911 161.117 210.911 161.532C210.911 161.947 211.066 162.348 211.346 162.655C211.626 162.962 212.011 163.153 212.424 163.191C212.675 163.197 212.924 163.146 213.152 163.042C213.38 162.937 213.581 162.783 213.74 162.589L214.51 163.289C214.145 163.73 213.653 164.049 213.1 164.201C212.548 164.354 211.962 164.334 211.422 164.143C210.882 163.952 210.413 163.6 210.079 163.134C209.745 162.669 209.562 162.112 209.554 161.539Z" fill="#737791"/>
<path d="M214.889 161.539C214.864 160.981 215.007 160.428 215.299 159.951C215.591 159.474 216.019 159.096 216.528 158.864C217.036 158.633 217.603 158.559 218.154 158.653C218.705 158.746 219.216 159.002 219.62 159.388C220.024 159.774 220.304 160.273 220.422 160.819C220.541 161.365 220.493 161.935 220.286 162.454C220.078 162.972 219.72 163.417 219.257 163.731C218.794 164.045 218.248 164.213 217.689 164.213C217.328 164.23 216.966 164.174 216.627 164.047C216.288 163.92 215.978 163.726 215.716 163.476C215.455 163.226 215.246 162.925 215.104 162.592C214.962 162.259 214.889 161.901 214.889 161.539ZM219.341 161.539C219.336 161.219 219.236 160.908 219.054 160.645C218.872 160.381 218.617 160.178 218.319 160.059C218.022 159.94 217.697 159.912 217.384 159.978C217.07 160.044 216.784 160.201 216.559 160.429C216.335 160.657 216.183 160.946 216.123 161.261C216.062 161.575 216.096 161.9 216.22 162.195C216.343 162.49 216.552 162.742 216.818 162.919C217.084 163.096 217.397 163.191 217.717 163.191C217.934 163.197 218.151 163.158 218.352 163.077C218.554 162.996 218.736 162.874 218.889 162.719C219.041 162.564 219.16 162.379 219.238 162.176C219.316 161.973 219.351 161.756 219.341 161.539Z" fill="#737791"/>
<path d="M221.469 158.978H223.834C224.197 158.94 224.564 158.979 224.91 159.092C225.257 159.205 225.576 159.389 225.847 159.633C226.118 159.877 226.335 160.176 226.483 160.509C226.631 160.842 226.708 161.203 226.708 161.568C226.708 161.932 226.631 162.293 226.483 162.626C226.335 162.959 226.118 163.258 225.847 163.502C225.576 163.746 225.257 163.93 224.91 164.043C224.564 164.156 224.197 164.195 223.834 164.157H221.469V158.978ZM223.764 163.177C224.191 163.177 224.601 163.008 224.903 162.706C225.205 162.404 225.374 161.995 225.374 161.568C225.374 161.141 225.205 160.731 224.903 160.429C224.601 160.127 224.191 159.958 223.764 159.958H222.686V163.177H223.764Z" fill="#737791"/>
<path d="M231.618 163.177V164.143H227.6V158.977H231.52V159.929H228.79V161.063H231.198V162.001H228.79V163.177H231.618Z" fill="#737791"/>
<path d="M252.225 169.574H164.464C161.719 169.574 159.494 171.799 159.494 174.544V193.079C159.494 195.824 161.719 198.049 164.464 198.049H252.225C254.97 198.049 257.195 195.824 257.195 193.079V174.544C257.195 171.799 254.97 169.574 252.225 169.574Z" fill="#F9FAFB"/>
<path d="M179.289 185.577C179.292 186.163 179.171 186.743 178.936 187.28C178.701 187.817 178.356 188.298 177.924 188.694C177.491 189.09 176.981 189.39 176.425 189.577C175.869 189.763 175.281 189.831 174.697 189.776C171.085 189.776 169.167 187.172 169.167 182.861C169.167 178.185 171.645 175.791 175.299 175.791C176.383 175.744 177.461 175.986 178.421 176.491L178.015 177.303C177.185 176.848 176.245 176.63 175.299 176.673C172.205 176.673 170.175 178.703 170.175 182.707C170.171 183.259 170.209 183.812 170.287 184.359C170.616 183.478 171.223 182.728 172.016 182.222C172.81 181.717 173.746 181.484 174.683 181.559C177.497 181.461 179.289 183.071 179.289 185.577ZM178.281 185.577C178.281 183.603 176.881 182.329 174.543 182.329C174.074 182.281 173.599 182.329 173.149 182.47C172.699 182.612 172.282 182.843 171.924 183.151C171.567 183.459 171.276 183.837 171.069 184.261C170.862 184.685 170.744 185.147 170.721 185.619C170.721 187.228 172.121 188.852 174.669 188.852C175.132 188.91 175.601 188.869 176.046 188.73C176.491 188.591 176.901 188.359 177.248 188.049C177.596 187.738 177.873 187.357 178.061 186.931C178.248 186.504 178.343 186.042 178.337 185.577H178.281Z" fill="#0891B2"/>
<path d="M197.643 185.8H194.759V189.621H193.765V185.8H185.911V185.072L193.401 175.832H194.521L187.171 184.904H193.793V181.544H194.759V184.904H197.643V185.8Z" fill="#0891B2"/>
<path d="M212.957 185.731C212.957 188.027 211.305 189.72 208.128 189.72C207.234 189.755 206.343 189.608 205.508 189.288C204.673 188.968 203.911 188.481 203.27 187.859L203.774 187.089C204.346 187.653 205.027 188.094 205.776 188.385C206.524 188.677 207.325 188.812 208.128 188.783C210.605 188.783 211.935 187.607 211.935 185.731C211.935 183.855 210.675 182.679 207.918 182.679H207.05V181.951L211.123 176.729H203.774V175.777H212.425V176.477L208.226 181.783C211.487 181.909 212.957 183.491 212.957 185.731Z" fill="#0891B2"/>
<path d="M229.686 175.777V176.477L223.765 189.567H222.659L228.524 176.673H220.783V179.319H219.803V175.777H229.686Z" fill="#0891B2"/>
<path d="M236.686 182.777C236.686 178.465 238.912 175.777 242.076 175.777C245.239 175.777 247.479 178.451 247.479 182.777C247.479 187.103 245.253 189.776 242.076 189.776C238.898 189.776 236.686 186.977 236.686 182.777ZM246.485 182.777C246.485 178.941 244.693 176.715 242.09 176.715C239.486 176.715 237.694 178.941 237.694 182.777C237.694 186.613 239.486 188.839 242.09 188.839C244.693 188.839 246.485 186.557 246.485 182.777Z" fill="#0891B2"/>
<path d="M536.832 543.285C555.157 535.502 576.38 520.2 585.829 501.427C565.493 509.868 548.345 524.518 536.832 543.285Z" fill="#0077FF"/>
<path d="M540.738 514.152C559.063 506.382 580.286 491.081 589.736 472.308C569.396 480.736 552.245 495.383 540.738 514.152Z" fill="#0077FF"/>
<path d="M546.071 485.832C564.41 478.049 585.619 462.747 595.068 443.988C574.731 452.418 557.58 467.065 546.071 485.832Z" fill="#0077FF"/>
<path d="M552.679 456.181C569.968 445.961 589.245 427.762 596.469 407.911C577.257 419.104 561.976 435.964 552.721 456.181" fill="#0077FF"/>
<path d="M559.79 433.488C572.39 417.011 584.135 392.484 583.981 371.233C569.977 389.158 561.563 410.811 559.79 433.488Z" fill="#0077FF"/>
<path d="M556.262 444.282C553.714 421.995 545.062 393.983 530.335 377.267C532.822 401.524 541.775 424.668 556.262 444.282Z" fill="#0077FF"/>
<path d="M550.341 468.655C545.861 445.682 534.521 417.263 517.806 401.15C522.382 426.168 533.622 449.489 550.341 468.655Z" fill="#0077FF"/>
<path d="M543.537 498.375C539.072 475.36 527.704 446.983 511.073 430.87C515.649 455.888 526.889 479.209 543.607 498.375" fill="#0077FF"/>
<path d="M538.076 534.871C533.582 511.899 522.243 483.48 505.542 467.367C510.118 492.385 521.358 515.705 538.076 534.871Z" fill="#0077FF"/>
<path d="M560.645 429.163C560.577 429.269 560.529 429.388 560.505 429.513C560.407 429.779 560.295 430.115 560.155 430.535C559.847 431.5 559.413 432.83 558.881 434.51C557.775 437.968 556.291 442.994 554.541 449.238C552.791 455.481 550.859 462.943 548.871 471.272C546.883 479.602 544.924 488.828 543.076 498.543C541.228 508.259 539.786 517.582 538.568 526.066C537.35 534.549 536.482 542.221 535.852 548.661C535.222 555.1 534.774 560.336 534.55 563.962C534.438 565.726 534.354 567.112 534.284 568.162C534.284 568.61 534.284 568.96 534.284 569.254C534.266 569.374 534.266 569.497 534.284 569.618C534.327 569.501 534.351 569.378 534.354 569.254C534.354 568.974 534.354 568.61 534.466 568.176C534.564 567.168 534.704 565.782 534.872 563.976C535.18 560.378 535.698 555.156 536.398 548.717C537.098 542.277 538.064 534.633 539.268 526.164C540.472 517.694 542.068 508.399 543.832 498.683C545.596 488.968 547.639 479.77 549.557 471.426C551.475 463.083 553.379 455.621 555.073 449.364C556.767 443.106 558.167 438.066 559.189 434.594L560.337 430.577C560.449 430.157 560.533 429.807 560.617 429.527C560.642 429.407 560.651 429.285 560.645 429.163Z" fill="#0077FF"/>
<path d="M527.871 555.408C535.64 539.141 541.296 516.21 537.488 498.389C528.801 516.054 525.458 535.871 527.871 555.408Z" fill="#0891B2"/>
<path d="M514.977 534.339C522.747 518.058 528.403 495.141 524.581 477.32C515.89 494.984 512.552 514.803 514.977 534.339Z" fill="#0891B2"/>
<path d="M503.388 512.907C511.157 496.625 516.813 473.709 512.991 455.887C504.3 473.551 500.962 493.37 503.388 512.907Z" fill="#0891B2"/>
<path d="M491.963 489.794C497.745 472.575 500.643 449.084 494.763 431.907C488.241 450.523 487.268 470.634 491.963 489.794Z" fill="#0891B2"/>
<path d="M484.474 470.867C483.9 452.542 478.51 429.583 467.129 416.046C467.383 435.629 473.418 454.701 484.474 470.867Z" fill="#0891B2"/>
<path d="M487.96 479.952C474.478 467.241 453.983 454.6 435.56 452.948C449.97 466.936 468.206 476.334 487.96 479.952Z" fill="#0891B2"/>
<path d="M497.074 499.243C481.969 487.26 459.514 476.032 440.111 475.99C456.376 489.213 476.202 497.306 497.074 499.243Z" fill="#0891B2"/>
<path d="M508.413 522.495C493.308 510.526 470.867 499.284 451.464 499.242C467.725 512.462 487.546 520.555 508.413 522.495Z" fill="#0891B2"/>
<path d="M524.247 549.262C509.141 537.279 486.686 526.051 467.283 525.995C483.544 539.227 503.372 547.326 524.247 549.262Z" fill="#0891B2"/>
<path d="M482.766 467.548C482.766 467.548 482.766 467.646 482.85 467.842L483.158 468.71L484.418 472C485.524 474.8 487.218 478.999 489.36 484.011C493.672 494.077 500.069 507.81 508.007 522.565C511.983 529.915 515.973 536.831 519.697 543.032C523.42 549.234 526.962 554.75 530 559.313C533.038 563.877 535.6 567.531 537.336 570.023L539.407 572.823L539.953 573.551C540.079 573.719 540.149 573.803 540.163 573.789C540.118 573.692 540.067 573.599 540.01 573.509L539.52 572.739C539.03 572.025 538.386 571.045 537.56 569.813C535.824 567.279 533.36 563.583 530.406 558.991C527.452 554.4 523.966 548.856 520.242 542.654C516.519 536.453 512.585 529.523 508.609 522.173C500.671 507.558 494.274 493.839 489.808 483.759C487.596 478.747 485.846 474.674 484.67 471.846L483.27 468.598L482.892 467.758C482.857 467.684 482.815 467.614 482.766 467.548Z" fill="#0891B2"/>
<path d="M490.885 557.382H568.105V572.263H560.167L553.49 614.709H505.752L498.878 572.263H490.885V557.382Z" fill="#0077FF"/>
<path d="M490.885 571.955C490.885 571.759 508.048 571.591 529.215 571.591C550.382 571.591 567.545 571.759 567.545 571.955C567.545 572.151 550.396 572.305 529.215 572.305C508.034 572.305 490.885 572.151 490.885 571.955Z" fill="#737791"/>
<path d="M48.5492 614.738H36.0198L31.3721 558.306H46.1273L48.5492 614.738Z" fill="#A1A5B6"/>
<path d="M157.184 614.738H169.713L174.361 558.306H159.606L157.184 614.738Z" fill="#A1A5B6"/>
<path d="M182.971 565.459L21.6428 569.239L16.7431 465.042C16.6275 462.625 17.0039 460.209 17.8495 457.942C18.6951 455.674 19.9923 453.602 21.6626 451.851C23.3328 450.099 25.3412 448.705 27.5661 447.753C29.791 446.801 32.1861 446.31 34.6062 446.311H172.065C174.519 446.311 176.946 446.816 179.196 447.793C181.446 448.771 183.471 450.201 185.145 451.995C186.819 453.788 188.106 455.907 188.927 458.219C189.747 460.531 190.083 462.987 189.914 465.434L182.971 565.459Z" fill="#0077FF"/>
<path d="M191.244 464.693H190.796H189.466L184.384 464.777H165.681C149.89 464.777 128.079 464.637 104.001 465.197C79.9077 465.995 58.0688 465.855 42.2916 465.617C34.396 465.491 27.9984 465.337 23.5886 465.197L18.5068 465.029H17.1909C17.0422 465.048 16.8916 465.048 16.7429 465.029H17.1909H18.5068H23.5886L42.2916 465.211C58.0828 465.323 79.8937 465.379 103.987 464.567C128.079 464.021 149.89 464.273 165.681 464.385L184.384 464.539L189.466 464.609H190.796L191.244 464.693Z" fill="#737791"/>
<path d="M75.5818 447.936C71.9556 448.467 68.4273 449.528 65.1103 451.086C61.8984 452.853 58.9682 455.09 56.4167 457.722C56.9305 456.746 57.6076 455.865 58.4186 455.118C62.1399 451.29 67.0223 448.8 72.3059 448.034C73.3836 447.809 74.4926 447.776 75.5818 447.936Z" fill="#737791"/>
<path d="M141.938 258.484L161.649 294.504L190.488 278.349L204.487 282.982C204.487 282.982 169.153 321.368 163.399 323.37C157.646 325.372 146.754 325.694 140.538 317.897C134.939 310.799 118.364 273.561 118.364 273.561L141.938 258.484Z" fill="#FED7AA"/>
<path d="M223.121 234.964C222.868 234.654 222.539 234.414 222.167 234.266C221.794 234.119 221.39 234.07 220.993 234.124L207.288 235.972C206.692 236.061 206.122 236.277 205.618 236.606C205.113 236.934 204.685 237.368 204.362 237.876L175.789 281.764L177.973 282.982L193.176 282.506L223.555 235.51L223.121 234.964Z" fill="white"/>
<path d="M213.391 240.662C213.501 240.836 213.662 240.97 213.853 241.047C214.043 241.124 214.253 241.14 214.453 241.091C214.652 241.042 214.831 240.932 214.965 240.775C215.098 240.619 215.179 240.425 215.196 240.22C215.213 240.015 215.166 239.81 215.06 239.634C214.954 239.458 214.796 239.32 214.607 239.239C214.418 239.157 214.209 239.138 214.008 239.182C213.808 239.226 213.626 239.333 213.489 239.486C213.328 239.633 213.228 239.837 213.21 240.055C213.191 240.273 213.256 240.49 213.391 240.662Z" fill="white"/>
<path d="M223.555 235.51C222.684 235.754 221.794 235.927 220.895 236.027L213.615 237.161L208.59 237.889C208.163 237.927 207.751 238.06 207.383 238.278C207.015 238.496 206.7 238.794 206.462 239.149L204.838 241.669C202.584 245.127 200.134 248.921 197.558 252.869C192.364 260.82 187.633 268.002 184.161 273.182L180.031 279.369C179.551 280.137 179.013 280.867 178.421 281.553C178.815 280.728 179.284 279.941 179.821 279.201L183.741 272.958C187.087 267.694 191.734 260.47 196.928 252.519C199.532 248.557 202.01 244.777 204.264 241.319C204.838 240.465 205.398 239.625 205.93 238.799C206.228 238.37 206.618 238.013 207.07 237.751C207.522 237.49 208.027 237.332 208.548 237.287L213.601 236.643L220.923 235.776C221.792 235.617 222.672 235.529 223.555 235.51Z" fill="#151D48"/>
<path d="M208.308 251.175C208.308 251.175 207.09 250.965 206.418 254.311C205.746 257.656 203.619 267.26 203.619 267.26L197.207 263.858L189.171 264.908C189.171 264.908 187.421 266.518 188.709 267.4C189.997 268.282 195.065 269.178 195.065 269.178L198.803 274.568L188.065 269.388C188.065 269.388 184.482 270.326 185.531 272.51C186.581 274.694 193.819 281.539 193.819 281.539L188.443 281.133L182.088 277.241C182.088 277.241 180.128 277.339 180.856 279.005C181.584 280.671 188.247 286.719 188.247 286.719L196.311 290.639C196.311 290.639 200.721 290.289 201.141 288.987C201.426 287.963 201.604 286.912 201.673 285.851C201.673 285.851 204.011 285.221 204.473 284.087C204.73 283.134 204.782 282.136 204.627 281.161C204.627 281.161 208.294 281.805 208.756 279.761C209.077 277.214 208.973 274.631 208.448 272.118C208.084 270.536 210.016 255.906 209.848 255.472C209.68 255.039 210.618 250.209 208.308 251.175Z" fill="#FED7AA"/>
<path d="M201.352 289.015C200.715 289.397 199.994 289.618 199.252 289.659C195.675 290.179 192.034 289.312 189.074 287.237C187.969 286.439 187.423 285.838 187.493 285.712C187.563 285.586 190.194 287.713 194.114 288.623C198.034 289.533 201.31 288.763 201.352 289.015Z" fill="#FED7AA"/>
<path d="M199.448 286.118C199.322 286.3 197.88 285.558 196.354 284.298C194.828 283.038 193.82 281.792 193.974 281.639C194.128 281.485 195.374 282.436 196.886 283.668C198.398 284.9 199.574 285.922 199.448 286.118Z" fill="#FED7AA"/>
<path d="M203.69 279.16C203.564 279.342 202.136 278.614 200.708 277.284C199.28 275.954 198.44 274.61 198.608 274.484C198.776 274.358 199.896 275.422 201.268 276.696C202.64 277.97 203.816 278.964 203.69 279.16Z" fill="#FED7AA"/>
<path d="M208.155 273.546C207.931 273.644 207.119 272.147 205.845 270.481C204.572 268.815 203.326 267.681 203.466 267.457C203.606 267.233 205.146 268.213 206.489 269.977C207.41 270.959 207.994 272.21 208.155 273.546Z" fill="#FED7AA"/>
<path d="M213.601 533.177C213.708 532.74 213.708 532.284 213.601 531.847C213.374 530.637 212.898 529.488 212.201 528.473C211.974 528.121 211.706 527.797 211.403 527.507C211.205 527.32 210.96 527.19 210.694 527.131C210.428 527.071 210.15 527.085 209.891 527.171C209.739 527.224 209.601 527.31 209.487 527.424C209.373 527.538 209.286 527.677 209.234 527.829C209.135 528.119 209.135 528.434 209.234 528.725C209.425 529.211 209.659 529.68 209.933 530.125C210.451 531.007 210.885 531.875 211.557 532.925C211.753 533.207 212.022 533.43 212.336 533.57C212.649 533.711 212.994 533.764 213.335 533.723C213.961 533.611 214.551 533.352 215.057 532.967C215.984 532.287 216.83 531.502 217.577 530.629C217.937 530.214 218.274 529.779 218.585 529.327C218.926 528.884 219.177 528.381 219.327 527.843C219.411 527.527 219.381 527.191 219.243 526.894C219.105 526.598 218.867 526.359 218.571 526.219C218.294 526.137 218.001 526.128 217.719 526.192C217.437 526.255 217.176 526.39 216.961 526.583C216.321 527.142 215.756 527.782 215.281 528.487C214.577 529.476 214.016 530.56 213.615 531.707C213.431 532.111 213.336 532.55 213.335 532.995C213.999 531.522 214.8 530.116 215.729 528.795C216.204 528.165 216.748 527.592 217.353 527.087C217.675 526.863 218.067 526.709 218.305 526.835C218.443 526.916 218.549 527.043 218.605 527.193C218.661 527.344 218.664 527.509 218.613 527.661C218.468 528.098 218.245 528.506 217.955 528.865C217.661 529.285 217.339 529.691 217.003 530.097C216.279 530.911 215.472 531.647 214.595 532.295C214.185 532.61 213.705 532.822 213.195 532.911C212.986 532.936 212.775 532.903 212.584 532.814C212.393 532.724 212.232 532.583 212.117 532.407C211.571 531.609 211.039 530.615 210.521 529.789C210.283 529.355 209.989 528.935 209.849 528.585C209.71 528.235 209.849 527.955 210.059 527.843C210.661 527.605 211.263 528.291 211.669 528.865C212.58 530.167 213.235 531.63 213.601 533.177Z" fill="#737791"/>
<path d="M179.204 534.353L162.125 571.381L134.56 558.642L152.227 512.822L179.204 534.353Z" fill="#FED7AA"/>
<path d="M165.289 568.904L155.308 587.943C155.308 587.943 180.856 614.359 178.462 620.267L118.406 591.47L134.897 553.294L165.289 568.904Z" fill="#151D48"/>
<path d="M138.046 576.435C137.386 576.352 136.718 576.506 136.161 576.87C135.605 577.234 135.196 577.785 135.008 578.423C134.882 579.081 135.013 579.762 135.375 580.325C135.738 580.888 136.303 581.29 136.954 581.447C137.655 581.553 138.371 581.395 138.963 581.005C139.555 580.615 139.981 580.019 140.16 579.333C140.219 578.632 140.005 577.935 139.561 577.39C139.117 576.844 138.478 576.492 137.78 576.407" fill="#D0D2DA"/>
<g opacity="0.6">
<path opacity="0.6" d="M118.461 591.47L120.953 586.682L177.608 616.081C177.608 616.081 179.722 618.517 178.518 620.28L118.461 591.47Z" fill="#A1A5B6"/>
</g>
<path d="M156.484 588.096C156.344 588.39 154.805 587.816 152.915 588.096C151.025 588.376 149.653 589.216 149.443 588.964C149.233 588.712 150.479 587.242 152.775 586.976C155.071 586.71 156.68 587.858 156.484 588.096Z" fill="#737791"/>
<path d="M161.537 593.725C161.537 594.047 159.955 593.935 158.373 594.691C156.791 595.447 155.867 596.637 155.573 596.483C155.279 596.329 155.895 594.579 157.897 593.683C159.899 592.787 161.663 593.445 161.537 593.725Z" fill="#737791"/>
<path d="M161.495 602.978C161.201 602.978 161.495 601.256 163.021 600.011C164.547 598.765 166.227 598.779 166.227 599.087C166.227 599.395 164.981 599.843 163.735 600.879C162.489 601.914 161.803 603.09 161.495 602.978Z" fill="#737791"/>
<path d="M159.354 580.775C159.102 580.985 157.954 579.935 156.246 579.249C154.538 578.563 152.984 578.465 152.956 578.143C152.928 577.821 154.664 577.373 156.666 578.143C158.668 578.913 159.606 580.607 159.354 580.775Z" fill="#737791"/>
<path d="M170.973 563.962L216.008 451.282C216.008 451.282 214.986 432.047 211.445 425.985C207.903 419.923 100.64 384.491 100.64 384.491C100.64 384.491 73.3275 377.911 55.1004 384.491C36.8733 391.071 23.224 413.889 25.7019 426.489C28.1798 439.088 38.9032 448.426 38.9032 448.426L117.789 450.778L160.781 466.457L131.831 549.431L170.973 563.962Z" fill="#0891B2"/>
<path d="M211.024 486.966L212.046 527.718L181.682 528.473L177.314 479.56L211.024 486.966Z" fill="#FED7AA"/>
<path d="M213.853 524.078L213.293 545.567C213.293 545.567 247.871 557.984 248.291 564.354L181.696 565.026L179.638 523.49L213.853 524.078Z" fill="#151D48"/>
<path d="M192.672 542.892C192.033 543.093 191.491 543.523 191.15 544.099C190.809 544.675 190.693 545.357 190.824 546.014C191.002 546.659 191.42 547.212 191.993 547.558C192.566 547.904 193.249 548.018 193.904 547.876C194.578 547.659 195.149 547.2 195.506 546.587C195.863 545.975 195.98 545.252 195.835 544.558C195.584 543.902 195.086 543.37 194.448 543.074C193.811 542.779 193.083 542.744 192.42 542.976" fill="#D0D2DA"/>
<g opacity="0.6">
<path opacity="0.6" d="M181.74 565.025L181.866 559.622L245.675 561.022C245.675 561.022 248.642 562.282 248.334 564.381L181.74 565.025Z" fill="#A1A5B6"/>
</g>
<path d="M214.371 545.216C214.371 545.538 212.733 545.706 211.151 546.77C209.569 547.834 208.715 549.206 208.421 549.08C208.127 548.954 208.589 547.064 210.535 545.818C212.481 544.572 214.441 544.922 214.371 545.216Z" fill="#737791"/>
<path d="M221.384 548.03C221.468 548.352 220.054 548.912 218.962 550.297C217.87 551.683 217.562 553.097 217.254 553.097C216.946 553.097 216.694 551.249 218.094 549.541C219.494 547.834 221.37 547.722 221.384 548.03Z" fill="#737791"/>
<path d="M225.487 556.36C225.193 556.43 224.731 554.806 225.487 553.014C226.243 551.222 227.825 550.508 227.965 550.774C228.105 551.04 227.167 552.006 226.565 553.476C225.963 554.946 225.753 556.318 225.487 556.36Z" fill="#737791"/>
<path d="M213.699 537.377C213.573 537.671 212.075 537.237 210.241 537.377C208.407 537.517 206.979 538.119 206.797 537.839C206.615 537.559 207.987 536.439 210.157 536.257C212.327 536.075 213.867 537.111 213.699 537.377Z" fill="#737791"/>
<path d="M193.287 373.795C193.287 373.795 211.486 372.395 213.502 392.078C215.518 411.761 217.506 503.905 217.506 503.905L175.088 507.446L168.509 413.329L100.71 384.491C100.71 384.491 181.15 371.275 193.287 373.795Z" fill="#0077FF"/>
<path d="M118.335 347.168C118.335 347.168 129.367 378.12 127.267 381.564C125.167 385.008 96.7902 399.203 96.7902 399.203L25.7577 426.488C25.7577 426.488 18.4641 414.883 18.4641 397.089C18.4641 379.296 43.1729 347.196 43.1729 347.196L118.335 347.168Z" fill="#0077FF"/>
<path d="M97.28 382.965C97.3854 383.037 97.498 383.098 97.616 383.147L98.624 383.609L102.558 385.359L117.327 391.798L168.298 413.735L168.06 413.413C168.704 422.709 169.46 432.746 170.118 443.134C171.854 467.423 173.45 489.807 174.71 507.531V507.852H175.032L205.999 505.137L214.524 504.339L216.75 504.115L217.506 504.003C217.25 503.981 216.992 503.981 216.736 504.003L214.51 504.143L205.971 504.773L174.976 507.209L175.326 507.502C174.108 489.793 172.526 467.395 170.902 443.106C170.174 432.718 169.502 422.681 168.802 413.385V413.161L168.592 413.063L117.509 391.364L102.656 385.149L98.68 383.511L97.644 383.105C97.5265 383.049 97.4048 383.002 97.28 382.965Z" fill="#151D48"/>
<path d="M40.7937 386.003C41.4779 385.897 42.149 385.718 42.7956 385.471L48.1433 383.735C53.9799 381.763 59.9619 380.251 66.0344 379.213C72.1098 378.222 78.3119 378.302 84.3595 379.451C88.9793 380.417 91.6391 381.733 91.6951 381.579C91.1211 381.19 90.5003 380.875 89.8472 380.641C88.1126 379.911 86.3188 379.33 84.4855 378.905C78.3742 377.573 72.0659 377.412 65.8944 378.429C59.773 379.463 53.7604 381.061 47.9333 383.203C45.6935 384.001 43.9015 384.687 42.6556 385.177C42.0133 385.4 41.3906 385.677 40.7937 386.003Z" fill="#151D48"/>
<path d="M50.8318 369.693C52.9018 369.567 54.9775 369.567 57.0475 369.693C58.9654 369.819 61.2473 370.113 63.7671 370.407C66.287 370.701 69.0729 371.051 71.9567 371.597C76.891 372.382 81.6206 374.138 85.872 376.762C87.5685 377.943 89.1822 379.239 90.7018 380.64C90.4231 380.149 90.0741 379.701 89.6658 379.31C88.6161 378.18 87.4474 377.166 86.18 376.287C81.9301 373.478 77.128 371.611 72.0967 370.813C69.1849 370.267 66.385 369.945 63.8511 369.679C61.3173 369.413 59.0214 369.189 57.0755 369.133C55.5421 369.065 54.0057 369.131 52.4837 369.329C51.9185 369.371 51.3622 369.493 50.8318 369.693Z" fill="#151D48"/>
<path d="M82.2038 121.01C74.0422 119.61 66.8046 122.76 59.959 127.366C52.9527 132.29 47.6133 139.233 44.6521 147.269C41.6909 155.305 41.2485 164.052 43.3838 172.345C44.5661 176.56 46.5896 180.492 49.3324 183.904C52.0752 187.315 55.4805 190.136 59.343 192.196C69.9684 197.586 83.5618 195.71 93.0813 188.515C102.601 181.319 108.019 169.433 108.481 157.52C108.921 149.258 106.757 141.066 102.293 134.099C100.03 130.658 97.0814 127.719 93.6323 125.467C90.1833 123.215 86.3072 121.698 82.2458 121.01" fill="#151D48"/>
<path d="M58.964 148.798C60.168 145.662 59.692 142.177 60.168 138.859C61.2179 131.565 67.1676 125.713 73.8873 122.872C80.215 120.226 87.8866 120.8 95.5582 123.264C100.85 124.867 105.575 127.946 109.18 132.139C111.473 134.984 113.052 138.337 113.783 141.918C114.513 145.498 114.375 149.202 113.379 152.718L76.0572 147.286C72.5574 150.17 68.9735 153.124 64.7317 154.734C63.509 155.27 62.1686 155.482 60.8399 155.35C60.1781 155.271 59.5529 155.004 59.039 154.579C58.5252 154.155 58.1444 153.591 57.9421 152.956C57.6061 151.542 58.4461 150.156 58.964 148.798Z" fill="#151D48"/>
<path d="M96.3559 133.568L63.7655 140.483C62.2551 140.584 60.8361 141.243 59.7853 142.332C58.7345 143.422 58.1272 144.864 58.0818 146.377L58.4738 216.92C58.5068 221.736 60.12 226.408 63.0655 230.219L66.1734 234.223C73.271 243.364 87.6203 242.44 93.038 232.221C93.3694 231.64 93.6236 231.019 93.794 230.373C93.892 229.743 94.06 229.323 94.088 228.791L94.7179 221.903C95.0259 215.632 95.0819 209.304 95.0819 209.304C95.0819 209.304 108.423 207.624 111.881 190.433C113.575 181.893 113.687 167.768 113.407 156.219C113.113 145.873 106.743 132.882 96.3559 133.568Z" fill="#FED7AA"/>
<path d="M108.411 169.517C108.392 170.094 108.149 170.641 107.734 171.041C107.318 171.441 106.762 171.663 106.185 171.659C105.901 171.672 105.618 171.628 105.352 171.53C105.086 171.431 104.843 171.28 104.636 171.085C104.43 170.891 104.265 170.656 104.151 170.397C104.037 170.137 103.976 169.857 103.973 169.573C103.995 168.996 104.238 168.45 104.653 168.048C105.068 167.646 105.621 167.42 106.199 167.417C106.483 167.406 106.766 167.452 107.032 167.552C107.299 167.652 107.542 167.804 107.748 168C107.954 168.196 108.119 168.431 108.233 168.692C108.347 168.952 108.407 169.233 108.411 169.517Z" fill="#151D48"/>
<path d="M110.034 163.483C109.74 163.763 108.116 162.462 105.722 162.378C103.328 162.294 101.523 163.413 101.299 163.105C101.075 162.798 101.467 162.462 102.251 161.944C103.312 161.262 104.56 160.929 105.82 160.992C107.058 161.034 108.25 161.47 109.222 162.238C109.936 162.84 110.174 163.371 110.034 163.483Z" fill="#151D48"/>
<path d="M87.02 168.972C87.0053 169.551 86.7639 170.102 86.3477 170.505C85.9314 170.908 85.3736 171.132 84.7941 171.128C84.5118 171.139 84.2302 171.094 83.9658 170.994C83.7014 170.895 83.4596 170.744 83.2547 170.549C83.0499 170.355 82.886 170.121 82.7729 169.862C82.6598 169.603 82.5997 169.325 82.5962 169.042C82.6108 168.465 82.8503 167.917 83.2635 167.514C83.6767 167.111 84.231 166.886 84.8081 166.886C85.091 166.875 85.3733 166.92 85.6385 167.02C85.9037 167.119 86.1464 167.27 86.3524 167.464C86.5584 167.659 86.7235 167.892 86.8382 168.151C86.9528 168.41 87.0146 168.689 87.02 168.972Z" fill="#151D48"/>
<path d="M87.3693 162.91C87.0753 163.19 85.4514 161.874 83.0575 161.79C80.6636 161.706 78.8577 162.826 78.6337 162.532C78.4097 162.238 78.8017 161.888 79.5997 161.356C80.6606 160.684 81.901 160.352 83.1555 160.404C84.3983 160.454 85.5937 160.895 86.5713 161.664C87.2713 162.252 87.5093 162.784 87.3693 162.91Z" fill="#151D48"/>
<path d="M94.5226 181.052C95.7997 180.723 97.11 180.54 98.4284 180.507C99.0443 180.507 99.6183 180.367 99.7443 179.961C99.8162 179.334 99.6992 178.7 99.4083 178.141C98.8904 176.643 98.3444 175.075 97.7844 173.423C95.5305 166.717 93.9346 161.215 94.2006 161.131C94.4666 161.047 96.5245 166.409 98.7644 173.115C99.2963 174.767 99.8143 176.335 100.304 177.847C100.664 178.597 100.743 179.451 100.528 180.255C100.43 180.465 100.285 180.65 100.106 180.798C99.9272 180.946 99.7174 181.052 99.4923 181.108C99.1516 181.179 98.8042 181.212 98.4564 181.206C97.1441 181.33 95.8212 181.278 94.5226 181.052Z" fill="#151D48"/>
<path d="M95.0826 209.373C86.9359 209.187 79.0015 206.739 72.1658 202.304C72.1658 202.304 77.5135 214.497 94.8866 213.503L95.0826 209.373Z" fill="#FED7AA"/>
<path d="M93.2914 186.764C92.8594 186.176 92.2841 185.707 91.6201 185.403C90.9561 185.1 90.2255 184.97 89.4976 185.028C88.9597 185.057 88.4335 185.196 87.9518 185.437C87.4701 185.678 87.0432 186.015 86.6977 186.428C86.3699 186.81 86.1651 187.281 86.1102 187.781C86.0552 188.28 86.1526 188.785 86.3897 189.228C86.7573 189.669 87.2476 189.991 87.7984 190.153C88.3492 190.315 88.9357 190.31 89.4836 190.138C90.629 189.786 91.691 189.205 92.6054 188.43C92.8851 188.255 93.1277 188.027 93.3194 187.758C93.4073 187.625 93.4541 187.47 93.4541 187.31C93.4541 187.151 93.4073 186.995 93.3194 186.862" fill="#FED7AA"/>
<path d="M87.4398 182.439C87.8318 182.439 87.7338 185.014 89.8757 186.946C92.0176 188.878 94.7895 188.696 94.8035 189.06C94.8035 189.214 94.1595 189.536 92.9976 189.522C91.4771 189.483 90.0195 188.908 88.8818 187.898C87.8004 186.945 87.1285 185.611 87.0059 184.174C86.8939 183.041 87.2578 182.411 87.4398 182.439Z" fill="#151D48"/>
<path d="M87.2297 155.826C86.9777 156.469 84.5978 156.064 81.784 156.288C78.9701 156.511 76.6882 157.197 76.3382 156.595C76.1842 156.316 76.5902 155.714 77.5282 155.126C78.7717 154.39 80.1734 153.962 81.616 153.88C83.0485 153.758 84.4892 153.983 85.8158 154.538C86.8937 154.986 87.3417 155.518 87.2297 155.826Z" fill="#151D48"/>
<path d="M109.741 153.027C109.307 153.558 107.683 152.929 105.709 152.817C103.735 152.705 102.041 153.041 101.677 152.467C101.51 152.187 101.803 151.655 102.545 151.165C103.55 150.572 104.715 150.307 105.877 150.409C107.036 150.471 108.146 150.892 109.055 151.613C109.727 152.201 109.937 152.775 109.741 153.027Z" fill="#151D48"/>
<path d="M52.9868 143.758C56.3746 133.833 71.1859 120.31 81.5734 121.248L98.0925 131.593C97.4914 134.434 96.133 137.059 94.1614 139.191C92.1899 141.323 89.6784 142.882 86.8931 143.702C83.9113 144.542 80.3554 144.724 78.4935 147.23C76.6316 149.736 77.6256 153.586 75.9037 156.218C73.5098 159.886 67.1961 159.578 65.3762 163.553C64.5922 165.289 64.9422 167.389 64.1163 169.153C63.0243 171.449 57.1166 174.263 54.6947 173.451C52.2728 172.639 52.3568 168.509 51.6149 166.325C50.6599 163.869 50.5906 161.156 51.4189 158.654C52.6228 153.74 51.3769 148.49 52.9868 143.758Z" fill="#151D48"/>
<path d="M61.863 175.593C61.863 174.305 60.4631 171.211 59.2732 170.959C55.8993 170.301 49.7676 170.343 49.3757 178.967C48.8437 190.754 60.7851 188.85 60.8271 188.514C60.8691 188.178 61.695 180.045 61.863 175.593Z" fill="#FED7AA"/>
<path d="M57.4957 183.894C57.4957 183.894 57.2857 184.02 56.9218 184.16C56.4322 184.357 55.8854 184.357 55.3958 184.16C54.1639 183.642 53.2119 181.612 53.2399 179.498C53.2628 178.483 53.5064 177.485 53.9539 176.573C54.0833 176.21 54.2987 175.885 54.5815 175.624C54.8644 175.363 55.2062 175.175 55.5778 175.075C55.8151 175.021 56.0639 175.053 56.2794 175.166C56.495 175.279 56.6632 175.465 56.7538 175.691C56.8938 176.027 56.7538 176.265 56.8798 176.279C57.0057 176.293 57.1317 176.097 57.0618 175.607C57.0177 175.312 56.8685 175.044 56.6418 174.851C56.4864 174.718 56.3061 174.617 56.1114 174.555C55.9167 174.492 55.7115 174.469 55.5078 174.487C55.0201 174.564 54.5598 174.763 54.1705 175.067C53.7811 175.371 53.4753 175.768 53.2819 176.223C52.738 177.22 52.4449 178.335 52.428 179.47C52.428 181.85 53.5059 184.132 55.2278 184.706C55.5398 184.811 55.8711 184.845 56.1979 184.806C56.5247 184.768 56.8389 184.657 57.1178 184.482C57.3837 184.174 57.4957 183.908 57.4957 183.894Z" fill="#FED7AA"/>
<path d="M50.4948 140.777C50.4948 137.081 45.9311 134.673 42.3332 133.777C38.6625 133.146 34.8876 133.867 31.7078 135.807C29.8179 136.843 27.914 138.327 27.508 140.441C27.102 142.554 29.1179 145.074 31.1338 144.318C30.1486 144.641 29.2473 145.178 28.4949 145.891C27.7426 146.604 27.158 147.475 26.7835 148.442C26.4089 149.408 26.2537 150.446 26.3291 151.48C26.4044 152.514 26.7085 153.518 27.2192 154.42C27.73 155.322 28.4347 156.099 29.2825 156.696C30.1303 157.292 31.1 157.693 32.1215 157.869C33.143 158.045 34.1909 157.992 35.1895 157.714C36.188 157.435 37.1123 156.939 37.8955 156.26C36.8728 159.679 34.7085 162.643 31.7638 164.659C34.8099 165.096 37.9174 164.723 40.7734 163.577C43.6293 162.431 46.1329 160.553 48.032 158.132C49.9311 155.71 51.1586 152.831 51.591 149.784C52.0234 146.738 51.6453 143.631 50.4948 140.777Z" fill="#151D48"/>
<path d="M42.2914 159.452C41.941 158.306 41.7894 157.108 41.8434 155.91C41.7964 150.087 43.7096 144.416 47.2751 139.811C47.9483 138.821 48.792 137.958 49.767 137.263C47.3049 140.407 45.3408 143.91 43.9433 147.651C41.7734 153.951 42.5574 159.466 42.2914 159.452Z" fill="#0891B2"/>
<path d="M94.6489 128.037C95.7269 132.839 103.048 138.985 106.226 142.723C112.33 149.848 113.534 152.214 113.478 168.159C116.362 162.658 118.574 157.254 118.35 151.052C118.214 144.77 115.784 138.755 111.518 134.141C109.384 131.89 106.754 130.167 103.839 129.107C100.923 128.048 97.8007 127.682 94.7189 128.037" fill="#151D48"/>
<path d="M144.641 259.183C144.641 259.183 131.929 238.002 128.401 233.718C125.569 230.407 122.009 227.796 118 226.089C116.417 225.405 114.758 224.912 113.058 224.619L94.775 220.573C94.775 220.573 94.775 233.046 81.6857 233.816C68.5964 234.586 57.6209 216.373 57.6209 216.373C57.6209 216.373 36.496 219.649 31.4562 222.253C26.4165 224.857 18.4649 228.146 14.0971 249.971L11.0312 271.362L47.4294 274.722L50.9152 328.815L68.9603 341.415C68.9603 341.415 119.008 354.42 122.158 355.274C125.308 356.128 126.357 274.75 126.357 274.75C126.357 274.75 139.321 266.477 144.641 259.183Z" fill="#0077FF"/>
<path d="M120.674 250.083C120.969 250.578 121.208 251.104 121.388 251.651C121.794 252.673 122.326 254.171 122.914 256.047C125.974 265.876 127.236 276.177 126.638 286.454C126.526 288.414 126.372 289.995 126.204 291.087C126.167 291.656 126.068 292.22 125.91 292.767C125.843 292.2 125.843 291.627 125.91 291.059C125.98 289.967 126.064 288.386 126.106 286.426C126.242 281.329 126.008 276.229 125.406 271.166C124.774 266.111 123.773 261.11 122.41 256.201C121.892 254.311 121.43 252.785 121.094 251.749C120.896 251.21 120.755 250.652 120.674 250.083Z" fill="#151D48"/>
<path d="M119.091 338.684L50.4948 323.761L47.331 274.763L16.8545 271.964C16.8545 271.964 17.9884 305.45 19.1504 315.361C20.8443 329.683 29.2999 349.226 34.2556 353.159C39.2114 357.093 122.101 355.301 122.101 355.301L119.091 338.684Z" fill="#FED7AA"/>
<path d="M158.023 347.561C157.795 348.034 157.43 348.429 156.976 348.693C156.522 348.958 155.999 349.08 155.475 349.045C155.252 349.029 155.031 348.987 154.817 348.919C153.291 348.429 153.417 345.335 153.417 345.335L146.166 344.159C146.166 344.159 136.716 350.249 133.356 354.281C129.996 358.312 121.429 355.051 121.429 355.051L118.461 339.567L131.83 327.486C131.83 327.486 131.018 328.2 131.942 325.946C132.866 323.692 137.052 324.546 137.052 324.546C137.71 323.426 140.454 323.034 140.454 323.034L152.185 324.434C153.377 324.572 154.523 324.976 155.538 325.616C156.553 326.255 157.412 327.114 158.051 328.13L163.021 335.984C163.021 335.984 165.639 341.583 165.219 342.983C165.032 343.545 164.639 344.016 164.12 344.302C163.601 344.587 162.994 344.666 162.419 344.523C162.419 344.523 161.845 348.247 160.865 348.373C159.864 348.321 158.881 348.083 157.967 347.673L158.023 347.561Z" fill="#FED7AA"/>
<path d="M133.09 336.445C133.09 336.571 134.658 336.445 137.164 336.529C140.418 336.686 143.635 337.289 146.726 338.321C148.427 338.893 150.079 339.599 151.667 340.435C153.067 341.233 154.551 341.835 155.013 342.913C155.118 343.137 155.161 343.384 155.139 343.63C155.117 343.876 155.03 344.111 154.887 344.313C154.675 344.643 154.367 344.902 154.005 345.055C153.673 345.171 153.321 345.223 152.969 345.209C152.969 345.209 153.333 345.531 154.089 345.335C154.546 345.21 154.946 344.934 155.223 344.551C155.425 344.296 155.557 343.992 155.606 343.671C155.655 343.349 155.62 343.021 155.503 342.717C155.205 342.043 154.719 341.47 154.103 341.065C153.459 340.659 152.787 340.225 152.045 339.819C150.438 338.937 148.756 338.197 147.02 337.607C143.863 336.54 140.553 335.996 137.22 335.997C135.829 335.928 134.435 336.079 133.09 336.445Z" fill="#FED7AA"/>
<path d="M132.25 343.921C132.25 344.145 137.038 343.921 142.904 344.285C148.769 344.649 153.473 345.349 153.515 345.125C152.536 344.74 151.51 344.49 150.463 344.383C147.975 343.961 145.465 343.68 142.946 343.543C140.423 343.402 137.895 343.402 135.372 343.543C134.319 343.524 133.268 343.652 132.25 343.921Z" fill="#FED7AA"/>
<path d="M157.954 347.266C158.057 346.859 158.109 346.44 158.108 346.02C158.18 344.873 158.18 343.723 158.108 342.576C158.068 341.775 157.961 340.979 157.786 340.196C157.575 339.28 157.185 338.414 156.638 337.648C155.482 335.876 153.989 334.349 152.242 333.155C150.518 331.96 148.633 331.018 146.643 330.355C144.992 329.889 143.29 329.63 141.575 329.585C140.175 329.585 138.971 329.585 138.159 329.585C137.735 329.557 137.309 329.599 136.899 329.711C138.44 329.931 139.991 330.062 141.547 330.103C143.209 330.214 144.853 330.515 146.447 330.999C148.356 331.696 150.168 332.637 151.836 333.799C153.488 334.956 154.911 336.408 156.036 338.082C156.957 339.444 157.485 341.032 157.562 342.674C157.87 345.46 157.8 347.266 157.954 347.266Z" fill="#FED7AA"/>
<path d="M141.028 325.988C141.028 326.1 142.778 326.156 145.578 326.478C148.378 326.8 152.578 327.08 155.056 330.804C157.44 333.582 159.428 336.678 160.963 340.001C161.472 341.429 161.846 342.9 162.083 344.397C162.166 343.986 162.166 343.562 162.083 343.151C162.012 342.014 161.781 340.892 161.397 339.819C159.978 336.364 158.007 333.163 155.56 330.342C154.906 329.477 154.144 328.701 153.292 328.032C152.451 327.424 151.5 326.987 150.492 326.744C148.867 326.308 147.202 326.041 145.522 325.946C144.028 325.782 142.519 325.796 141.028 325.988Z" fill="#FED7AA"/>
<path d="M135.89 351.789C136.138 351.632 136.373 351.454 136.59 351.257L138.55 349.675C141.016 347.758 143.592 345.986 146.264 344.369H146.096L153.347 345.601L153.095 345.293C153.072 345.889 153.119 346.486 153.235 347.071C153.331 347.723 153.618 348.332 154.061 348.821C154.327 349.061 154.659 349.217 155.013 349.269C155.351 349.331 155.697 349.331 156.035 349.269C156.74 349.165 157.383 348.806 157.841 348.261C157.964 348.133 158.072 347.992 158.163 347.841L158.233 347.715L157.813 347.869L158.037 347.953C158.345 348.079 158.653 348.191 158.975 348.289C159.297 348.387 159.619 348.471 159.969 348.541C160.151 348.556 160.333 348.556 160.515 348.541C160.746 348.555 160.977 348.512 161.187 348.415C161.505 348.164 161.748 347.829 161.887 347.449C162.035 347.128 162.157 346.795 162.251 346.455C162.448 345.779 162.602 345.092 162.713 344.397L162.293 344.691C162.785 344.793 163.295 344.762 163.77 344.599C164.246 344.437 164.669 344.149 164.995 343.767C165.318 343.372 165.496 342.878 165.499 342.367C165.46 341.893 165.375 341.425 165.247 340.967C164.697 339.184 164.028 337.439 163.245 335.745L160.599 331.546L158.919 328.9C158.409 327.974 157.793 327.109 157.085 326.324C156.335 325.569 155.44 324.974 154.453 324.574C153.492 324.217 152.482 324.009 151.457 323.958L140.412 322.712H140.328C139.664 322.818 139.012 322.992 138.382 323.23C137.71 323.431 137.121 323.844 136.702 324.406L137.108 324.28C136.511 324.004 135.856 323.879 135.199 323.916C134.542 323.952 133.905 324.149 133.342 324.49C132.363 325.203 131.696 326.266 131.48 327.458L131.564 327.304L122.353 335.591L119.875 337.873C119.57 338.122 119.293 338.404 119.049 338.713C119.378 338.498 119.687 338.254 119.973 337.985L122.563 335.815L131.928 327.724H131.998V327.626C132.199 326.587 132.784 325.662 133.636 325.036C134.118 324.763 134.657 324.61 135.21 324.588C135.763 324.566 136.313 324.676 136.814 324.91L137.066 325.008L137.22 324.784C137.585 324.35 138.074 324.038 138.62 323.888C139.205 323.675 139.81 323.52 140.426 323.426H140.328L151.373 324.728C152.331 324.784 153.274 324.982 154.173 325.316C155.067 325.674 155.877 326.212 156.553 326.898C157.222 327.647 157.804 328.469 158.289 329.348L159.969 332.008C160.879 333.407 161.775 334.807 162.615 336.207C163.394 337.857 164.053 339.559 164.589 341.303C164.713 341.709 164.792 342.126 164.827 342.549C164.834 342.912 164.71 343.265 164.477 343.543C164.239 343.822 163.929 344.03 163.581 344.146C163.233 344.262 162.861 344.281 162.503 344.201H162.125V344.551C162.018 345.217 161.873 345.876 161.691 346.525C161.572 347.102 161.312 347.64 160.935 348.093C160.838 348.108 160.738 348.108 160.641 348.093H160.193C159.899 348.093 159.591 347.953 159.283 347.869L158.387 347.561L158.177 347.477L157.743 347.631V347.715C157.675 347.834 157.596 347.947 157.505 348.051C157.149 348.476 156.653 348.759 156.105 348.849C155.842 348.905 155.57 348.905 155.307 348.849C155.06 348.825 154.826 348.728 154.635 348.569C154.021 347.682 153.743 346.604 153.851 345.531V345.265H153.599L146.32 344.131H146.236H146.166C143.502 345.798 140.954 347.64 138.536 349.647C137.696 350.361 137.066 350.935 136.646 351.327C136.378 351.453 136.125 351.608 135.89 351.789Z" fill="#FED7AA"/>
<path d="M246.933 302.525L156.68 303.267C153.74 303.267 150.954 304.666 150.506 307.564L140.706 373.361H94.1448C93.46 373.41 92.8193 373.717 92.3515 374.22C91.8838 374.722 91.6238 375.383 91.6238 376.07C91.6238 376.756 91.8838 377.418 92.3515 377.92C92.8193 378.423 93.46 378.729 94.1448 378.779H242.649L252.799 309.342C252.926 308.498 252.869 307.636 252.632 306.816C252.396 305.996 251.985 305.236 251.429 304.589C250.872 303.942 250.182 303.422 249.406 303.066C248.63 302.71 247.787 302.525 246.933 302.525Z" fill="#8FC9FF"/>
<path d="M246.935 302.525C247.406 302.506 247.877 302.553 248.335 302.665C249.535 302.95 250.619 303.599 251.436 304.524C252.253 305.449 252.764 306.604 252.898 307.831C252.933 309.077 252.82 310.322 252.562 311.541L251.26 320.71C249.272 334.5 246.417 354.379 242.861 378.822V379.06H242.623L98.556 379.144H94.6782C93.9735 379.211 93.2643 379.075 92.6343 378.752C92.1526 378.487 91.7507 378.098 91.4708 377.625C91.1909 377.153 91.0432 376.613 91.0432 376.064C91.0432 375.514 91.1909 374.975 91.4708 374.502C91.7507 374.029 92.1526 373.64 92.6343 373.376C93.2664 373.06 93.9749 372.929 94.6782 372.998H140.652L140.302 373.306C143.844 349.745 147.162 327.766 150.101 308.041C150.198 306.724 150.8 305.495 151.781 304.611C152.761 303.785 153.955 303.256 155.225 303.085C156.435 302.968 157.65 302.926 158.865 302.959H162.407L176 302.875L200.149 302.721L234.531 302.539H246.907C246.907 302.539 246.641 302.539 246.109 302.539H243.729L234.531 302.665L200.149 303.043L176 303.295L162.407 303.421H158.865C157.683 303.399 156.501 303.441 155.323 303.547C154.16 303.701 153.067 304.187 152.173 304.947C151.738 305.339 151.384 305.812 151.132 306.341C150.879 306.869 150.734 307.442 150.703 308.027C147.764 327.752 144.488 349.731 140.904 373.292V373.6H94.7062C94.1309 373.527 93.5469 373.624 93.0263 373.88C92.5526 374.152 92.1869 374.579 91.9906 375.089C91.7943 375.598 91.7794 376.16 91.9484 376.68C92.1485 377.205 92.5245 377.646 93.0123 377.926C93.5383 378.18 94.1252 378.282 94.7062 378.22H98.584L242.651 378.304L242.371 378.542C245.997 354.113 248.936 334.248 250.98 320.459C251.498 317.029 251.96 313.963 252.38 311.317C252.64 310.117 252.767 308.891 252.758 307.663C252.641 306.465 252.157 305.331 251.373 304.417C250.589 303.503 249.543 302.852 248.377 302.553C247.897 302.519 247.415 302.51 246.935 302.525Z" fill="url(#paint0_linear_1_776)"/>
<path d="M197.978 345.475C201.101 345.475 203.633 342.942 203.633 339.819C203.633 336.695 201.101 334.163 197.978 334.163C194.854 334.163 192.322 336.695 192.322 339.819C192.322 342.942 194.854 345.475 197.978 345.475Z" fill="white"/>
<path d="M144.29 378.163C144.416 378.163 147.286 361.433 150.702 340.756C154.118 320.08 156.792 303.28 156.666 303.266C156.54 303.252 153.656 319.996 150.24 340.672C146.824 361.349 144.178 378.149 144.29 378.163Z" fill="url(#paint1_linear_1_776)"/>
<defs>
<linearGradient id="paint0_linear_1_776" x1="47.7548" y1="282.912" x2="146.338" y2="491.112" gradientUnits="userSpaceOnUse">
<stop stop-color="#417FF7"/>
<stop offset="1" stop-color="#3999F1"/>
</linearGradient>
<linearGradient id="paint1_linear_1_776" x1="140.975" y1="284.107" x2="181.06" y2="290.734" gradientUnits="userSpaceOnUse">
<stop stop-color="#417FF7"/>
<stop offset="1" stop-color="#3999F1"/>
</linearGradient>
</defs>
</svg>
