<svg width="849" height="632" viewBox="0 0 849 632" fill="none" xmlns="http://www.w3.org/2000/svg">
<path d="M848.186 555.392H0V555.816H848.186V555.392Z" fill="#EBEBEB"/>
<path d="M763.197 582.686H707.013V583.11H763.197V582.686Z" fill="#EBEBEB"/>
<path d="M561.872 587.301H547.13V587.725H561.872V587.301Z" fill="#EBEBEB"/>
<path d="M705.316 566.944H672.763V567.368H705.316V566.944Z" fill="#EBEBEB"/>
<path d="M162.258 569.794H88.9922V570.218H162.258V569.794Z" fill="#EBEBEB"/>
<path d="M188.112 569.794H177.374V570.218H188.112V569.794Z" fill="#EBEBEB"/>
<path d="M381.938 576.953H223.022V577.377H381.938V576.953Z" fill="#EBEBEB"/>
<path d="M402.041 479.734H74.4889C71.9229 479.729 69.4635 478.707 67.6506 476.891C65.8378 475.075 64.8196 472.614 64.8196 470.048V9.60146C64.8419 7.05016 65.87 4.6107 67.6804 2.81295C69.4909 1.01521 71.9375 0.00437051 74.4889 0H402.041C404.61 0 407.074 1.02052 408.89 2.83705C410.707 4.65358 411.728 7.11732 411.728 9.68628V470.048C411.728 472.617 410.707 475.08 408.89 476.897C407.074 478.713 404.61 479.734 402.041 479.734ZM74.4889 0.339276C72.0354 0.343769 69.6838 1.32158 67.9505 3.05809C66.2172 4.7946 65.2437 7.14791 65.2437 9.60146V470.048C65.2437 472.501 66.2172 474.854 67.9505 476.591C69.6838 478.327 72.0354 479.305 74.4889 479.31H402.041C404.496 479.305 406.85 478.328 408.586 476.592C410.322 474.856 411.299 472.503 411.303 470.048V9.60146C411.299 7.14636 410.322 4.79309 408.586 3.05706C406.85 1.32103 404.496 0.34376 402.041 0.339276H74.4889Z" fill="#EBEBEB"/>
<path d="M768.982 479.734H441.413C438.845 479.729 436.384 478.707 434.569 476.892C432.753 475.076 431.731 472.615 431.727 470.048V9.60146C431.753 7.04862 432.785 4.60917 434.598 2.81189C436.411 1.01461 438.86 0.00432285 441.413 0H768.982C771.531 0.00882876 773.973 1.02164 775.78 2.81891C777.586 4.61618 778.612 7.05309 778.634 9.60146V470.048C778.635 472.611 777.619 475.069 775.809 476.885C774 478.7 771.545 479.725 768.982 479.734ZM441.413 0.339276C438.958 0.34376 436.604 1.32103 434.868 3.05706C433.132 4.79309 432.155 7.14636 432.151 9.60146V470.048C432.155 472.503 433.132 474.856 434.868 476.592C436.604 478.328 438.958 479.305 441.413 479.31H768.982C771.437 479.305 773.79 478.328 775.527 476.592C777.263 474.856 778.24 472.503 778.244 470.048V9.60146C778.24 7.14636 777.263 4.79309 775.527 3.05706C773.79 1.32103 771.437 0.34376 768.982 0.339276H441.413Z" fill="#EBEBEB"/>
<path d="M411.098 201.665H170.247V554.798H411.098V201.665Z" fill="#F0F0F0"/>
<path d="M402.582 212.776H178.746V278.002H402.582V212.776Z" fill="#E0E0E0"/>
<path d="M191.468 223.327H178.746V277.984H191.468V223.327Z" fill="#EBEBEB"/>
<path d="M252.961 223.327H240.238V277.984H252.961V223.327Z" fill="#EBEBEB"/>
<path d="M322.756 221.955L310.218 224.116L319.502 277.979L332.04 275.818L322.756 221.955Z" fill="#EBEBEB"/>
<path d="M207.227 230.537H194.504V278.001H207.227V230.537Z" fill="#EBEBEB"/>
<path d="M236.456 230.537H223.733V278.001H236.456V230.537Z" fill="#EBEBEB"/>
<path d="M310.233 230.537H297.51V278.001H310.233V230.537Z" fill="#EBEBEB"/>
<path d="M269.672 228.89L257.252 231.65L267.55 277.984L279.97 275.224L269.672 228.89Z" fill="#EBEBEB"/>
<path d="M218.223 220.613H211.861V277.985H218.223V220.613Z" fill="#EBEBEB"/>
<path d="M293.846 220.613H287.484V277.985H293.846V220.613Z" fill="#EBEBEB"/>
<path d="M178.764 353.558H402.601V288.332H178.764V353.558Z" fill="#E0E0E0"/>
<path d="M389.862 353.541H402.585V298.884H389.862V353.541Z" fill="#EBEBEB"/>
<path d="M328.384 353.541H341.107V298.884H328.384V353.541Z" fill="#EBEBEB"/>
<path d="M249.31 351.369L261.848 353.53L271.132 299.667L258.594 297.506L249.31 351.369Z" fill="#EBEBEB"/>
<path d="M374.101 353.558H386.824V306.093H374.101V353.558Z" fill="#EBEBEB"/>
<path d="M344.889 353.558H357.612V306.093H344.889V353.558Z" fill="#EBEBEB"/>
<path d="M271.116 353.558H283.839V306.093H271.116V353.558Z" fill="#EBEBEB"/>
<path d="M301.416 350.785L313.836 353.545L324.133 307.211L311.714 304.451L301.416 350.785Z" fill="#EBEBEB"/>
<path d="M363.108 353.541H369.469V296.169H363.108V353.541Z" fill="#EBEBEB"/>
<path d="M287.5 353.541H293.862V296.169H287.5V353.541Z" fill="#EBEBEB"/>
<path d="M191.468 298.884H178.746V353.541H191.468V298.884Z" fill="#EBEBEB"/>
<path d="M207.227 306.076H194.504V353.541H207.227V306.076Z" fill="#EBEBEB"/>
<path d="M236.456 306.076H223.733V353.541H236.456V306.076Z" fill="#EBEBEB"/>
<path d="M218.223 296.17H211.861V353.541H218.223V296.17Z" fill="#EBEBEB"/>
<path d="M402.582 363.872H178.746V429.097H402.582V363.872Z" fill="#E0E0E0"/>
<path d="M319.953 374.423H307.23V429.08H319.953V374.423Z" fill="#EBEBEB"/>
<path d="M389.754 373.046L377.216 375.207L386.501 429.07L399.039 426.909L389.754 373.046Z" fill="#EBEBEB"/>
<path d="M274.219 381.633H261.497V429.097H274.219V381.633Z" fill="#EBEBEB"/>
<path d="M303.448 381.633H290.725V429.097H303.448V381.633Z" fill="#EBEBEB"/>
<path d="M377.221 381.633H364.499V429.097H377.221V381.633Z" fill="#EBEBEB"/>
<path d="M336.67 379.988L324.251 382.748L334.548 429.082L346.968 426.322L336.67 379.988Z" fill="#EBEBEB"/>
<path d="M285.211 371.709H278.849V429.08H285.211V371.709Z" fill="#EBEBEB"/>
<path d="M360.833 371.709H354.471V429.08H360.833V371.709Z" fill="#EBEBEB"/>
<path d="M243.465 373.059L230.927 375.22L240.211 429.083L252.749 426.921L243.465 373.059Z" fill="#EBEBEB"/>
<path d="M230.926 381.633H218.204V429.097H230.926V381.633Z" fill="#EBEBEB"/>
<path d="M190.381 379.987L177.961 382.748L188.259 429.082L200.679 426.321L190.381 379.987Z" fill="#EBEBEB"/>
<path d="M214.557 371.709H208.196V429.08H214.557V371.709Z" fill="#EBEBEB"/>
<path d="M128.686 555.714H170.247L170.247 201.665H128.686L128.686 555.714Z" fill="#E0E0E0"/>
<path d="M552.068 546.469H516.767L535.325 395.254C535.77 392.095 537.322 389.196 539.705 387.074C542.088 384.952 545.146 383.745 548.336 383.668H702.299L679.72 546.401L552.068 546.469Z" fill="#F5F5F5"/>
<path d="M664.027 546.469H699.328L717.903 395.254C718.13 393.801 718.034 392.315 717.624 390.903C717.213 389.49 716.496 388.185 715.525 387.08C714.555 385.974 713.353 385.096 712.005 384.506C710.657 383.917 709.196 383.631 707.725 383.668H695.596C692.412 383.766 689.365 384.98 686.986 387.098C684.607 389.216 683.049 392.103 682.585 395.254L664.027 546.469Z" fill="#F0F0F0"/>
<path d="M651.035 546.231L657.431 473.118C657.566 471.532 658.241 470.04 659.343 468.891C660.445 467.743 661.908 467.007 663.487 466.807L666.116 466.468C668.239 466.202 670.205 465.214 671.685 463.67C673.164 462.125 674.067 460.118 674.242 457.986L675.412 444.653C675.528 443.36 675.373 442.058 674.957 440.828C674.541 439.599 673.874 438.469 672.998 437.512C672.122 436.554 671.056 435.79 669.868 435.267C668.681 434.744 667.397 434.474 666.099 434.474H725.099C726.397 434.474 727.68 434.744 728.868 435.267C730.056 435.79 731.122 436.554 731.998 437.512C732.874 438.469 733.541 439.599 733.957 440.828C734.372 442.058 734.527 443.36 734.412 444.653L733.242 457.986C733.067 460.118 732.164 462.125 730.684 463.67C729.205 465.214 727.238 466.202 725.116 466.468L722.487 466.807C720.909 467.01 719.448 467.747 718.346 468.895C717.244 470.043 716.568 471.533 716.43 473.118L710.035 546.231C709.806 548.801 708.625 551.192 706.722 552.934C704.82 554.676 702.335 555.644 699.755 555.646H640.755C643.335 555.644 645.82 554.676 647.723 552.934C649.625 551.192 650.807 548.801 651.035 546.231Z" fill="#E6E6E6"/>
<path d="M488.656 454.882C488.189 449.332 485.654 444.16 481.554 440.39C477.454 436.62 472.088 434.527 466.519 434.526H517.885C523.44 434.548 528.785 436.651 532.867 440.419C536.949 444.187 539.471 449.347 539.938 454.882L545.027 512.83H493.729L488.656 454.882Z" fill="#E6E6E6"/>
<path d="M443.702 434.594H466.501C472.07 434.595 477.436 436.688 481.536 440.458C485.636 444.228 488.171 449.4 488.638 454.95L493.728 512.898H616.07L621.159 454.95C621.622 449.413 624.143 444.251 628.226 440.482C632.309 436.714 637.656 434.612 643.212 434.594H666.028C667.326 434.593 668.609 434.863 669.797 435.386C670.985 435.909 672.051 436.673 672.927 437.631C673.803 438.588 674.47 439.718 674.886 440.947C675.302 442.177 675.457 443.479 675.341 444.772L674.171 458.105C673.996 460.237 673.093 462.244 671.614 463.789C670.134 465.333 668.167 466.321 666.045 466.587L663.416 466.926C661.836 467.126 660.374 467.862 659.272 469.011C658.169 470.159 657.495 471.651 657.36 473.237L651.032 546.232C650.803 548.801 649.622 551.192 647.719 552.934C645.817 554.676 643.332 555.644 640.752 555.647H469.045C466.466 555.644 463.98 554.676 462.078 552.934C460.176 551.192 458.994 548.801 458.765 546.232L452.37 473.118C452.229 471.534 451.552 470.046 450.451 468.898C449.35 467.751 447.891 467.014 446.314 466.808L443.685 466.468C441.561 466.2 439.595 465.212 438.113 463.668C436.631 462.124 435.723 460.119 435.542 457.986L434.389 444.653C434.29 443.37 434.458 442.08 434.882 440.865C435.305 439.65 435.975 438.535 436.849 437.591C437.724 436.646 438.784 435.893 439.963 435.377C441.142 434.861 442.415 434.594 443.702 434.594Z" fill="#F0F0F0"/>
<path d="M173.301 184.023C173.301 184.023 171.418 171.622 180.46 163.666C189.502 155.71 188.704 150.994 186.109 150.383C183.513 149.773 181.155 157.712 177.186 159.9C177.186 159.9 177.05 148.568 181.088 144.412C185.125 140.256 187.245 129.484 183.395 129.298C179.544 129.111 179.171 135.676 178.306 140.341C177.44 145.006 173.216 151.554 173.216 151.554C173.216 151.554 172.385 141.376 169.824 137.254C167.262 133.131 174.166 123.547 171.52 119.391C168.874 115.235 164.073 123.157 164.463 132.097C164.853 141.036 170.824 150.57 169.433 159.9C169.433 159.9 166.804 153.335 164.446 152.741C162.088 152.148 159.696 147.822 158.119 146.21C156.541 144.599 154.539 150.163 158.119 155.32C161.698 160.477 170.824 174.302 169.433 185.464L173.301 184.023Z" fill="#E6E6E6"/>
<path d="M178.696 178.373L181.665 196.949C181.878 198.297 181.796 199.676 181.426 200.99C181.055 202.304 180.404 203.522 179.517 204.561C178.63 205.599 177.529 206.433 176.289 207.005C175.049 207.576 173.7 207.873 172.335 207.873H169.179C167.814 207.873 166.465 207.576 165.225 207.005C163.985 206.433 162.884 205.599 161.997 204.561C161.11 203.522 160.459 202.304 160.088 200.99C159.718 199.676 159.636 198.297 159.849 196.949L162.852 178.373H178.696Z" fill="#E6E6E6"/>
<path d="M356.322 204.243H365.533V164.633H356.322V204.243Z" fill="#EBEBEB"/>
<path d="M311.776 204.243H320.988V164.633H311.776V204.243Z" fill="#EBEBEB"/>
<path d="M254.481 202.669L263.558 204.233L270.287 165.199L261.209 163.634L254.481 202.669Z" fill="#EBEBEB"/>
<path d="M344.908 204.226H354.119V169.841H344.908V204.226Z" fill="#EBEBEB"/>
<path d="M323.735 204.226H332.946V169.841H323.735V204.226Z" fill="#EBEBEB"/>
<path d="M270.267 204.226H279.478V169.841H270.267V204.226Z" fill="#EBEBEB"/>
<path d="M292.233 202.231L301.225 204.23L308.685 170.663L299.693 168.665L292.233 202.231Z" fill="#EBEBEB"/>
<path d="M336.932 204.243H341.546V162.665H336.932V204.243Z" fill="#EBEBEB"/>
<path d="M282.123 204.243H286.738V162.665H282.123V204.243Z" fill="#EBEBEB"/>
<path d="M249.282 172.792H204.379V203.785H249.282V172.792Z" fill="#EBEBEB"/>
<path d="M403.278 185.481H365.669V208.62H403.278V185.481Z" fill="#EBEBEB"/>
<path d="M394.491 165.142H375.678V188.28H394.491V165.142Z" fill="#EBEBEB"/>
<path d="M708.76 134.522H664.027V320.92H708.76V134.522Z" fill="#E0E0E0"/>
<path d="M536.666 321.428H703.962V134.539L536.666 134.539V321.428Z" fill="#E0E0E0"/>
<path d="M531.27 321.428H704.843V134.539L531.27 134.539V321.428Z" fill="#F0F0F0"/>
<path d="M538.699 312.828H697.717V140.477L538.699 140.477V312.828Z" fill="white"/>
<path d="M538.683 312.828H541.635V140.477H538.683V312.828Z" fill="#E0E0E0"/>
<path d="M541.161 264.431V269.079H698.143V264.431H541.161Z" fill="#E0E0E0"/>
<path d="M538.684 264.413H700.195V256.61H538.684V264.413Z" fill="#F0F0F0"/>
<path d="M424.092 632C605.744 632 753.002 623.402 753.002 612.797C753.002 602.192 605.744 593.594 424.092 593.594C242.441 593.594 95.1829 602.192 95.1829 612.797C95.1829 623.402 242.441 632 424.092 632Z" fill="#F5F5F5"/>
<path d="M546.147 165.939H242.649C235.791 165.939 230.231 171.498 230.231 178.356V535.714C230.231 542.572 235.791 548.132 242.649 548.132H546.147C553.005 548.132 558.564 542.572 558.564 535.714V178.356C558.564 171.498 553.005 165.939 546.147 165.939Z" fill="#0077FF"/>
<path opacity="0.6" d="M546.147 165.939H242.649C235.791 165.939 230.231 171.498 230.231 178.356V535.714C230.231 542.572 235.791 548.132 242.649 548.132H546.147C553.005 548.132 558.564 542.572 558.564 535.714V178.356C558.564 171.498 553.005 165.939 546.147 165.939Z" fill="white"/>
<path d="M505.384 341.225H283.431V379.224H505.384V341.225Z" fill="white"/>
<g opacity="0.4">
<path d="M303.279 363.922V364.923H295.577V354.032H303.041V355.016H296.731V358.901H302.363V359.868H296.731V363.922H303.279Z" fill="#263238"/>
<path d="M304.823 360.224H308.911V361.174H304.823V360.224Z" fill="#263238"/>
<path d="M324.874 360.173V364.923H323.771V360.275C323.771 358.579 322.906 357.663 321.43 357.663C321.047 357.645 320.666 357.711 320.311 357.856C319.957 358.002 319.638 358.222 319.378 358.504C319.118 358.785 318.922 359.119 318.805 359.484C318.688 359.849 318.652 360.234 318.699 360.614V364.923H317.579V360.275C317.579 358.579 316.714 357.663 315.221 357.663C314.839 357.645 314.457 357.711 314.102 357.856C313.748 358.002 313.43 358.222 313.169 358.504C312.909 358.785 312.714 359.119 312.596 359.484C312.479 359.849 312.443 360.234 312.49 360.614V364.923H311.371V356.73H312.439V358.223C312.759 357.722 313.205 357.315 313.732 357.041C314.259 356.767 314.849 356.637 315.442 356.662C316.041 356.611 316.642 356.747 317.161 357.051C317.68 357.354 318.093 357.811 318.343 358.358C318.682 357.812 319.161 357.366 319.731 357.068C320.301 356.769 320.94 356.629 321.583 356.662C322.043 356.627 322.506 356.696 322.936 356.863C323.366 357.03 323.754 357.292 324.07 357.629C324.385 357.966 324.621 358.37 324.761 358.81C324.9 359.25 324.938 359.716 324.874 360.173Z" fill="#263238"/>
<path d="M334.067 359.834V364.923H332.998V363.634C332.695 364.093 332.273 364.461 331.777 364.7C331.282 364.939 330.73 365.04 330.182 364.991C328.333 364.991 327.197 364.024 327.197 362.616C327.197 361.208 328.011 360.292 330.352 360.292H332.947V359.8C332.947 358.392 332.167 357.629 330.64 357.629C329.644 357.618 328.676 357.96 327.909 358.596L327.417 357.782C328.376 357.011 329.581 356.613 330.81 356.662C331.243 356.609 331.682 356.654 332.096 356.794C332.509 356.933 332.886 357.164 333.198 357.468C333.511 357.773 333.751 358.143 333.901 358.553C334.052 358.962 334.108 359.4 334.067 359.834ZM332.947 362.464V361.123H330.386C328.808 361.123 328.282 361.734 328.282 362.582C328.282 363.43 329.046 364.126 330.352 364.126C330.906 364.163 331.456 364.021 331.923 363.722C332.39 363.423 332.749 362.982 332.947 362.464Z" fill="#263238"/>
<path d="M336.814 354.151C336.816 354.046 336.839 353.943 336.881 353.847C336.923 353.751 336.984 353.665 337.059 353.592C337.135 353.52 337.224 353.463 337.322 353.425C337.419 353.387 337.524 353.369 337.628 353.371C337.731 353.369 337.833 353.387 337.928 353.424C338.024 353.461 338.111 353.516 338.185 353.587C338.259 353.658 338.318 353.743 338.36 353.837C338.401 353.931 338.423 354.032 338.426 354.134C338.428 354.24 338.409 354.346 338.37 354.445C338.331 354.543 338.272 354.633 338.198 354.709C338.124 354.785 338.035 354.845 337.937 354.886C337.839 354.927 337.734 354.948 337.628 354.948C337.522 354.951 337.417 354.932 337.318 354.893C337.219 354.854 337.129 354.795 337.053 354.721C336.978 354.647 336.917 354.558 336.876 354.46C336.835 354.362 336.814 354.257 336.814 354.151ZM337.068 356.73H338.171V364.923H337.068V356.73Z" fill="#263238"/>
<path d="M341.244 353.371H342.347V364.923H341.244V353.371Z" fill="#263238"/>
</g>
<path d="M505.384 393.134H283.431V431.133H505.384V393.134Z" fill="white"/>
<g opacity="0.4">
<path d="M304.093 409.725C304.093 412.049 302.397 413.457 299.648 413.457H296.731V416.85H295.577V405.959H299.648C302.414 405.993 304.093 407.401 304.093 409.725ZM302.939 409.725C302.939 408.028 301.803 406.994 299.547 406.994H296.663V412.439H299.547C301.803 412.439 302.939 411.438 302.939 409.725Z" fill="#263238"/>
<path d="M312.454 411.811V416.9H311.386V415.611C311.082 416.07 310.66 416.438 310.164 416.677C309.669 416.916 309.118 417.017 308.57 416.968C306.721 416.968 305.584 416.001 305.584 414.576C305.584 413.151 306.398 412.218 308.739 412.218H311.335V411.709C311.335 410.318 310.537 409.555 309.011 409.555C308.019 409.542 307.056 409.885 306.296 410.522L305.788 409.691C306.754 408.936 307.955 408.546 309.18 408.588C309.619 408.531 310.066 408.575 310.485 408.716C310.905 408.857 311.287 409.092 311.602 409.402C311.918 409.713 312.158 410.091 312.306 410.508C312.454 410.926 312.504 411.371 312.454 411.811ZM311.352 414.423V413.083H308.739C307.162 413.083 306.653 413.711 306.653 414.559C306.653 415.407 307.399 416.086 308.722 416.086C309.281 416.127 309.838 415.988 310.311 415.689C310.785 415.389 311.149 414.946 311.352 414.423Z" fill="#263238"/>
<path d="M314.32 415.951L314.812 415.085C315.668 415.683 316.686 416.002 317.73 416.001C319.273 416.001 319.918 415.476 319.918 414.661C319.918 412.524 314.608 414.203 314.608 410.98C314.608 409.64 315.762 408.639 317.849 408.639C318.866 408.63 319.868 408.894 320.749 409.403L320.257 410.285C319.544 409.813 318.704 409.571 317.849 409.589C316.373 409.589 315.711 410.166 315.711 410.946C315.711 413.152 321.021 411.489 321.021 414.627C321.021 416.052 319.782 416.968 317.628 416.968C316.444 416.999 315.282 416.642 314.32 415.951Z" fill="#263238"/>
<path d="M321.922 415.95L322.431 415.085C323.277 415.689 324.292 416.01 325.332 416.001C326.892 416.001 327.52 415.475 327.52 414.661C327.52 412.524 322.227 414.203 322.227 410.98C322.227 409.64 323.381 408.639 325.45 408.639C326.469 408.626 327.471 408.889 328.351 409.402L327.876 410.284C327.155 409.815 326.31 409.572 325.45 409.589C323.974 409.589 323.33 410.166 323.33 410.946C323.33 413.151 328.639 411.489 328.639 414.627C328.639 416.052 327.384 416.968 325.247 416.968C324.058 416.996 322.891 416.639 321.922 415.95Z" fill="#263238"/>
<path d="M342.514 408.707L339.427 416.883H338.392L335.882 410.183L333.303 416.883H332.268L329.096 408.707H330.148L332.726 415.662L335.356 408.707H336.306L338.918 415.662L341.514 408.707H342.514Z" fill="#263238"/>
<path d="M343.124 412.795C343.124 411.97 343.369 411.163 343.828 410.477C344.286 409.79 344.938 409.255 345.701 408.94C346.463 408.624 347.302 408.541 348.112 408.702C348.921 408.863 349.665 409.261 350.248 409.844C350.832 410.428 351.229 411.171 351.39 411.981C351.551 412.79 351.469 413.629 351.153 414.392C350.837 415.154 350.302 415.806 349.616 416.265C348.93 416.723 348.123 416.968 347.297 416.968C346.744 416.987 346.193 416.892 345.678 416.689C345.164 416.486 344.696 416.179 344.305 415.788C343.913 415.397 343.607 414.929 343.404 414.414C343.201 413.899 343.106 413.348 343.124 412.795ZM350.334 412.795C350.307 412.197 350.105 411.62 349.753 411.135C349.401 410.651 348.915 410.281 348.354 410.071C347.793 409.861 347.183 409.821 346.6 409.955C346.016 410.089 345.485 410.392 345.072 410.825C344.659 411.259 344.383 411.804 344.278 412.394C344.172 412.983 344.243 413.59 344.48 414.14C344.717 414.69 345.11 415.158 345.611 415.486C346.112 415.814 346.699 415.987 347.297 415.984C347.712 415.992 348.123 415.914 348.505 415.754C348.887 415.595 349.232 415.358 349.518 415.058C349.803 414.758 350.023 414.402 350.164 414.012C350.304 413.623 350.362 413.208 350.334 412.795Z" fill="#263238"/>
<path d="M357.833 408.639V409.708H357.562C357.174 409.689 356.786 409.756 356.427 409.904C356.068 410.052 355.746 410.278 355.483 410.564C355.221 410.851 355.025 411.192 354.909 411.563C354.793 411.933 354.761 412.325 354.814 412.71V416.883H353.711V408.707H354.763V410.301C355.049 409.748 355.494 409.294 356.042 408.997C356.59 408.701 357.214 408.576 357.833 408.639Z" fill="#263238"/>
<path d="M367.215 405.433V416.968H366.163V415.356C365.834 415.893 365.369 416.332 364.814 416.63C364.26 416.928 363.637 417.074 363.008 417.053C361.949 416.985 360.956 416.517 360.231 415.743C359.505 414.97 359.101 413.949 359.101 412.888C359.101 411.827 359.505 410.807 360.231 410.033C360.956 409.259 361.949 408.791 363.008 408.724C363.629 408.71 364.242 408.859 364.787 409.157C365.332 409.455 365.789 409.89 366.112 410.42V405.433H367.215ZM366.129 412.88C366.103 412.282 365.901 411.704 365.549 411.22C365.197 410.736 364.71 410.366 364.149 410.156C363.589 409.946 362.979 409.905 362.395 410.04C361.812 410.174 361.28 410.476 360.867 410.91C360.455 411.344 360.178 411.889 360.073 412.478C359.968 413.068 360.038 413.675 360.275 414.225C360.512 414.775 360.906 415.243 361.407 415.57C361.908 415.898 362.494 416.072 363.093 416.069C363.515 416.078 363.934 415.998 364.322 415.833C364.711 415.669 365.06 415.424 365.347 415.114C365.634 414.805 365.852 414.438 365.987 414.038C366.122 413.639 366.17 413.215 366.129 412.795V412.88Z" fill="#263238"/>
</g>
<path opacity="0.2" d="M505.384 469.895H283.431V507.893H505.384V469.895Z" fill="black"/>
<g opacity="0.5">
<path d="M337.409 452.439H333.779L332.998 454.136H332.286L335.255 447.639H335.933L338.902 454.136H338.189L337.409 452.439ZM337.154 451.88L335.594 448.385L334.033 451.88H337.154Z" fill="black"/>
<path d="M339.852 447.282H340.514V454.17H339.852V447.282Z" fill="black"/>
<path d="M344.82 449.25V449.895H344.651C344.414 449.874 344.175 449.908 343.953 449.992C343.731 450.077 343.531 450.211 343.368 450.384C343.205 450.557 343.083 450.764 343.011 450.991C342.94 451.218 342.92 451.457 342.954 451.693V454.186H342.293V449.301H342.937V450.251C343.107 449.908 343.381 449.628 343.718 449.448C344.056 449.269 344.441 449.199 344.82 449.25Z" fill="black"/>
<path d="M350.215 451.93H346.059C346.072 452.168 346.132 452.401 346.236 452.615C346.339 452.83 346.485 453.021 346.663 453.179C346.841 453.337 347.049 453.458 347.275 453.535C347.5 453.611 347.738 453.643 347.976 453.627C348.258 453.636 348.539 453.585 348.799 453.477C349.06 453.369 349.294 453.206 349.486 452.999L349.842 453.423C349.491 453.791 349.04 454.048 348.544 454.16C348.048 454.272 347.53 454.235 347.055 454.054C346.58 453.873 346.17 453.555 345.875 453.141C345.58 452.727 345.414 452.235 345.398 451.727C345.381 451.404 345.431 451.082 345.545 450.78C345.658 450.478 345.832 450.202 346.056 449.97C346.281 449.737 346.55 449.554 346.848 449.43C347.146 449.306 347.467 449.245 347.789 449.25C348.112 449.242 348.433 449.302 348.731 449.425C349.03 449.548 349.299 449.732 349.523 449.965C349.746 450.198 349.919 450.475 350.029 450.778C350.14 451.082 350.186 451.405 350.164 451.727C350.164 451.727 350.215 451.862 350.215 451.93ZM346.127 451.438H349.52C349.52 450.988 349.341 450.557 349.023 450.239C348.705 449.921 348.273 449.742 347.823 449.742C347.373 449.742 346.942 449.921 346.624 450.239C346.306 450.557 346.127 450.988 346.127 451.438Z" fill="black"/>
<path d="M355.119 451.235V454.255H354.542V453.491C354.362 453.77 354.108 453.994 353.809 454.138C353.51 454.282 353.176 454.34 352.846 454.306C351.743 454.306 351.149 453.729 351.149 452.881C351.149 452.032 351.624 451.49 353.032 451.49H354.542V451.201C354.542 450.37 354.067 449.912 353.151 449.912C352.534 449.889 351.93 450.094 351.455 450.489L351.166 449.997C351.729 449.548 352.432 449.314 353.151 449.335C353.414 449.29 353.683 449.308 353.938 449.386C354.192 449.464 354.425 449.602 354.616 449.787C354.808 449.972 354.953 450.199 355.041 450.451C355.128 450.703 355.155 450.971 355.119 451.235ZM354.474 452.796V451.981H352.931C351.981 451.981 351.675 452.355 351.675 452.864C351.675 453.372 352.133 453.78 352.914 453.78C353.265 453.806 353.615 453.716 353.91 453.523C354.205 453.33 354.427 453.044 354.542 452.711L354.474 452.796Z" fill="black"/>
<path d="M361.325 447.282V454.17H360.698V453.203C360.505 453.526 360.228 453.792 359.897 453.971C359.565 454.151 359.191 454.237 358.815 454.22C358.191 454.169 357.61 453.885 357.186 453.424C356.762 452.964 356.527 452.361 356.527 451.735C356.527 451.109 356.762 450.507 357.186 450.046C357.61 449.586 358.191 449.302 358.815 449.25C359.182 449.24 359.546 449.324 359.873 449.493C360.199 449.662 360.477 449.911 360.681 450.217V447.282H361.325ZM360.681 451.727C360.664 451.372 360.544 451.03 360.335 450.742C360.125 450.455 359.836 450.236 359.504 450.111C359.171 449.987 358.809 449.963 358.462 450.042C358.116 450.122 357.801 450.301 357.555 450.558C357.31 450.815 357.145 451.138 357.082 451.487C357.018 451.837 357.059 452.198 357.198 452.524C357.338 452.851 357.57 453.13 357.867 453.326C358.163 453.522 358.51 453.626 358.866 453.627C359.118 453.642 359.371 453.603 359.608 453.512C359.844 453.422 360.059 453.282 360.237 453.102C360.415 452.923 360.553 452.707 360.641 452.47C360.729 452.233 360.766 451.979 360.749 451.727H360.681Z" fill="black"/>
<path d="M367.349 449.284L364.906 454.763C364.499 455.713 363.973 456.019 363.21 456.019C362.772 456.03 362.346 455.872 362.022 455.578L362.328 455.086C362.566 455.324 362.889 455.458 363.227 455.459C363.668 455.459 363.956 455.255 364.244 454.628L364.448 454.17L362.26 449.284H363.023L364.872 453.44L366.704 449.284H367.349Z" fill="black"/>
<path d="M374.407 451.235V454.255H373.779V453.491C373.599 453.77 373.346 453.994 373.046 454.138C372.747 454.282 372.413 454.34 372.083 454.306C370.98 454.306 370.387 453.729 370.387 452.881C370.387 452.032 370.862 451.49 372.27 451.49H373.813V451.201C373.813 450.37 373.355 449.912 372.439 449.912C371.822 449.889 371.218 450.094 370.743 450.489L370.438 449.997C371.007 449.548 371.715 449.314 372.439 449.335C372.702 449.29 372.971 449.308 373.226 449.386C373.48 449.464 373.713 449.602 373.904 449.787C374.096 449.972 374.241 450.199 374.329 450.451C374.416 450.703 374.443 450.971 374.407 451.235ZM373.746 452.796V451.981H372.219C371.269 451.981 370.963 452.355 370.963 452.864C370.963 453.372 371.422 453.78 372.202 453.78C372.54 453.793 372.874 453.696 373.152 453.503C373.431 453.311 373.639 453.032 373.746 452.711V452.796Z" fill="black"/>
<path d="M386.772 451.337V454.17H386.127V451.405C386.127 450.37 385.601 449.844 384.719 449.844C384.492 449.826 384.264 449.858 384.05 449.937C383.836 450.016 383.641 450.14 383.48 450.301C383.319 450.462 383.195 450.657 383.116 450.871C383.037 451.084 383.005 451.313 383.023 451.54V454.102H382.378V451.405C382.378 450.37 381.853 449.844 380.953 449.844C380.726 449.826 380.498 449.858 380.284 449.937C380.07 450.016 379.876 450.14 379.714 450.301C379.553 450.462 379.429 450.657 379.35 450.871C379.271 451.084 379.239 451.313 379.257 451.54V454.102H378.595V449.216H379.223V450.115C379.41 449.811 379.676 449.564 379.993 449.4C380.31 449.235 380.665 449.16 381.021 449.182C381.377 449.155 381.732 449.24 382.037 449.425C382.341 449.611 382.58 449.888 382.718 450.217C382.915 449.885 383.2 449.613 383.54 449.43C383.881 449.248 384.265 449.162 384.652 449.182C384.945 449.13 385.246 449.15 385.53 449.24C385.813 449.33 386.071 449.489 386.28 449.701C386.488 449.913 386.642 450.173 386.728 450.458C386.814 450.743 386.829 451.045 386.772 451.337Z" fill="black"/>
<path d="M392.778 451.931H388.689C388.724 452.411 388.947 452.858 389.308 453.175C389.67 453.493 390.143 453.655 390.623 453.627C390.903 453.638 391.181 453.587 391.439 453.478C391.697 453.37 391.928 453.206 392.116 452.999L392.489 453.423C392.251 453.683 391.959 453.889 391.634 454.027C391.31 454.164 390.959 454.231 390.606 454.221C390.27 454.242 389.933 454.193 389.617 454.076C389.301 453.959 389.013 453.778 388.772 453.543C388.53 453.308 388.341 453.025 388.216 452.712C388.09 452.399 388.032 452.064 388.045 451.727C388.045 451.097 388.295 450.493 388.74 450.048C389.186 449.602 389.79 449.352 390.42 449.352C391.049 449.352 391.654 449.602 392.099 450.048C392.544 450.493 392.794 451.097 392.794 451.727C392.794 451.727 392.778 451.863 392.778 451.931ZM388.689 451.439H392.167C392.167 450.977 391.984 450.535 391.658 450.209C391.331 449.883 390.889 449.7 390.428 449.7C389.967 449.7 389.525 449.883 389.199 450.209C388.872 450.535 388.689 450.977 388.689 451.439Z" fill="black"/>
<path d="M402.211 451.337V454.17H401.549V451.405C401.549 450.37 401.04 449.844 400.158 449.844C399.93 449.823 399.7 449.853 399.485 449.93C399.27 450.008 399.074 450.133 398.912 450.295C398.75 450.456 398.626 450.652 398.548 450.867C398.47 451.082 398.441 451.312 398.462 451.54V454.102H397.8V451.405C397.8 450.37 397.291 449.844 396.392 449.844C396.164 449.823 395.934 449.853 395.719 449.93C395.504 450.008 395.308 450.133 395.146 450.295C394.985 450.456 394.86 450.652 394.782 450.867C394.704 451.082 394.675 451.312 394.696 451.54V454.102H394.034V449.216H394.662V450.115C394.847 449.81 395.113 449.562 395.43 449.397C395.747 449.233 396.104 449.158 396.46 449.182C396.816 449.155 397.171 449.24 397.476 449.425C397.78 449.611 398.018 449.888 398.156 450.217C398.354 449.885 398.638 449.613 398.979 449.43C399.32 449.248 399.704 449.162 400.09 449.182C400.383 449.13 400.685 449.15 400.968 449.24C401.252 449.33 401.509 449.489 401.718 449.701C401.927 449.913 402.081 450.173 402.167 450.458C402.253 450.743 402.268 451.045 402.211 451.337Z" fill="black"/>
<path d="M408.961 451.727C408.978 452.053 408.927 452.379 408.812 452.684C408.696 452.99 408.519 453.268 408.292 453.502C408.064 453.736 407.791 453.921 407.489 454.044C407.186 454.168 406.862 454.228 406.536 454.22C406.159 454.237 405.785 454.151 405.454 453.971C405.122 453.792 404.845 453.526 404.653 453.203V454.17H404.008V447.282H404.67V450.217C404.872 449.91 405.15 449.66 405.477 449.491C405.803 449.321 406.168 449.238 406.536 449.25C406.861 449.24 407.185 449.298 407.487 449.42C407.79 449.541 408.063 449.724 408.291 449.957C408.519 450.19 408.696 450.467 408.812 450.772C408.927 451.076 408.978 451.401 408.961 451.727ZM408.3 451.727C408.283 451.372 408.163 451.03 407.954 450.742C407.744 450.455 407.455 450.236 407.123 450.111C406.79 449.987 406.428 449.963 406.081 450.042C405.735 450.122 405.42 450.301 405.174 450.558C404.929 450.815 404.764 451.138 404.701 451.487C404.637 451.837 404.678 452.198 404.817 452.524C404.957 452.851 405.189 453.13 405.486 453.326C405.782 453.522 406.129 453.626 406.485 453.627C406.732 453.632 406.977 453.586 407.206 453.491C407.434 453.396 407.64 453.255 407.811 453.076C407.981 452.898 408.113 452.685 408.197 452.453C408.281 452.221 408.316 451.973 408.3 451.727Z" fill="black"/>
<path d="M414.577 451.931H410.523C410.536 452.168 410.596 452.401 410.699 452.616C410.803 452.83 410.948 453.022 411.127 453.18C411.305 453.337 411.513 453.458 411.738 453.535C411.964 453.612 412.202 453.643 412.44 453.627C412.722 453.627 413 453.564 413.255 453.444C413.51 453.324 413.736 453.149 413.916 452.931L414.289 453.356C413.938 453.724 413.487 453.98 412.991 454.092C412.495 454.205 411.977 454.168 411.502 453.986C411.027 453.805 410.616 453.488 410.321 453.073C410.026 452.659 409.86 452.167 409.844 451.659C409.828 451.337 409.878 451.015 409.991 450.712C410.105 450.41 410.279 450.134 410.503 449.902C410.727 449.67 410.997 449.486 411.295 449.363C411.593 449.239 411.913 449.177 412.236 449.183C412.558 449.175 412.878 449.234 413.176 449.357C413.474 449.481 413.742 449.665 413.964 449.898C414.186 450.131 414.357 450.409 414.466 450.712C414.574 451.015 414.618 451.338 414.594 451.659L414.577 451.931ZM410.489 451.439H413.882C413.882 450.989 413.703 450.557 413.385 450.239C413.067 449.921 412.635 449.742 412.185 449.742C411.735 449.742 411.304 449.921 410.986 450.239C410.668 450.557 410.489 450.989 410.489 451.439Z" fill="black"/>
<path d="M418.394 449.25V449.895H418.242C418.005 449.874 417.766 449.908 417.544 449.993C417.322 450.077 417.122 450.211 416.959 450.384C416.796 450.557 416.674 450.765 416.602 450.991C416.531 451.218 416.511 451.458 416.545 451.693V454.187H415.884V449.301H416.511V450.251C416.683 449.91 416.957 449.631 417.294 449.452C417.631 449.273 418.015 449.202 418.394 449.25Z" fill="black"/>
<path d="M422.668 449.335C422.668 448.656 422.125 448.198 421.175 448.198C420.841 448.18 420.507 448.237 420.199 448.366C419.89 448.496 419.615 448.693 419.394 448.945L418.902 448.572C419.191 448.245 419.551 447.989 419.953 447.821C420.356 447.654 420.791 447.58 421.226 447.605C422.533 447.605 423.364 448.232 423.364 449.301C423.364 450.879 421.667 450.997 421.667 452.287H420.972C420.972 450.692 422.668 450.539 422.668 449.335ZM420.836 453.729C420.857 453.616 420.917 453.514 421.006 453.441C421.094 453.368 421.205 453.328 421.32 453.328C421.434 453.328 421.545 453.368 421.634 453.441C421.722 453.514 421.782 453.616 421.803 453.729C421.816 453.8 421.814 453.873 421.796 453.943C421.778 454.013 421.744 454.078 421.698 454.134C421.652 454.189 421.594 454.234 421.529 454.265C421.463 454.296 421.392 454.312 421.32 454.312C421.247 454.312 421.176 454.296 421.11 454.265C421.045 454.234 420.987 454.189 420.941 454.134C420.895 454.078 420.862 454.013 420.843 453.943C420.825 453.873 420.823 453.8 420.836 453.729Z" fill="black"/>
<path d="M427.267 447.673H428.777V452.931H432.034V454.153H427.267V447.673Z" fill="black"/>
<path d="M432.371 451.676C432.337 451.126 432.469 450.579 432.749 450.106C433.03 449.632 433.446 449.253 433.945 449.019C434.443 448.785 435 448.706 435.544 448.792C436.087 448.878 436.593 449.125 436.994 449.502C437.396 449.879 437.675 450.367 437.795 450.905C437.916 451.442 437.872 452.003 437.67 452.515C437.468 453.027 437.117 453.467 436.662 453.777C436.207 454.087 435.67 454.253 435.119 454.254C434.766 454.278 434.413 454.228 434.08 454.109C433.747 453.99 433.443 453.804 433.185 453.562C432.927 453.32 432.722 453.028 432.582 452.703C432.442 452.379 432.37 452.029 432.371 451.676ZM436.391 451.676C436.372 451.429 436.281 451.194 436.129 450.999C435.978 450.803 435.773 450.656 435.54 450.575C435.306 450.494 435.054 450.483 434.814 450.543C434.575 450.603 434.358 450.732 434.19 450.913C434.022 451.095 433.91 451.321 433.869 451.564C433.827 451.808 433.858 452.058 433.956 452.285C434.055 452.512 434.218 452.705 434.424 452.841C434.63 452.976 434.872 453.049 435.119 453.05C435.296 453.053 435.471 453.019 435.634 452.95C435.797 452.88 435.943 452.777 436.063 452.648C436.183 452.518 436.274 452.364 436.331 452.197C436.388 452.029 436.408 451.852 436.391 451.676Z" fill="black"/>
<path d="M443.992 449.165V453.338C444.038 453.713 443.997 454.094 443.872 454.45C443.746 454.807 443.54 455.129 443.268 455.392C442.997 455.655 442.668 455.852 442.308 455.966C441.948 456.081 441.566 456.11 441.193 456.052C440.32 456.086 439.459 455.842 438.733 455.357L439.31 454.322C439.806 454.677 440.397 454.872 441.006 454.882C442.024 454.882 442.482 454.424 442.482 453.525V453.304C442.279 453.515 442.033 453.681 441.761 453.789C441.489 453.897 441.197 453.946 440.905 453.932C440.57 453.96 440.233 453.918 439.916 453.81C439.598 453.701 439.307 453.527 439.06 453.3C438.813 453.073 438.616 452.797 438.481 452.49C438.346 452.182 438.276 451.85 438.276 451.515C438.276 451.179 438.346 450.847 438.481 450.54C438.616 450.232 438.813 449.956 439.06 449.729C439.307 449.502 439.598 449.328 439.916 449.22C440.233 449.111 440.57 449.069 440.905 449.097C441.224 449.072 441.544 449.123 441.839 449.247C442.135 449.371 442.396 449.564 442.601 449.81V449.165H443.992ZM442.567 451.523C442.572 451.353 442.542 451.184 442.477 451.027C442.412 450.87 442.315 450.728 442.192 450.611C442.069 450.494 441.922 450.404 441.761 450.348C441.601 450.292 441.43 450.27 441.261 450.285C441.087 450.264 440.911 450.281 440.744 450.333C440.578 450.386 440.424 450.473 440.293 450.589C440.163 450.705 440.058 450.848 439.986 451.007C439.915 451.167 439.878 451.34 439.878 451.515C439.878 451.689 439.915 451.862 439.986 452.022C440.058 452.181 440.163 452.324 440.293 452.44C440.424 452.556 440.578 452.643 440.744 452.696C440.911 452.748 441.087 452.765 441.261 452.745C441.429 452.759 441.598 452.738 441.757 452.682C441.916 452.627 442.062 452.539 442.185 452.424C442.309 452.309 442.406 452.169 442.472 452.014C442.538 451.859 442.57 451.692 442.567 451.523Z" fill="black"/>
<path d="M447.844 447.672C447.846 447.559 447.871 447.447 447.918 447.343C447.965 447.24 448.033 447.147 448.117 447.071C448.202 446.994 448.301 446.936 448.408 446.9C448.516 446.863 448.63 446.849 448.743 446.858C448.854 446.847 448.967 446.858 449.073 446.891C449.18 446.925 449.278 446.98 449.362 447.053C449.447 447.126 449.515 447.216 449.563 447.317C449.611 447.417 449.638 447.527 449.642 447.639C449.642 447.877 449.548 448.106 449.379 448.274C449.21 448.443 448.982 448.538 448.743 448.538C448.505 448.538 448.276 448.443 448.108 448.274C447.939 448.106 447.844 447.877 447.844 447.639V447.672ZM448.014 449.165H449.456V454.254H448.014V449.165Z" fill="black"/>
<path d="M455.884 451.235V454.102H454.442V451.472C454.442 450.658 454.069 450.285 453.424 450.285C452.78 450.285 452.22 450.709 452.22 451.625V454.102H450.778V449.012H452.169V449.606C452.388 449.381 452.652 449.205 452.945 449.091C453.238 448.976 453.552 448.927 453.865 448.945C454.158 448.93 454.451 448.981 454.721 449.095C454.991 449.209 455.233 449.383 455.427 449.603C455.621 449.823 455.763 450.084 455.842 450.367C455.921 450.649 455.935 450.946 455.884 451.235Z" fill="black"/>
</g>
<path d="M505.384 467.571H283.431V505.569H505.384V467.571Z" fill="#0077FF"/>
<path d="M365.736 492.473L363.022 488.555H362.208H358.985V492.507H357.119V479.496H362.208C365.601 479.496 367.619 481.192 367.619 484.042C367.662 484.945 367.406 485.836 366.891 486.579C366.376 487.321 365.63 487.872 364.769 488.148L367.857 492.507L365.736 492.473ZM365.736 483.991C365.736 482.125 364.498 481.074 362.106 481.074H358.951V486.926H362.106C364.447 486.943 365.685 485.857 365.685 484.008L365.736 483.991Z" fill="white"/>
<path d="M379.172 488.148H371.182C371.308 488.987 371.743 489.748 372.403 490.282C373.062 490.816 373.897 491.083 374.744 491.031C375.277 491.05 375.807 490.954 376.299 490.749C376.791 490.544 377.233 490.236 377.594 489.844L378.578 490.997C377.852 491.734 376.929 492.246 375.919 492.471C374.91 492.697 373.857 492.626 372.886 492.268C371.916 491.91 371.069 491.28 370.448 490.452C369.827 489.625 369.457 488.637 369.384 487.605C369.348 486.939 369.451 486.272 369.686 485.648C369.921 485.024 370.282 484.455 370.747 483.977C371.212 483.499 371.771 483.122 372.389 482.871C373.007 482.619 373.67 482.498 374.337 482.516C375 482.497 375.66 482.618 376.274 482.87C376.888 483.123 377.442 483.501 377.9 483.98C378.359 484.46 378.712 485.03 378.937 485.654C379.162 486.278 379.253 486.943 379.206 487.605C379.206 487.757 379.189 487.978 379.172 488.148ZM371.182 486.858H377.492C377.411 486.078 377.044 485.355 376.461 484.83C375.879 484.304 375.122 484.014 374.337 484.014C373.553 484.014 372.796 484.304 372.213 484.83C371.63 485.355 371.263 486.078 371.182 486.858Z" fill="white"/>
<path d="M391.113 482.635V491.117C391.113 494.594 389.332 496.206 386.024 496.206C384.336 496.278 382.675 495.763 381.325 494.747L382.173 493.373C383.259 494.216 384.599 494.665 385.973 494.645C388.297 494.645 389.366 493.576 389.366 491.337V490.557C388.927 491.061 388.381 491.459 387.767 491.724C387.153 491.988 386.488 492.111 385.821 492.084C384.556 492.084 383.344 491.581 382.45 490.687C381.556 489.794 381.054 488.581 381.054 487.317C381.054 486.053 381.556 484.84 382.45 483.946C383.344 483.052 384.556 482.55 385.821 482.55C386.519 482.529 387.212 482.671 387.845 482.966C388.479 483.26 389.034 483.699 389.468 484.246V482.72L391.113 482.635ZM389.417 487.3C389.454 486.622 389.287 485.949 388.938 485.367C388.589 484.785 388.073 484.321 387.457 484.036C386.841 483.75 386.154 483.656 385.484 483.765C384.814 483.874 384.192 484.181 383.699 484.647C383.206 485.114 382.863 485.717 382.717 486.38C382.57 487.042 382.625 487.734 382.876 488.365C383.126 488.996 383.56 489.537 384.121 489.919C384.682 490.3 385.345 490.505 386.024 490.506C386.458 490.532 386.893 490.468 387.301 490.317C387.709 490.167 388.082 489.934 388.396 489.633C388.709 489.332 388.958 488.969 389.125 488.568C389.292 488.166 389.374 487.735 389.366 487.3H389.417Z" fill="white"/>
<path d="M394.202 479.581C394.204 479.425 394.237 479.271 394.299 479.128C394.361 478.985 394.45 478.855 394.562 478.746C394.674 478.638 394.806 478.552 394.951 478.495C395.096 478.437 395.251 478.408 395.407 478.411C395.571 478.391 395.738 478.406 395.896 478.455C396.054 478.505 396.2 478.587 396.324 478.697C396.447 478.807 396.547 478.941 396.615 479.092C396.683 479.243 396.718 479.407 396.718 479.573C396.718 479.738 396.683 479.902 396.615 480.053C396.547 480.204 396.447 480.339 396.324 480.449C396.2 480.559 396.054 480.641 395.896 480.69C395.738 480.739 395.571 480.755 395.407 480.735C395.251 480.739 395.097 480.713 394.952 480.657C394.807 480.601 394.675 480.517 394.563 480.41C394.451 480.303 394.361 480.174 394.299 480.032C394.237 479.89 394.204 479.736 394.202 479.581ZM394.524 482.635H396.306V492.474H394.524V482.635Z" fill="white"/>
<path d="M398.461 491.439L399.207 490.031C400.218 490.687 401.395 491.04 402.6 491.049C404.296 491.049 404.941 490.54 404.941 489.709C404.941 487.503 398.715 489.42 398.715 485.485C398.715 483.788 400.293 482.533 402.821 482.533C404.072 482.513 405.307 482.823 406.4 483.432L405.637 484.84C404.79 484.307 403.804 484.036 402.804 484.06C401.243 484.06 400.48 484.636 400.48 485.417C400.48 487.741 406.722 485.841 406.722 489.675C406.722 491.371 405.026 492.592 402.464 492.592C401.045 492.613 399.652 492.212 398.461 491.439Z" fill="white"/>
<path d="M414.558 491.947C413.941 492.419 413.18 492.665 412.404 492.643C411.985 492.691 411.561 492.644 411.163 492.507C410.765 492.369 410.403 492.144 410.103 491.847C409.804 491.551 409.574 491.191 409.432 490.795C409.29 490.398 409.239 489.975 409.282 489.556V484.144H407.586V482.685H409.282V480.531H410.979V482.685H413.913V484.144H411.08V489.488C411.04 489.706 411.051 489.931 411.112 490.144C411.173 490.358 411.283 490.554 411.432 490.718C411.582 490.882 411.767 491.01 411.974 491.091C412.18 491.171 412.403 491.203 412.624 491.184C413.126 491.189 413.615 491.028 414.015 490.726L414.558 491.947Z" fill="white"/>
<path d="M425.247 488.148H417.308C417.433 488.99 417.871 489.754 418.534 490.288C419.197 490.822 420.037 491.088 420.887 491.032C421.417 491.052 421.945 490.956 422.434 490.751C422.924 490.546 423.362 490.236 423.72 489.844L424.704 490.998C423.98 491.736 423.058 492.25 422.049 492.476C421.039 492.703 419.986 492.633 419.016 492.274C418.046 491.915 417.2 491.284 416.581 490.455C415.962 489.627 415.596 488.637 415.526 487.605C415.491 486.939 415.594 486.273 415.829 485.648C416.063 485.024 416.424 484.455 416.89 483.977C417.355 483.499 417.914 483.122 418.532 482.871C419.15 482.619 419.813 482.498 420.48 482.516C421.142 482.5 421.801 482.623 422.413 482.876C423.026 483.129 423.579 483.507 424.037 483.986C424.495 484.465 424.848 485.034 425.074 485.657C425.3 486.28 425.393 486.944 425.348 487.605C425.331 487.789 425.297 487.97 425.247 488.148ZM417.308 486.858H423.635C423.537 486.089 423.162 485.381 422.579 484.868C421.997 484.354 421.247 484.071 420.471 484.071C419.695 484.071 418.946 484.354 418.363 484.868C417.781 485.381 417.405 486.089 417.308 486.858Z" fill="white"/>
<path d="M433.067 482.533V484.229H432.66C432.219 484.198 431.777 484.267 431.366 484.431C430.955 484.595 430.587 484.849 430.288 485.175C429.99 485.502 429.769 485.891 429.642 486.315C429.515 486.738 429.486 487.185 429.556 487.622V492.524H427.775V482.685H429.471V484.382C429.829 483.761 430.359 483.256 430.997 482.928C431.635 482.6 432.354 482.463 433.067 482.533Z" fill="white"/>
<g opacity="0.6">
<path d="M355.542 207.992L356.305 206.398C357.622 207.501 359.287 208.102 361.004 208.094C363.464 208.094 364.516 207.144 364.516 205.906C364.516 202.513 355.898 204.616 355.898 199.341C355.898 197.135 357.595 195.269 361.344 195.269C362.959 195.243 364.548 195.679 365.924 196.525L365.245 198.221C364.08 197.475 362.727 197.075 361.344 197.067C358.918 197.067 357.951 198.085 357.951 199.324C357.951 202.716 366.585 200.613 366.585 205.855C366.585 208.026 364.889 209.892 361.072 209.892C359.062 209.934 357.102 209.261 355.542 207.992Z" fill="#263238"/>
<path d="M368.86 195.49C368.862 195.319 368.898 195.15 368.966 194.994C369.034 194.837 369.132 194.695 369.255 194.577C369.379 194.459 369.524 194.366 369.683 194.304C369.842 194.242 370.012 194.213 370.183 194.218C370.352 194.211 370.52 194.237 370.678 194.296C370.836 194.355 370.981 194.445 371.104 194.56C371.227 194.675 371.326 194.814 371.395 194.967C371.464 195.121 371.502 195.287 371.506 195.456C371.506 195.807 371.367 196.143 371.119 196.391C370.871 196.64 370.534 196.779 370.183 196.779C369.832 196.779 369.496 196.64 369.247 196.391C368.999 196.143 368.86 195.807 368.86 195.456V195.49ZM369.199 198.883H371.167V209.671H369.199V198.883Z" fill="#263238"/>
<path d="M385.192 198.832V208.145C385.192 211.962 383.258 213.692 379.611 213.692C377.78 213.75 375.985 213.181 374.522 212.08L375.455 210.571C376.636 211.505 378.105 212.003 379.611 211.979C382.155 211.979 383.309 210.791 383.309 208.348V207.5C382.829 208.055 382.231 208.495 381.559 208.788C380.887 209.082 380.157 209.221 379.424 209.197C378.714 209.237 378.003 209.132 377.335 208.888C376.667 208.644 376.056 208.267 375.539 207.778C375.022 207.29 374.61 206.701 374.329 206.048C374.047 205.395 373.902 204.691 373.902 203.98C373.902 203.269 374.047 202.565 374.329 201.912C374.61 201.259 375.022 200.67 375.539 200.182C376.056 199.694 376.667 199.316 377.335 199.072C378.003 198.828 378.714 198.723 379.424 198.764C380.174 198.725 380.923 198.857 381.614 199.151C382.304 199.445 382.919 199.893 383.411 200.46V198.764L385.192 198.832ZM383.292 203.921C383.329 203.179 383.144 202.444 382.759 201.809C382.374 201.174 381.807 200.668 381.133 200.358C380.458 200.048 379.706 199.948 378.973 200.069C378.241 200.191 377.562 200.529 377.023 201.041C376.485 201.552 376.112 202.213 375.953 202.938C375.794 203.663 375.856 204.42 376.13 205.109C376.405 205.799 376.881 206.391 377.495 206.808C378.109 207.225 378.834 207.448 379.577 207.449C380.062 207.492 380.551 207.433 381.012 207.275C381.473 207.117 381.896 206.865 382.254 206.535C382.612 206.204 382.897 205.802 383.09 205.355C383.283 204.908 383.381 204.425 383.377 203.938L383.292 203.921Z" fill="#263238"/>
<path d="M399.172 203.412V209.62H397.204V203.564C397.204 201.444 396.153 200.409 394.304 200.409C393.834 200.378 393.363 200.451 392.925 200.623C392.486 200.795 392.091 201.061 391.767 201.403C391.444 201.744 391.199 202.153 391.051 202.6C390.903 203.047 390.855 203.521 390.911 203.988V209.552H388.96V198.764H390.843V200.46C391.306 199.885 391.901 199.431 392.577 199.135C393.254 198.84 393.991 198.712 394.728 198.764C395.34 198.722 395.953 198.816 396.525 199.038C397.097 199.26 397.613 199.605 398.037 200.048C398.461 200.492 398.782 201.023 398.978 201.604C399.174 202.185 399.241 202.802 399.172 203.412Z" fill="#263238"/>
<path d="M418.326 198.831V209.62H416.477V207.924C416.046 208.479 415.489 208.923 414.851 209.218C414.213 209.513 413.514 209.651 412.813 209.62C412.182 209.685 411.544 209.608 410.947 209.394C410.35 209.18 409.809 208.835 409.363 208.384C408.917 207.933 408.578 207.388 408.37 206.789C408.163 206.19 408.093 205.551 408.164 204.921V198.713H410.115V204.701C410.115 206.804 411.184 207.873 413.033 207.873C413.504 207.907 413.976 207.836 414.416 207.665C414.855 207.494 415.252 207.228 415.576 206.886C415.901 206.544 416.145 206.134 416.292 205.685C416.439 205.237 416.485 204.762 416.426 204.294V198.713L418.326 198.831Z" fill="#263238"/>
<path d="M433.217 204.226C433.256 204.954 433.142 205.683 432.882 206.365C432.623 207.046 432.225 207.666 431.712 208.185C431.2 208.704 430.584 209.11 429.906 209.378C429.228 209.646 428.501 209.769 427.772 209.739C427.056 209.767 426.343 209.629 425.689 209.334C425.036 209.04 424.46 208.598 424.006 208.043V213.607H422.055V198.883H423.921V200.579C424.369 199.988 424.953 199.515 425.624 199.199C426.294 198.883 427.031 198.733 427.772 198.764C428.497 198.732 429.22 198.852 429.896 199.116C430.572 199.38 431.186 199.781 431.698 200.295C432.211 200.809 432.61 201.424 432.872 202.101C433.133 202.777 433.251 203.501 433.217 204.226ZM431.25 204.226C431.216 203.517 430.976 202.833 430.558 202.259C430.14 201.685 429.564 201.247 428.899 200.997C428.234 200.748 427.511 200.699 426.819 200.856C426.127 201.013 425.496 201.37 425.004 201.882C424.513 202.394 424.182 203.039 424.053 203.737C423.924 204.435 424.003 205.156 424.28 205.81C424.556 206.464 425.018 207.022 425.609 207.416C426.199 207.81 426.892 208.022 427.602 208.026C428.097 208.036 428.589 207.944 429.046 207.755C429.503 207.565 429.917 207.283 430.259 206.926C430.602 206.569 430.867 206.145 431.037 205.68C431.208 205.215 431.28 204.72 431.25 204.226Z" fill="#263238"/>
</g>
<path d="M505.384 289.299H283.431V327.298H505.384V289.299Z" fill="white"/>
<g opacity="0.4">
<path d="M295.577 302.107H296.731V311.996H302.821V312.997H295.577V302.107Z" fill="#263238"/>
<path d="M310.709 307.925V313.014H309.657V311.742C309.348 312.196 308.925 312.56 308.431 312.799C307.937 313.037 307.388 313.141 306.841 313.099C304.992 313.099 303.855 312.132 303.855 310.707C303.855 309.282 304.653 308.4 307.01 308.4H309.606V307.908C309.606 306.5 308.809 305.737 307.282 305.737C306.291 305.724 305.327 306.067 304.568 306.704L304.059 305.873C305.027 305.122 306.227 304.732 307.452 304.77C307.883 304.718 308.321 304.763 308.733 304.901C309.145 305.04 309.52 305.269 309.832 305.571C310.145 305.873 310.385 306.242 310.537 306.649C310.688 307.056 310.747 307.492 310.709 307.925ZM309.606 310.538V309.198H307.044C305.45 309.198 304.941 309.825 304.941 310.673C304.941 311.522 305.704 312.2 307.01 312.2C307.563 312.234 308.113 312.091 308.579 311.792C309.046 311.494 309.405 311.054 309.606 310.538Z" fill="#263238"/>
<path d="M312.575 312.132L313.067 311.267C313.923 311.864 314.942 312.184 315.985 312.183C317.546 312.183 318.173 311.657 318.173 310.843C318.173 308.705 312.881 310.385 312.881 307.162C312.881 305.822 314.017 304.821 316.104 304.821C317.122 304.807 318.125 305.071 319.005 305.584L318.513 306.466C317.799 305.995 316.959 305.752 316.104 305.771C314.628 305.771 313.983 306.348 313.983 307.128C313.983 309.333 319.276 307.671 319.276 310.809C319.276 312.234 318.038 313.15 315.883 313.15C314.7 313.176 313.54 312.819 312.575 312.132Z" fill="#263238"/>
<path d="M325.706 312.505C325.224 312.888 324.625 313.092 324.01 313.082C323.687 313.117 323.361 313.079 323.055 312.971C322.749 312.863 322.471 312.688 322.241 312.459C322.012 312.229 321.837 311.951 321.729 311.645C321.621 311.339 321.583 311.013 321.618 310.69V305.754H320.142V304.821H321.618V303.023H322.72V304.821H325.197V305.754H322.72V310.639C322.691 310.835 322.707 311.034 322.766 311.223C322.825 311.411 322.927 311.584 323.062 311.727C323.198 311.871 323.364 311.982 323.549 312.052C323.733 312.122 323.932 312.15 324.128 312.132C324.574 312.146 325.008 311.995 325.35 311.708L325.706 312.505Z" fill="#263238"/>
<path d="M340.972 302.107V312.997H340.022L333.033 304.159V312.997H331.88V302.107H332.83L339.836 310.945V302.107H340.972Z" fill="#263238"/>
<path d="M350.538 307.925V313.014H349.452V311.742C349.146 312.198 348.724 312.565 348.229 312.803C347.734 313.042 347.184 313.144 346.636 313.099C344.787 313.099 343.651 312.132 343.651 310.707C343.651 309.282 344.465 308.4 346.823 308.4H349.452V307.908C349.452 306.5 348.655 305.737 347.128 305.737C346.137 305.724 345.174 306.067 344.414 306.704L343.905 305.872C344.872 305.118 346.073 304.728 347.298 304.77C347.728 304.72 348.164 304.767 348.574 304.907C348.983 305.047 349.357 305.276 349.667 305.578C349.977 305.88 350.216 306.247 350.367 306.653C350.518 307.059 350.576 307.494 350.538 307.925ZM349.435 310.537V309.197H346.857C345.279 309.197 344.77 309.825 344.77 310.673C344.77 311.521 345.534 312.2 346.84 312.2C347.396 312.238 347.949 312.097 348.419 311.797C348.889 311.498 349.251 311.057 349.452 310.537H349.435Z" fill="#263238"/>
<path d="M367.045 308.247V312.997H365.942V308.366C365.942 306.67 365.06 305.754 363.584 305.754C363.201 305.736 362.82 305.802 362.465 305.947C362.111 306.092 361.792 306.313 361.532 306.594C361.272 306.875 361.076 307.21 360.959 307.575C360.842 307.939 360.805 308.325 360.853 308.705V312.997H359.75V308.366C359.75 306.67 358.868 305.754 357.375 305.754C356.993 305.736 356.611 305.802 356.256 305.947C355.902 306.092 355.584 306.313 355.323 306.594C355.063 306.875 354.868 307.21 354.75 307.575C354.633 307.939 354.597 308.325 354.644 308.705V312.997H353.542V304.821H354.542V306.313C354.862 305.813 355.308 305.406 355.835 305.132C356.362 304.858 356.952 304.727 357.545 304.753C358.146 304.703 358.749 304.839 359.27 305.143C359.792 305.446 360.208 305.902 360.463 306.449C360.798 305.902 361.274 305.456 361.841 305.158C362.408 304.859 363.046 304.719 363.686 304.753C364.15 304.707 364.619 304.768 365.056 304.929C365.494 305.091 365.889 305.35 366.212 305.686C366.535 306.022 366.778 306.427 366.922 306.871C367.067 307.315 367.108 307.785 367.045 308.247Z" fill="#263238"/>
<path d="M377.207 309.249H370.421C370.445 309.648 370.547 310.038 370.722 310.397C370.897 310.757 371.142 311.078 371.441 311.343C371.741 311.608 372.089 311.811 372.467 311.94C372.846 312.07 373.246 312.124 373.644 312.098C374.115 312.114 374.584 312.026 375.018 311.841C375.451 311.657 375.84 311.38 376.155 311.03L376.766 311.742C376.178 312.356 375.422 312.783 374.593 312.97C373.764 313.157 372.898 313.096 372.104 312.793C371.309 312.491 370.621 311.962 370.126 311.271C369.631 310.58 369.35 309.759 369.319 308.909C369.291 308.369 369.374 307.829 369.563 307.322C369.753 306.815 370.044 306.353 370.419 305.963C370.795 305.574 371.246 305.265 371.745 305.057C372.245 304.849 372.781 304.745 373.322 304.753C373.862 304.743 374.399 304.844 374.898 305.052C375.396 305.26 375.847 305.569 376.22 305.959C376.593 306.35 376.881 306.814 377.066 307.322C377.25 307.83 377.327 308.37 377.292 308.909C377.224 309.011 377.207 309.13 377.207 309.249ZM370.421 308.434H376.223C376.223 307.665 375.917 306.927 375.373 306.383C374.829 305.839 374.092 305.533 373.322 305.533C372.553 305.533 371.815 305.839 371.271 306.383C370.727 306.927 370.421 307.665 370.421 308.434Z" fill="#263238"/>
</g>
<path d="M505.384 237.39H283.431V275.389H505.384V237.39Z" fill="white"/>
<g opacity="0.4">
<path d="M296.731 251.198V255.473H302.363V256.474H296.731V261.088H295.577V250.198H303.041V251.198H296.731Z" fill="#263238"/>
<path d="M304.789 250.316C304.785 250.154 304.83 249.994 304.919 249.858C305.007 249.721 305.134 249.614 305.283 249.55C305.433 249.487 305.598 249.469 305.757 249.5C305.917 249.531 306.063 249.609 306.178 249.724C306.293 249.839 306.371 249.985 306.402 250.145C306.433 250.304 306.415 250.469 306.352 250.619C306.288 250.768 306.181 250.895 306.044 250.983C305.908 251.072 305.748 251.117 305.586 251.114C305.374 251.114 305.172 251.03 305.022 250.88C304.873 250.731 304.789 250.528 304.789 250.316ZM305.026 252.912H306.129V261.088H305.026V252.912Z" fill="#263238"/>
<path d="M313.337 252.844V253.913H313.065C312.675 253.894 312.286 253.961 311.926 254.11C311.565 254.259 311.242 254.486 310.979 254.775C310.717 255.063 310.521 255.406 310.407 255.779C310.292 256.152 310.261 256.546 310.317 256.932V261.105H309.214V252.929H310.266V254.455C310.559 253.912 311.008 253.468 311.555 253.181C312.102 252.894 312.723 252.777 313.337 252.844Z" fill="#263238"/>
<path d="M314.254 260.155L314.746 259.273C315.594 259.888 316.617 260.215 317.664 260.206C319.225 260.206 319.852 259.663 319.852 258.866C319.852 256.728 314.559 258.408 314.559 255.168C314.559 253.845 315.696 252.844 317.783 252.844C318.802 252.822 319.807 253.086 320.683 253.607L320.191 254.489C319.478 254.018 318.638 253.775 317.783 253.794C316.307 253.794 315.662 254.37 315.662 255.151C315.662 257.356 320.955 255.694 320.955 258.832C320.955 260.24 319.716 261.156 317.562 261.156C316.38 261.187 315.22 260.836 314.254 260.155Z" fill="#263238"/>
<path d="M327.402 260.596C326.914 260.967 326.317 261.164 325.705 261.156C325.384 261.194 325.058 261.158 324.751 261.053C324.445 260.947 324.167 260.773 323.937 260.545C323.707 260.317 323.532 260.04 323.424 259.734C323.316 259.429 323.278 259.103 323.313 258.781V253.845H321.838V252.912H323.313V251.063H324.416V252.861H326.893V253.794H324.416V258.662C324.388 258.858 324.404 259.058 324.463 259.248C324.522 259.437 324.623 259.61 324.758 259.755C324.893 259.9 325.059 260.013 325.244 260.085C325.428 260.157 325.627 260.187 325.824 260.172C326.268 260.178 326.7 260.028 327.045 259.748L327.402 260.596Z" fill="#263238"/>
<path d="M342.669 250.198V261.088H341.719L334.73 252.25V261.088H333.577V250.198H334.527L341.533 259.036V250.198H342.669Z" fill="#263238"/>
<path d="M352.219 256.016V261.105H351.15V259.833C350.846 260.286 350.426 260.649 349.934 260.885C349.442 261.121 348.895 261.22 348.351 261.173C346.485 261.173 345.349 260.223 345.349 258.798C345.349 257.373 346.163 256.491 348.521 256.491H351.15V255.982C351.15 254.591 350.353 253.828 348.826 253.828C347.835 253.815 346.872 254.158 346.112 254.795L345.603 253.963C346.571 253.21 347.771 252.82 348.996 252.861C349.426 252.811 349.861 252.857 350.27 252.997C350.679 253.137 351.052 253.367 351.361 253.669C351.67 253.972 351.907 254.339 352.056 254.745C352.204 255.151 352.26 255.586 352.219 256.016ZM351.117 258.628V257.288H348.538C346.96 257.288 346.452 257.916 346.452 258.747C346.452 259.578 347.215 260.291 348.521 260.291C349.079 260.33 349.635 260.189 350.108 259.89C350.581 259.591 350.946 259.149 351.15 258.628H351.117Z" fill="#263238"/>
<path d="M368.724 256.338V261.088H367.621V256.457C367.621 254.761 366.739 253.845 365.263 253.845C364.88 253.827 364.498 253.893 364.144 254.038C363.79 254.183 363.471 254.404 363.211 254.685C362.951 254.967 362.755 255.301 362.638 255.666C362.521 256.03 362.484 256.416 362.532 256.796V261.088H361.429V256.457C361.429 254.761 360.547 253.845 359.054 253.845C358.672 253.827 358.29 253.893 357.935 254.038C357.581 254.183 357.262 254.404 357.002 254.685C356.742 254.967 356.547 255.301 356.429 255.666C356.312 256.03 356.276 256.416 356.323 256.796V261.088H355.22V252.912H356.238V254.455C356.558 253.955 357.004 253.548 357.531 253.274C358.058 253 358.648 252.869 359.241 252.895C359.842 252.845 360.444 252.981 360.966 253.285C361.488 253.588 361.904 254.044 362.159 254.591C362.491 254.042 362.966 253.594 363.534 253.295C364.102 252.996 364.741 252.858 365.382 252.895C365.84 252.854 366.301 252.915 366.732 253.075C367.164 253.235 367.554 253.49 367.874 253.82C368.194 254.15 368.437 254.547 368.584 254.983C368.731 255.419 368.779 255.882 368.724 256.338Z" fill="#263238"/>
<path d="M378.884 257.339H372.099C372.123 257.738 372.225 258.129 372.4 258.488C372.575 258.848 372.819 259.169 373.119 259.434C373.418 259.698 373.767 259.901 374.145 260.031C374.523 260.161 374.923 260.215 375.322 260.189C375.795 260.205 376.265 260.115 376.699 259.928C377.133 259.74 377.52 259.459 377.833 259.104L378.443 259.833C377.855 260.447 377.1 260.874 376.271 261.061C375.441 261.248 374.575 261.186 373.781 260.884C372.987 260.582 372.299 260.053 371.804 259.362C371.308 258.671 371.027 257.85 370.996 257C370.968 256.46 371.052 255.92 371.241 255.413C371.43 254.906 371.722 254.444 372.097 254.054C372.472 253.664 372.923 253.356 373.423 253.148C373.922 252.94 374.459 252.836 375 252.844C375.54 252.833 376.076 252.935 376.575 253.143C377.074 253.35 377.524 253.659 377.897 254.05C378.271 254.441 378.558 254.905 378.743 255.413C378.927 255.92 379.005 256.461 378.969 257C378.901 257.085 378.884 257.204 378.884 257.339ZM372.099 256.508H377.9C377.9 255.739 377.595 255.001 377.051 254.457C376.507 253.913 375.769 253.607 375 253.607C374.23 253.607 373.493 253.913 372.948 254.457C372.404 255.001 372.099 255.739 372.099 256.508Z" fill="#263238"/>
</g>
<path d="M199.917 560.277H198.306C198.306 557.886 200.29 501.837 210.045 492.423C220.07 482.668 231.86 492.287 231.962 492.423L230.944 493.644C230.503 493.288 220.138 484.874 211.147 493.644C201.868 502.482 199.934 559.701 199.917 560.277Z" fill="#0077FF"/>
<path d="M199.101 571.524L197.506 571.372C197.506 570.693 203.817 503.313 179.406 475.289L180.61 474.238C205.479 502.787 199.168 570.846 199.101 571.524Z" fill="#0077FF"/>
<path d="M199.884 564.332C199.68 561.143 194.982 486.299 213.743 468.996L214.829 470.183C196.627 486.91 201.428 563.484 201.479 564.213L199.884 564.332Z" fill="#0077FF"/>
<path d="M197.508 564.281C197.508 563.772 196.931 513.39 183.581 505.807C182.446 505.058 181.148 504.594 179.795 504.452C178.443 504.31 177.077 504.496 175.811 504.993C167.991 508.233 163.835 523.161 163.784 523.313L162.24 522.889C162.41 522.245 166.651 507.062 175.201 503.517C176.69 502.918 178.302 502.688 179.899 502.844C181.497 503.001 183.033 503.54 184.378 504.416C198.509 512.508 199.103 562.092 199.12 564.264L197.508 564.281Z" fill="#0077FF"/>
<path d="M203.006 564.315C202.904 562.619 200.851 524.552 211.657 510.421C214.541 506.672 217.73 504.891 221.191 505.146C228.875 505.671 234.762 516.087 235.084 516.528L233.693 517.325C233.693 517.224 227.892 507.147 221.072 506.74C218.205 506.52 215.457 508.097 212.93 511.405C202.48 524.976 204.583 563.84 204.6 564.23L203.006 564.315Z" fill="#0077FF"/>
<path d="M200.847 569.591L199.253 569.472C199.253 568.556 206.038 477.664 194.842 462.499L196.132 461.549C207.701 477.189 201.136 565.825 200.847 569.591Z" fill="#0077FF"/>
<path d="M172.096 512.559C172.096 512.559 179.017 515.12 176.964 521.142C174.911 527.164 152.994 537.088 152.994 537.088C152.994 537.088 143.817 528.691 152.248 515.035C160.679 501.38 171.909 508.25 172.096 512.559Z" fill="#0077FF"/>
<path opacity="0.2" d="M172.096 512.559C172.096 512.559 179.017 515.12 176.964 521.142C174.911 527.164 152.994 537.088 152.994 537.088C152.994 537.088 143.817 528.691 152.248 515.035C160.679 501.38 171.909 508.25 172.096 512.559Z" fill="black"/>
<path d="M202.205 501.091C202.205 501.091 194.826 500.786 194.401 507.13C193.977 513.475 210.347 531.083 210.347 531.083C210.347 531.083 222.052 526.842 219.542 510.981C217.031 495.12 204.037 497.172 202.205 501.091Z" fill="#0077FF"/>
<path opacity="0.2" d="M202.205 501.091C202.205 501.091 194.826 500.786 194.401 507.13C193.977 513.475 210.347 531.083 210.347 531.083C210.347 531.083 222.052 526.842 219.542 510.981C217.031 495.12 204.037 497.172 202.205 501.091Z" fill="black"/>
<path d="M208.449 470.658C208.449 470.658 203.53 470.132 203.92 467.147C204.31 464.161 223.038 456.442 234.081 468.843C234.081 468.843 227.007 480.989 216.795 481.159C206.583 481.328 208.449 470.658 208.449 470.658Z" fill="#0077FF"/>
<path opacity="0.2" d="M208.449 470.658C208.449 470.658 203.53 470.132 203.92 467.147C204.31 464.161 223.038 456.442 234.081 468.843C234.081 468.843 227.007 480.989 216.795 481.159C206.583 481.328 208.449 470.658 208.449 470.658Z" fill="black"/>
<path d="M199.289 463.381C199.289 463.381 203.734 465.535 204.989 462.787C206.244 460.039 194.421 443.601 178.458 448.334C178.458 448.334 178.034 462.38 186.617 467.927C195.201 473.474 199.289 463.381 199.289 463.381Z" fill="#0077FF"/>
<path opacity="0.2" d="M199.289 463.381C199.289 463.381 203.734 465.535 204.989 462.787C206.244 460.039 194.421 443.601 178.458 448.334C178.458 448.334 178.034 462.38 186.617 467.927C195.201 473.474 199.289 463.381 199.289 463.381Z" fill="black"/>
<path d="M222.562 510.15C222.562 510.15 219.169 507.402 222.833 506.062C226.497 504.721 244.462 505.112 244.648 522.906C244.648 522.906 223.715 526.384 221.137 519.599C218.558 512.813 222.562 510.15 222.562 510.15Z" fill="#0077FF"/>
<path opacity="0.2" d="M222.562 510.15C222.562 510.15 219.169 507.402 222.833 506.062C226.497 504.721 244.462 505.112 244.648 522.906C244.648 522.906 223.715 526.384 221.137 519.599C218.558 512.813 222.562 510.15 222.562 510.15Z" fill="black"/>
<path d="M179.816 470.217C179.816 470.217 183.209 467.469 179.545 466.146C175.88 464.823 157.916 465.179 157.729 482.974C157.729 482.974 178.662 486.468 181.241 479.683C183.819 472.897 179.816 470.217 179.816 470.217Z" fill="#0077FF"/>
<path opacity="0.2" d="M179.816 470.217C179.816 470.217 183.209 467.469 179.545 466.146C175.88 464.823 157.916 465.179 157.729 482.974C157.729 482.974 178.662 486.468 181.241 479.683C183.819 472.897 179.816 470.217 179.816 470.217Z" fill="black"/>
<path d="M190.943 484.551C190.943 484.551 191.249 481.159 188.551 482.533C185.854 483.907 176.507 493.949 186.21 503.534C186.21 503.534 199.29 493.848 196.932 488.809C194.574 483.771 190.943 484.551 190.943 484.551Z" fill="#0077FF"/>
<path opacity="0.2" d="M190.943 484.551C190.943 484.551 191.249 481.159 188.551 482.533C185.854 483.907 176.507 493.949 186.21 503.534C186.21 503.534 199.29 493.848 196.932 488.809C194.574 483.771 190.943 484.551 190.943 484.551Z" fill="black"/>
<path d="M225.616 489.301C225.616 489.301 223.58 486.638 226.566 486.316C229.552 485.993 242.851 489.539 239.747 502.838C239.747 502.838 223.529 501.617 222.783 496.053C222.037 490.489 225.616 489.301 225.616 489.301Z" fill="#0077FF"/>
<path opacity="0.2" d="M225.616 489.301C225.616 489.301 223.58 486.638 226.566 486.316C229.552 485.993 242.851 489.539 239.747 502.838C239.747 502.838 223.529 501.617 222.783 496.053C222.037 490.489 225.616 489.301 225.616 489.301Z" fill="black"/>
<path d="M173.301 613.611H225.736L232.708 562.619H166.329L173.301 613.611Z" fill="#263238"/>
<path opacity="0.2" d="M173.301 613.611H225.736L232.708 562.619H166.329L173.301 613.611Z" fill="white"/>
<path d="M239.289 558.48V563.331C239.289 564.888 238.67 566.381 237.569 567.481C236.469 568.582 234.976 569.201 233.419 569.201H164.971C163.414 569.201 161.921 568.582 160.82 567.481C159.719 566.381 159.101 564.888 159.101 563.331V558.48H239.289Z" fill="#263238"/>
<path d="M676.207 75.1662H627.47C623.493 75.1662 619.679 76.7461 616.866 79.5584C614.054 82.3707 612.474 86.1849 612.474 90.1621V132.571C612.472 134.542 612.858 136.494 613.611 138.315C614.363 140.137 615.468 141.792 616.86 143.186C618.253 144.58 619.907 145.686 621.727 146.441C623.548 147.196 625.499 147.584 627.47 147.584H641.703L638.31 160.969L651.881 147.584H676.292C680.273 147.584 684.092 146.003 686.907 143.187C689.723 140.372 691.305 136.553 691.305 132.571V90.1621C691.305 88.1842 690.913 86.2259 690.153 84.3998C689.393 82.5738 688.28 80.9161 686.876 79.5222C685.473 78.1284 683.808 77.0259 681.977 76.2783C680.146 75.5307 678.185 75.1528 676.207 75.1662Z" fill="#0077FF"/>
<path opacity="0.7" d="M676.207 75.1662H627.47C623.493 75.1662 619.679 76.7461 616.866 79.5584C614.054 82.3707 612.474 86.1849 612.474 90.1621V132.571C612.472 134.542 612.858 136.494 613.611 138.315C614.363 140.137 615.468 141.792 616.86 143.186C618.253 144.58 619.907 145.686 621.727 146.441C623.548 147.196 625.499 147.584 627.47 147.584H641.703L638.31 160.969L651.881 147.584H676.292C680.273 147.584 684.092 146.003 686.907 143.187C689.723 140.372 691.305 136.553 691.305 132.571V90.1621C691.305 88.1842 690.913 86.2259 690.153 84.3998C689.393 82.5738 688.28 80.9161 686.876 79.5222C685.473 78.1284 683.808 77.0259 681.977 76.2783C680.146 75.5307 678.185 75.1528 676.207 75.1662Z" fill="white"/>
<path d="M651.846 130.112C662.292 130.112 670.76 121.643 670.76 111.197C670.76 100.751 662.292 92.2825 651.846 92.2825C641.4 92.2825 632.931 100.751 632.931 111.197C632.931 121.643 641.4 130.112 651.846 130.112Z" fill="white"/>
<path d="M651.848 87.0067C647.063 87.0067 642.386 88.4255 638.408 91.0835C634.43 93.7416 631.33 97.5196 629.499 101.94C627.668 106.36 627.189 111.224 628.122 115.916C629.055 120.609 631.359 124.919 634.742 128.302C638.126 131.685 642.436 133.989 647.128 134.922C651.821 135.856 656.685 135.377 661.105 133.546C665.525 131.715 669.303 128.614 671.961 124.636C674.619 120.658 676.038 115.981 676.038 111.197C676.04 108.02 675.416 104.873 674.201 101.937C672.986 99.0012 671.204 96.3336 668.958 94.0869C666.711 91.8402 664.043 90.0584 661.107 88.8436C658.171 87.6287 655.025 87.0045 651.848 87.0067ZM665.571 103.97L650.999 121.138C650.792 121.386 650.533 121.585 650.239 121.72C649.946 121.855 649.626 121.922 649.303 121.918C648.98 121.92 648.661 121.851 648.368 121.716C648.075 121.581 647.815 121.384 647.607 121.138L638.124 109.959C637.924 109.738 637.77 109.478 637.672 109.197C637.574 108.915 637.533 108.616 637.553 108.319C637.573 108.021 637.652 107.73 637.787 107.464C637.921 107.198 638.108 106.961 638.336 106.769C638.564 106.576 638.828 106.432 639.113 106.343C639.398 106.255 639.698 106.225 639.995 106.255C640.292 106.285 640.579 106.375 640.841 106.519C641.102 106.662 641.332 106.857 641.517 107.092L649.303 116.269L662.178 101.104C662.565 100.677 663.103 100.417 663.677 100.379C664.252 100.34 664.819 100.527 665.259 100.899C665.699 101.27 665.978 101.798 666.036 102.372C666.094 102.945 665.927 103.518 665.571 103.97Z" fill="#0077FF"/>
<path d="M667.761 336.832C667.761 336.832 638.227 333.1 593.476 345.313C593.476 345.313 586.284 265.347 587.132 254.354C587.98 243.362 656.225 246.585 656.225 246.585C656.225 246.585 657.922 278.595 662.366 297.9C666.811 317.205 670.068 333.117 667.761 336.832Z" fill="#0077FF"/>
<path opacity="0.2" d="M667.761 336.832C667.761 336.832 638.227 333.1 593.476 345.313C593.476 345.313 586.284 265.347 587.132 254.354C587.98 243.362 656.225 246.585 656.225 246.585C656.225 246.585 657.922 278.595 662.366 297.9C666.811 317.205 670.068 333.117 667.761 336.832Z" fill="black"/>
<path d="M571.899 601.567L583.943 604.977L586.81 586.232L588.353 576.206L576.309 572.797L574.257 586.232L571.899 601.567Z" fill="#E4897B"/>
<path d="M641.143 602.551L653.56 604.197L653.679 586.232L653.764 575.07L641.33 573.442L641.245 586.232L641.143 602.551Z" fill="#E4897B"/>
<path opacity="0.2" d="M641.329 573.442L641.244 586.232H653.679L653.763 575.07L641.329 573.442Z" fill="black"/>
<path opacity="0.2" d="M574.257 586.232H586.81L588.354 576.206L576.31 572.797L574.257 586.232Z" fill="black"/>
<path d="M518.428 260.919L506.469 257.39L508.657 271.046C508.657 271.046 519.514 273.54 520.532 267.891L518.428 260.919Z" fill="#E4897B"/>
<path d="M494.526 260.563L500.396 271.657L508.657 271.046L506.469 257.39L494.526 260.563Z" fill="#E4897B"/>
<path d="M534.932 264.413L515.288 260.02L513.507 269.553L531.336 273.896L534.932 264.413Z" fill="#E4897B"/>
<path d="M594.357 255.796L593.204 257.17C590.727 260.071 584.722 267.077 578.462 273.116C573.373 278.035 568.284 282.327 564.891 283.192C555.273 285.669 520.311 275.372 520.311 275.372L523.924 261.19C523.924 261.19 556.494 265.516 559.022 265.516C560.939 265.516 580.752 236.813 585.553 234.455L594.357 255.796Z" fill="#0077FF"/>
<path opacity="0.2" d="M593.204 257.17C590.727 260.071 584.722 267.077 578.463 273.116C579.718 263.175 583.365 254.049 588.166 248.281C588.613 247.724 589.126 247.223 589.693 246.788L593.204 257.17Z" fill="black"/>
<path d="M572.049 599.684L585.722 599.328C585.969 599.32 586.21 599.396 586.408 599.544C586.605 599.692 586.746 599.903 586.808 600.142L589.691 611.151C589.76 611.415 589.769 611.691 589.717 611.958C589.665 612.226 589.553 612.478 589.39 612.696C589.227 612.914 589.017 613.093 588.776 613.219C588.534 613.346 588.267 613.416 587.995 613.425C583.059 613.425 575.917 613.425 569.725 613.543C562.465 613.747 557.851 613.391 549.369 613.543C544.28 613.679 542.583 608.556 544.755 608.03C554.475 605.621 560.836 606.096 569.115 600.668C569.988 600.085 571.001 599.746 572.049 599.684Z" fill="#263238"/>
<path d="M570.863 601.449C568.861 601.89 565.299 602.483 563.874 601.313C563.666 601.141 563.503 600.922 563.396 600.674C563.29 600.426 563.245 600.157 563.263 599.888C563.263 599.726 563.305 599.568 563.385 599.428C563.466 599.288 563.582 599.171 563.721 599.091C565.231 598.192 570.337 600.617 570.931 600.889C570.983 600.917 571.026 600.958 571.056 601.009C571.086 601.06 571.101 601.118 571.101 601.177C571.098 601.243 571.073 601.305 571.03 601.355C570.986 601.404 570.928 601.437 570.863 601.449ZM564.078 599.566H563.976C563.919 599.598 563.872 599.645 563.839 599.702C563.807 599.758 563.789 599.823 563.789 599.888C563.775 600.063 563.803 600.239 563.871 600.402C563.939 600.564 564.045 600.708 564.179 600.821C564.977 601.482 567.046 601.55 569.794 601.007C567.81 600.176 565.045 599.209 564.112 599.566H564.078Z" fill="#0077FF"/>
<path d="M570.862 601.448H570.659C569.115 600.804 566.028 598.191 566.197 596.783C566.197 596.444 566.469 596.02 567.283 595.918C567.582 595.879 567.886 595.9 568.177 595.978C568.468 596.057 568.741 596.192 568.979 596.376C570.676 597.649 571.066 600.99 571.1 601.126C571.105 601.178 571.096 601.23 571.075 601.277C571.055 601.325 571.022 601.366 570.981 601.398L570.862 601.448ZM567.062 596.58C566.808 596.665 566.791 596.8 566.791 596.851C566.689 597.7 568.793 599.769 570.37 600.651C570.188 599.226 569.559 597.896 568.572 596.851C568.405 596.711 568.209 596.607 567.998 596.549C567.788 596.49 567.567 596.478 567.351 596.512C567.252 596.521 567.155 596.544 567.062 596.58Z" fill="#0077FF"/>
<path d="M641.635 599.684L655.307 599.328C655.556 599.319 655.8 599.395 656.001 599.543C656.201 599.691 656.345 599.902 656.41 600.142L659.277 611.152C659.349 611.415 659.36 611.692 659.31 611.961C659.259 612.23 659.147 612.483 658.984 612.702C658.82 612.922 658.609 613.101 658.366 613.226C658.122 613.351 657.854 613.419 657.58 613.425C652.644 613.425 645.502 613.425 639.294 613.543C632.05 613.747 627.419 613.391 618.937 613.543C613.848 613.679 612.152 608.556 614.323 608.03C624.043 605.621 630.388 606.096 638.666 600.668C639.549 600.08 640.575 599.74 641.635 599.684Z" fill="#263238"/>
<path d="M640.464 601.449C638.462 601.89 634.883 602.483 633.475 601.313C633.267 601.141 633.104 600.922 632.998 600.674C632.891 600.426 632.846 600.157 632.864 599.888C632.864 599.726 632.906 599.568 632.986 599.428C633.067 599.288 633.183 599.171 633.322 599.091C634.815 598.192 639.938 600.617 640.515 600.889C640.571 600.911 640.619 600.951 640.65 601.004C640.68 601.056 640.693 601.117 640.685 601.177C640.68 601.24 640.657 601.299 640.617 601.348C640.578 601.396 640.524 601.431 640.464 601.449ZM633.679 599.566H633.577C633.521 599.598 633.475 599.645 633.445 599.702C633.415 599.759 633.402 599.824 633.407 599.888C633.39 600.064 633.417 600.241 633.485 600.403C633.553 600.566 633.66 600.71 633.797 600.821C634.595 601.482 636.647 601.55 639.412 601.007C637.394 600.176 634.629 599.209 633.696 599.566H633.679Z" fill="#0077FF"/>
<path d="M640.464 601.449H640.243C638.716 600.804 635.612 598.191 635.799 596.783C635.799 596.444 636.053 596.02 636.867 595.918C637.166 595.877 637.471 595.897 637.762 595.975C638.053 596.054 638.326 596.19 638.564 596.376C639.751 597.699 640.492 599.36 640.684 601.126C640.693 601.178 640.686 601.231 640.665 601.28C640.644 601.328 640.609 601.369 640.565 601.398L640.464 601.449ZM636.647 596.58C636.409 596.665 636.392 596.8 636.392 596.851C636.274 597.7 638.394 599.769 639.972 600.651C639.778 599.23 639.15 597.903 638.174 596.851C638.006 596.712 637.81 596.609 637.599 596.551C637.389 596.492 637.168 596.479 636.952 596.512L636.647 596.58Z" fill="#0077FF"/>
<path d="M666.757 329.537C673.339 358.053 662.041 582.398 662.041 582.398H640.226L630.896 395.441L596.545 582.398L573.219 580.702C588.487 435.865 601.939 349.401 601.939 349.401V338.477L666.757 329.537Z" fill="#263238"/>
<path opacity="0.4" d="M573.219 580.702L596.545 582.398L623.585 435.221L630.896 395.441L640.226 582.398H662.041C662.041 582.398 673.339 358.053 666.757 329.537L601.905 338.477V349.401C601.905 349.401 588.47 435.865 573.219 580.702Z" fill="white"/>
<path d="M655.002 223.921C654.333 237.555 654.679 251.22 656.037 264.804C656.953 274.303 658.208 283.277 659.548 291.369C662.686 310.351 666.249 324.584 666.758 329.554L601.905 338.494C578.258 272.335 587.164 233.896 587.164 233.896C592.013 231.893 596.982 230.194 602.041 228.807C603.11 228.518 604.195 228.247 605.315 227.992C614.424 226.2 623.627 224.931 632.881 224.192C634.577 224.04 636.426 223.921 638.157 223.836C647.012 223.395 655.002 223.921 655.002 223.921Z" fill="#263238"/>
<path d="M620.293 194.15C620.768 203.225 621.735 220.257 629.284 224.583C629.284 224.583 624.585 233.522 614.424 234.439C606.739 235.117 607.248 227.534 607.248 227.534C611.692 224.226 610.641 218.611 607.248 212.267L620.293 194.15Z" fill="#E4897B"/>
<path opacity="0.2" d="M614.97 201.546L607.302 212.267C608.109 213.733 608.79 215.265 609.338 216.847C612.9 215.422 616.989 210.062 616.395 206.177C616.209 204.559 615.726 202.989 614.97 201.546Z" fill="black"/>
<path d="M587.215 175.88C585.739 180.595 586.553 190.265 593.118 187.127C599.683 183.988 589.759 167.788 587.215 175.88Z" fill="#263238"/>
<path d="M621.142 182.258C621.871 194.353 622.838 201.393 617.562 208.246C609.538 218.543 594 214.71 589.657 203.039C585.755 192.521 585.229 174.506 596.442 168.399C598.928 167.046 601.716 166.347 604.545 166.365C607.375 166.384 610.153 167.12 612.621 168.504C615.089 169.889 617.165 171.877 618.655 174.282C620.145 176.688 621.001 179.432 621.142 182.258Z" fill="#E4897B"/>
<path d="M612.661 175.676V162.105C612.661 162.105 627.047 161.036 626.402 168.398C634.375 172.351 630.609 184.751 619.905 190.824C614.035 186.125 614.714 174.828 614.714 174.828C614.086 175.15 613.374 175.421 612.661 175.676Z" fill="#263238"/>
<path d="M626.995 191.69C626.718 193.17 626.148 194.579 625.317 195.834C624.487 197.09 623.414 198.167 622.161 199.001C618.768 201.224 615.833 198.492 615.714 194.676C615.613 191.283 617.224 185.922 621.126 185.244C621.979 185.111 622.852 185.191 623.667 185.478C624.482 185.765 625.212 186.25 625.794 186.889C626.375 187.527 626.79 188.3 626.999 189.138C627.209 189.976 627.208 190.853 626.995 191.69Z" fill="#E4897B"/>
<path d="M603.281 187.653C603.4 188.637 602.976 189.485 602.331 189.553C601.687 189.62 601.076 188.891 600.957 187.856C600.838 186.821 601.263 186.024 601.89 185.956C602.518 185.888 603.162 186.601 603.281 187.653Z" fill="#263238"/>
<path d="M592.185 188.891C592.304 189.875 591.88 190.723 591.235 190.791C590.591 190.859 589.98 190.129 589.861 189.094C589.742 188.06 590.167 187.262 590.811 187.194C591.456 187.127 592.033 187.907 592.185 188.891Z" fill="#263238"/>
<path d="M595.766 188.976C594.909 192.009 593.636 194.909 591.983 197.593C592.715 197.969 593.518 198.186 594.339 198.23C595.161 198.274 595.982 198.144 596.75 197.848L595.766 188.976Z" fill="#DE5753"/>
<path d="M602.466 201.003C602.047 201.11 601.622 201.189 601.194 201.24C601.117 201.24 601.044 201.21 600.99 201.156C600.936 201.102 600.905 201.028 600.905 200.952C600.905 200.876 600.936 200.802 600.99 200.748C601.044 200.694 601.117 200.664 601.194 200.664C602.412 200.553 603.587 200.158 604.624 199.509C605.661 198.861 606.532 197.978 607.165 196.932C607.179 196.897 607.201 196.866 607.228 196.841C607.255 196.815 607.287 196.795 607.322 196.783C607.357 196.77 607.394 196.764 607.431 196.767C607.469 196.769 607.505 196.779 607.538 196.796C607.573 196.812 607.604 196.835 607.63 196.864C607.656 196.893 607.676 196.926 607.688 196.962C607.701 196.999 607.706 197.037 607.704 197.076C607.701 197.114 607.691 197.152 607.674 197.186C607.119 198.15 606.369 198.987 605.473 199.644C604.576 200.301 603.552 200.764 602.466 201.003Z" fill="#263238"/>
<path d="M606.268 183.7C606.165 183.724 606.058 183.721 605.957 183.691C605.856 183.661 605.764 183.606 605.691 183.53C605.2 182.992 604.59 182.575 603.91 182.313C603.229 182.051 602.498 181.951 601.772 182.021C601.697 182.038 601.62 182.039 601.544 182.025C601.469 182.011 601.397 181.982 601.333 181.939C601.27 181.896 601.216 181.84 601.174 181.776C601.133 181.711 601.106 181.638 601.094 181.562C601.079 181.488 601.079 181.411 601.094 181.336C601.109 181.262 601.139 181.191 601.181 181.128C601.224 181.065 601.279 181.011 601.342 180.969C601.406 180.927 601.477 180.898 601.552 180.884C602.468 180.775 603.396 180.886 604.261 181.207C605.125 181.529 605.9 182.052 606.522 182.733C606.578 182.785 606.622 182.848 606.652 182.918C606.682 182.988 606.698 183.064 606.698 183.14C606.698 183.216 606.682 183.292 606.652 183.362C606.622 183.432 606.578 183.495 606.522 183.547C606.45 183.616 606.363 183.668 606.268 183.7Z" fill="#263238"/>
<path d="M586.944 185.617C586.834 185.658 586.714 185.658 586.604 185.617C586.461 185.567 586.343 185.462 586.276 185.325C586.21 185.189 586.199 185.031 586.248 184.887C586.528 184.014 587.016 183.222 587.669 182.578C588.321 181.934 589.12 181.457 589.997 181.189C590.146 181.151 590.303 181.173 590.435 181.251C590.567 181.329 590.663 181.456 590.701 181.605C590.739 181.753 590.717 181.911 590.639 182.043C590.561 182.175 590.434 182.271 590.286 182.309C589.592 182.523 588.962 182.904 588.45 183.418C587.938 183.933 587.561 184.566 587.351 185.26C587.319 185.349 587.264 185.429 587.193 185.491C587.122 185.553 587.036 185.597 586.944 185.617Z" fill="#263238"/>
<path d="M619.041 180.698C619.041 180.698 610.559 177.593 606.692 172.674C606.692 172.674 598.99 174.692 597.412 177.763C596.693 177.146 596.227 176.285 596.105 175.345C595.982 174.405 596.213 173.454 596.751 172.674C596.751 172.674 590.983 173.895 589.847 177.763C588.909 177.317 588.14 176.581 587.651 175.665C587.163 174.749 586.981 173.701 587.132 172.674C587.132 172.674 584.571 173.641 583.74 177.763C583.74 177.763 577.378 164.497 598.396 160.697C596.806 160.158 595.139 159.877 593.46 159.866C593.46 159.866 608.134 153.946 619.754 159.357C631.374 164.769 629.355 175.252 619.041 180.698Z" fill="#263238"/>
<path d="M671.761 340.971L651.405 343.685C651.405 343.685 643.008 285.008 639.31 266.059V225.618L649.946 222.819L658.19 225.618C660.451 233.754 662.191 242.027 663.398 250.385C664.399 256.729 665.298 263.514 666.095 270.385C667.198 279.749 668.114 289.282 668.894 298.205C670.116 312.607 670.93 325.347 671.371 333.134C671.625 338.019 671.761 340.971 671.761 340.971Z" fill="#0077FF"/>
<path d="M639.328 266.025C639.328 266.025 641.024 237.475 649.964 222.751C649.964 222.751 649.743 218.544 647.962 217.865C646.181 217.186 639.328 221.258 639.328 221.258C639.328 221.258 635.07 218.34 634.137 219.697C633.204 221.054 630.931 230.079 639.328 266.025Z" fill="#0077FF"/>
<path opacity="0.7" d="M639.328 266.025C639.328 266.025 641.024 237.475 649.964 222.751C649.964 222.751 649.743 218.544 647.962 217.865C646.181 217.186 639.328 221.258 639.328 221.258C639.328 221.258 635.07 218.34 634.137 219.697C633.204 221.054 630.931 230.079 639.328 266.025Z" fill="white"/>
<path d="M593.049 348.791L595.373 350.487C595.373 350.487 591.981 331.572 593.372 283.735C593.372 281.428 593.524 279.205 593.609 277.085C595.306 236.61 601.616 229.247 602.091 228.806L596.222 230.808L585.585 234.472C582.379 268.993 593.049 348.791 593.049 348.791Z" fill="#0077FF"/>
<path d="M593.967 270.113C593.967 270.113 588.097 242.361 589.845 232.793C591.592 223.226 597.852 227.484 597.852 227.484C597.852 227.484 603.602 222.835 605.316 227.959C605.316 227.959 597.411 233.523 593.967 270.113Z" fill="#0077FF"/>
<path opacity="0.7" d="M593.967 270.113C593.967 270.113 588.097 242.361 589.845 232.793C591.592 223.226 597.852 227.484 597.852 227.484C597.852 227.484 603.602 222.835 605.316 227.959C605.316 227.959 597.411 233.523 593.967 270.113Z" fill="white"/>
<path opacity="0.2" d="M666.062 270.317C657.376 265.448 656.223 252.742 656.223 252.742C656.749 252.539 659.972 251.436 663.364 250.316C664.365 256.661 665.264 263.446 666.062 270.317Z" fill="black"/>
<path opacity="0.2" d="M623.588 435.221L630.899 395.441L629.491 374.389C629.491 374.389 619.466 410.895 623.588 435.221Z" fill="black"/>
<path opacity="0.2" d="M671.339 333.065C665.876 332.692 661.16 332.336 661.16 332.336L660.126 310.131C661.828 309.065 663.872 308.689 665.842 309.079C667.185 305.531 668.201 301.869 668.879 298.137C670.066 312.539 670.898 325.296 671.339 333.065Z" fill="black"/>
<path d="M673.205 298.12L662.568 315.203L670.982 320.037L680.974 304.651L673.205 298.12Z" fill="#E4897B"/>
<path d="M657.733 225.346C664.892 226.126 695.325 267.891 696.665 280.478C698.005 293.065 678.785 314.796 678.785 314.796L665.96 307.247C665.96 307.247 678.989 287.213 679.667 281.801C680.346 276.39 655.833 254.524 655.833 254.524C653.98 249.486 652.96 244.181 652.814 238.815C652.474 229.621 657.733 225.346 657.733 225.346Z" fill="#0077FF"/>
<path d="M660.108 310.148C660.108 310.148 671.049 312.489 675.46 319.376C675.46 319.376 670.879 333.71 667.606 335.271C664.332 336.832 656.223 336.832 656.223 336.832C656.223 336.832 655.697 320.886 660.108 310.148Z" fill="#0077FF"/>
</svg>
