<svg width="404" height="315" viewBox="0 0 404 315" fill="none" xmlns="http://www.w3.org/2000/svg">
<g clip-path="url(#clip0_101_270)">
<path d="M19.4037 128.36C18.2834 128.411 17.3405 127.53 17.3145 126.408L16.726 101.035C16.6849 99.2643 18.7951 98.3178 20.0894 99.5268L46.0254 123.754C47.3198 124.963 46.5203 127.135 44.7512 127.215L19.4037 128.36Z" fill="#FF74C4"/>
</g>
<g clip-path="url(#clip1_101_270)">
<path d="M379.617 172.325C379.23 170.896 380.077 169.418 381.505 169.032L398.747 164.361C400.175 163.974 401.652 164.822 402.039 166.251C402.426 167.68 401.579 169.157 400.15 169.544L382.909 174.214C381.488 174.605 380.004 173.754 379.617 172.325Z" fill="#7C7ED5"/>
<path d="M387.785 158.069C389.214 157.682 390.691 158.53 391.079 159.959L395.754 177.211C396.142 178.64 395.295 180.118 393.866 180.504C392.437 180.891 390.96 180.043 390.573 178.614L385.897 161.362C385.513 159.944 386.364 158.46 387.785 158.069Z" fill="#7C7ED5"/>
</g>
<ellipse cx="207.494" cy="182" rx="106.214" ry="106" fill="#D1F3D7"/>
<path d="M340.263 181.5C340.263 254.953 280.597 314.5 206.993 314.5C133.389 314.5 73.7233 254.953 73.7233 181.5C73.7233 108.047 133.389 48.5 206.993 48.5C280.597 48.5 340.263 108.047 340.263 181.5Z" stroke="#D0EBD5"/>
<ellipse cx="207.494" cy="182" rx="81.1638" ry="81" fill="#3CD856"/>
<path d="M177.434 183.75L197.643 204L239.559 162" stroke="white" stroke-width="8" stroke-linecap="round"/>
<path d="M322.836 39.7858L325.034 64.8125L302.225 54.1937L322.836 39.7858Z" stroke="#3CD856" stroke-width="2"/>
<path d="M137.355 10C137.355 14.9687 133.318 19 128.335 19C123.351 19 119.314 14.9687 119.314 10C119.314 5.03134 123.351 1 128.335 1C133.318 1 137.355 5.03134 137.355 10Z" stroke="#FFA412" stroke-width="2"/>
<g clip-path="url(#clip2_101_270)">
<path d="M57.5948 250.872C50.794 246.093 41.3396 247.678 36.3384 254.502C31.3371 261.327 32.6699 270.825 39.2713 275.877L57.5948 250.872Z" fill="#3CD856"/>
</g>
<defs>
<clipPath id="clip0_101_270">
<rect width="45.0486" height="23.0217" rx="4" transform="matrix(-0.731459 -0.681886 -0.682975 0.730442 49.1742 127)" fill="white"/>
</clipPath>
<clipPath id="clip1_101_270">
<rect width="18.0274" height="18.009" fill="white" transform="matrix(0.867694 0.497099 -0.498217 0.867052 387.858 157)"/>
</clipPath>
<clipPath id="clip2_101_270">
<rect width="15.0197" height="31.0219" fill="white" transform="matrix(0.806885 0.590709 -0.591858 0.806043 45.1661 242)"/>
</clipPath>
</defs>
</svg>
